{
.appVersion = "3112";
.formatVersion = 3;
DisplayStrings = (
"The quıic/_corner.caps_diag_xs k brow/_corner.left n fox jumps over a lanzy dog
THW THE QUICK BROWN FOX  JUMPS OVER A LAZY D/slashlongcomb.case O/E.swsh/P.ss01 OOOQB  /Rmacronbelow.ss01/E.swsh/Q.swsh G",
"HHHOOOADJUSTINGkemie@/at.case QUIVER.COM AND BOW, ZOMPYC† KILLED $7 THE FO. Amazingly, C.J. Hquaffed sıix vodkas without burping. BaAc/_corner.caps_diag_xs k ›homenononn/n.ss01 ooonnn after‹ jiving, sheUSA expired (with quizzicality). Bo rocked a £3,500 xylophone, making quiet waves of jazz. Chip required 44% booze to fix my VolkPAagen® Jetta. Cozy sphinx©waves.com quart §28.2 jug of bad milk. Even while I adjust [my expectations hıigher,] you keep NYSE amazing me. I request: be my wife. \"Exquisite farm wench\" gives body* jolt to prize stinker. Five wine¶ experts MTA jokingly quizzed sample; chablis. French wine: ‘Ze bouquet is exceptıional, aqvec just un peu of monkey Hdung.’ GQ Magazine© backers enjoyed; the Pixies’ „Wave of Mutilation.” 


glyphs = (
{
glyphname = A;
kernLeft = A;
kernRight = A;
layers = (
{
anchors = (
{
name = bottom;
pos = (377,0);
},
{
name = ogonek;
pos = (686,0);
},
{
name = top;
pos = (379,687);
}
);
hints = (
{
name = _corner.caps_diag;
origin = (0,0);
scale = (-1,1);
type = Corner;
}
);
layerId = "0CAF3BED-C4AC-4024-B3E1-4C69D1EF7EC0";
shapes = (
{
closed = 1;
nodes = (
(180,53,l,{
"Letterink-NibData" = {
AngleInDegrees = 22.71999;
};
}),
(261,253,l,{
"Letterink-NibData" = {
AngleInDegrees = 236.57519;
};
}),
(211,210,l,{
"Letterink-NibData" = {
AngleInDegrees = 90;
};
}),
(543,210,l,{
"Letterink-NibData" = {
AngleInDegrees = 303.42481;
};
}),
(493,253,l,{
"Letterink-NibData" = {
AngleInDegrees = 157.34811;
};
}),
(599,0,l,{
"Letterink-NibData" = {
AngleInDegrees = 90;
};
}),
(682,0,l,{
"Letterink-NibData" = {
AngleInDegrees = 336.96218;
};
}),
(394,690,l,{
"Letterink-NibData" = {
AngleInDegrees = 270;
};
}),
(355,690,l,{
"Letterink-NibData" = {
AngleInDegrees = 202.82503;
};
}),
(106,83,l,{
"Letterink-NibData" = {
AngleInDegrees = 202.38014;
};
})
);
},
{
closed = 1;
nodes = (
(370,541,l,{
"Letterink-NibData" = {
AngleInDegrees = 8.1301;
};
}),
(376,571,l,{
"Letterink-NibData" = {
AngleInDegrees = 171.8699;
};
}),
(382,541,l,{
"Letterink-NibData" = {
AngleInDegrees = 159.79358;
};
}),
(487,260,l,{
"Letterink-NibData" = {
AngleInDegrees = 35.21759;
};
}),
(509,284,l,{
"Letterink-NibData" = {
AngleInDegrees = 270;
};
}),
(241,284,l,{
"Letterink-NibData" = {
AngleInDegrees = 145.92281;
};
}),
(264,260,l,{
"Letterink-NibData" = {
AngleInDegrees = 20.73026;
};
})
);
}
);
width = 694;
},
{
anchors = (
{
name = bottom;
pos = (384,0);
},
{
name = ogonek;
pos = (676,1);
},
{
name = top;
pos = (385,684);
}
);
hints = (
{
name = _corner.caps_diag;
options = 2;
origin = (0,0);
scale = (-1,1);
type = Corner;
}
);
layerId = "49C16FD3-6177-408B-A733-AEB3898BB77C";
shapes = (
{
closed = 1;
nodes = (
(152,45,l,{
"Letterink-NibData" = {
AngleInDegrees = 22.1315;
};
}),
(237,251,l,{
"Letterink-NibData" = {
AngleInDegrees = 235.7843;
};
}),
(213,234,l,{
"Letterink-NibData" = {
AngleInDegrees = 90;
};
}),
(554,234,l,{
"Letterink-NibData" = {
AngleInDegrees = 304.2157;
};
}),
(532,251,l,{
"Letterink-NibData" = {
AngleInDegrees = 157.41269;
};
}),
(635,0,l,{
"Letterink-NibData" = {
AngleInDegrees = 90;
};
}),
(676,0,l,{
"Letterink-NibData" = {
AngleInDegrees = 337.30364;
};
}),
(389,692,l,{
"Letterink-NibData" = {
AngleInDegrees = 270;
};
}),
(378,692,l,{
"Letterink-NibData" = {
AngleInDegrees = 202.68401;
};
}),
(118,61,l,{
"Letterink-NibData" = {
AngleInDegrees = 202.61986;
};
})
);
},
{
closed = 1;
nodes = (
(372,584,l,{
"Letterink-NibData" = {
AngleInDegrees = 16.29405;
};
}),
(384,627,l,{
"Letterink-NibData" = {
AngleInDegrees = 163.21735;
};
}),
(398,584,l,{
"Letterink-NibData" = {
AngleInDegrees = 158.19859;
};
}),
(528,257,l,{
"Letterink-NibData" = {
AngleInDegrees = 32.90524;
};
}),
(537,270,l,{
"Letterink-NibData" = {
AngleInDegrees = 270;
};
}),
(228,270,l,{
"Letterink-NibData" = {
AngleInDegrees = 147.09476;
};
}),
(239,257,l,{
"Letterink-NibData" = {
AngleInDegrees = 22.09423;
};
})
);
}
);
width = 703;
},
{
anchors = (
{
name = bottom;
pos = (421,-8);
},
{
name = ogonek;
pos = (714,1);
},
{
name = top;
pos = (421,684);
}
);
associatedMasterId = "49C16FD3-6177-408B-A733-AEB3898BB77C";
layerId = "E63F2094-54D6-44F3-A00F-83DE5DFBC8F4";
name = "6 Jan 22, 16:48";
shapes = (
{
closed = 1;
nodes = (
(148,-9,o),
(176,8,o),
(190,42,cs,{
"Letterink-NibData" = {
AngleInDegrees = 22.1315;
};
}),
(275,251,l,{
"Letterink-NibData" = {
AngleInDegrees = 235.7843;
};
}),
(250,234,l,{
"Letterink-NibData" = {
AngleInDegrees = 90;
};
}),
(590,234,l,{
"Letterink-NibData" = {
AngleInDegrees = 304.2157;
};
}),
(565,251,l,{
"Letterink-NibData" = {
AngleInDegrees = 157.41269;
};
}),
(669,1,l,{
"Letterink-NibData" = {
AngleInDegrees = 90;
};
}),
(714,1,l,{
"Letterink-NibData" = {
AngleInDegrees = 337.30364;
};
}),
(425,692,l,{
"Letterink-NibData" = {
AngleInDegrees = 270;
};
}),
(417,692,l,{
"Letterink-NibData" = {
AngleInDegrees = 202.68401;
};
}),
(152,58,ls,{
"Letterink-NibData" = {
AngleInDegrees = 202.61986;
};
}),
(147,46,o),
(132,31,o),
(115,31,cs,{
"Letterink-NibData" = {
AngleInDegrees = 270;
};
}),
(96,31,o),
(80,45,o),
(75,59,c,{
"Letterink-NibData" = {
AngleInDegrees = 261.25384;
};
}),
(36,53,l,{
"Letterink-NibData" = {
AngleInDegrees = 163.85566;
};
}),
(47,15,o),
(76,-9,o),
(114,-9,cs,{
"Letterink-NibData" = {
AngleInDegrees = 90;
};
})
);
},
{
closed = 1;
nodes = (
(401,560,l,{
"Letterink-NibData" = {
AngleInDegrees = 16.29405;
};
}),
(420,625,l,{
"Letterink-NibData" = {
AngleInDegrees = 163.21735;
};
}),
(439,562,l,{
"Letterink-NibData" = {
AngleInDegrees = 158.19859;
};
}),
(561,257,l,{
"Letterink-NibData" = {
AngleInDegrees = 32.90524;
};
}),
(572,274,l,{
"Letterink-NibData" = {
AngleInDegrees = 270;
};
}),
(267,274,l,{
"Letterink-NibData" = {
AngleInDegrees = 147.09476;
};
}),
(278,257,l,{
"Letterink-NibData" = {
AngleInDegrees = 22.09423;
};
})
);
}
);
width = 752;
},
{
anchors = (
{
name = bottom;
pos = (433,0);
},
{
name = ogonek;
pos = (768,0);
},
{
name = top;
pos = (435,695);
}
);
hints = (
{
name = _corner.caps_diag;
options = 2;
origin = (0,0);
scale = (-1,1);
type = Corner;
}
);
layerId = m004;
shapes = (
{
closed = 1;
nodes = (
(283,61,l,{
"Letterink-NibData" = {
AngleInDegrees = "22.65189";
};
}),
(373,257,l,{
"Letterink-NibData" = {
AngleInDegrees = "236.57519";
};
}),
(279,146,l,{
"Letterink-NibData" = {
AngleInDegrees = "90";
};
}),
(589,146,l,{
"Letterink-NibData" = {
AngleInDegrees = "303.42481";
};
}),
(489,257,l,{
"Letterink-NibData" = {
AngleInDegrees = "156.96496";
};
}),
(590,0,l,{
"Letterink-NibData" = {
AngleInDegrees = "90";
};
}),
(768,0,l,{
"Letterink-NibData" = {
AngleInDegrees = "337.32254";
};
}),
(477,708,l,{
"Letterink-NibData" = {
AngleInDegrees = "270";
};
}),
(391,708,l,{
"Letterink-NibData" = {
AngleInDegrees = "202.53914";
};
}),
(138,139,l,{
"Letterink-NibData" = {
AngleInDegrees = "90";
};
})
);
},
{
closed = 1;
nodes = (
(448,480,l,{
"Letterink-NibData" = {
AngleInDegrees = "19.98311";
};
}),
(433,484,l,{
"Letterink-NibData" = {
AngleInDegrees = "161.56505";
};
}),
(418,480,l,{
"Letterink-NibData" = {
AngleInDegrees = "158.35875";
};
}),
(485,272,l,{
"Letterink-NibData" = {
AngleInDegrees = "34.87533";
};
}),
(527,288,l,{
"Letterink-NibData" = {
AngleInDegrees = "270";
};
}),
(336,288,l,{
"Letterink-NibData" = {
AngleInDegrees = "145.92281";
};
}),
(380,268,l,{
"Letterink-NibData" = {
AngleInDegrees = "21.36191";
};
})
);
}
);
width = 769;
}
);
metricLeft = H;
unicode = 65;
userData = {
position = 666;
width = 20;
};
},
{
glyphname = A.ss01;
kernLeft = Atext;
kernRight = A;
layers = (
{
anchors = (
{
name = bottom;
pos = (317,0);
},
{
name = ogonek;
pos = (628,-1);
},
{
name = top;
pos = (317,690);
}
);
layerId = "0CAF3BED-C4AC-4024-B3E1-4C69D1EF7EC0";
shapes = (
{
closed = 1;
nodes = (
(96,0,l,{
"Letterink-NibData" = {
AngleInDegrees = 22.65189;
};
}),
(201,253,l,{
"Letterink-NibData" = {
AngleInDegrees = 236.57519;
};
}),
(150,210,l,{
"Letterink-NibData" = {
AngleInDegrees = 90;
};
}),
(483,210,l,{
"Letterink-NibData" = {
AngleInDegrees = 303.42481;
};
}),
(433,253,l,{
"Letterink-NibData" = {
AngleInDegrees = 156.96496;
};
}),
(539,0,l,{
"Letterink-NibData" = {
AngleInDegrees = 90;
};
}),
(628,0,l,{
"Letterink-NibData" = {
AngleInDegrees = 337.32254;
};
}),
(333,702,l,{
"Letterink-NibData" = {
AngleInDegrees = 270;
};
}),
(300,702,l,{
"Letterink-NibData" = {
AngleInDegrees = 202.53914;
};
}),
(7,0,l,{
"Letterink-NibData" = {
AngleInDegrees = 90;
};
})
);
},
{
closed = 1;
nodes = (
(306,511,l,{
"Letterink-NibData" = {
AngleInDegrees = 19.98311;
};
}),
(316,553,l,{
"Letterink-NibData" = {
AngleInDegrees = 161.56505;
};
}),
(327,511,l,{
"Letterink-NibData" = {
AngleInDegrees = 158.35875;
};
}),
(426,260,l,{
"Letterink-NibData" = {
AngleInDegrees = 34.87533;
};
}),
(451,284,l,{
"Letterink-NibData" = {
AngleInDegrees = 270;
};
}),
(181,284,l,{
"Letterink-NibData" = {
AngleInDegrees = 145.92281;
};
}),
(206,260,l,{
"Letterink-NibData" = {
AngleInDegrees = 21.36191;
};
})
);
}
);
width = 635;
},
{
anchors = (
{
name = bottom;
pos = (328,-2);
},
{
name = ogonek;
pos = (630,1);
},
{
name = top;
pos = (327,684);
}
);
layerId = "49C16FD3-6177-408B-A733-AEB3898BB77C";
shapes = (
{
closed = 1;
nodes = (
(67,0,l,{
"Letterink-NibData" = {
AngleInDegrees = 22.78241;
};
}),
(172,251,l,{
"Letterink-NibData" = {
AngleInDegrees = 235.7843;
};
}),
(151,236,l,{
"Letterink-NibData" = {
AngleInDegrees = 90;
};
}),
(504,236,l,{
"Letterink-NibData" = {
AngleInDegrees = 304.2157;
};
}),
(483,251,l,{
"Letterink-NibData" = {
AngleInDegrees = 157.02305;
};
}),
(589,0,l,{
"Letterink-NibData" = {
AngleInDegrees = 90;
};
}),
(630,0,l,{
"Letterink-NibData" = {
AngleInDegrees = 336.95898;
};
}),
(332,699,l,{
"Letterink-NibData" = {
AngleInDegrees = 270;
};
}),
(323,699,l,{
"Letterink-NibData" = {
AngleInDegrees = 202.90284;
};
}),
(27,0,l,{
"Letterink-NibData" = {
AngleInDegrees = 90;
};
})
);
},
{
closed = 1;
nodes = (
(314,585,l,{
"Letterink-NibData" = {
AngleInDegrees = 22.61986;
};
}),
(328,631,l,{
"Letterink-NibData" = {
AngleInDegrees = 160.34617;
};
}),
(343,587,l,{
"Letterink-NibData" = {
AngleInDegrees = 157.39526;
};
}),
(480,257,l,{
"Letterink-NibData" = {
AngleInDegrees = 32.90524;
};
}),
(490,272,l,{
"Letterink-NibData" = {
AngleInDegrees = 270;
};
}),
(165,272,l,{
"Letterink-NibData" = {
AngleInDegrees = 147.09476;
};
}),
(175,257,l,{
"Letterink-NibData" = {
AngleInDegrees = 22.96683;
};
})
);
}
);
width = 656;
},
{
anchors = (
{
name = bottom;
pos = (335,0);
},
{
name = ogonek;
pos = (675,0);
},
{
name = top;
pos = (334,694);
}
);
layerId = m004;
shapes = (
{
closed = 1;
nodes = (
(175,0,l,{
"Letterink-NibData" = {
AngleInDegrees = 22.65189;
};
}),
(280,257,l,{
"Letterink-NibData" = {
AngleInDegrees = 236.57519;
};
}),
(179,146,l,{
"Letterink-NibData" = {
AngleInDegrees = 90;
};
}),
(489,146,l,{
"Letterink-NibData" = {
AngleInDegrees = 303.42481;
};
}),
(389,257,l,{
"Letterink-NibData" = {
AngleInDegrees = 156.96496;
};
}),
(497,0,l,{
"Letterink-NibData" = {
AngleInDegrees = 90;
};
}),
(675,0,l,{
"Letterink-NibData" = {
AngleInDegrees = 337.32254;
};
}),
(381,704,l,{
"Letterink-NibData" = {
AngleInDegrees = 270;
};
}),
(295,704,l,{
"Letterink-NibData" = {
AngleInDegrees = 202.53914;
};
}),
(-6,0,l,{
"Letterink-NibData" = {
AngleInDegrees = 90;
};
})
);
},
{
closed = 1;
nodes = (
(356,480,l,{
"Letterink-NibData" = {
AngleInDegrees = 19.98311;
};
}),
(333,484,l,{
"Letterink-NibData" = {
AngleInDegrees = 161.56505;
};
}),
(307,480,l,{
"Letterink-NibData" = {
AngleInDegrees = 158.35875;
};
}),
(381,272,l,{
"Letterink-NibData" = {
AngleInDegrees = 34.87533;
};
}),
(427,288,l,{
"Letterink-NibData" = {
AngleInDegrees = 270;
};
}),
(236,288,l,{
"Letterink-NibData" = {
AngleInDegrees = 145.92281;
};
}),
(286,268,l,{
"Letterink-NibData" = {
AngleInDegrees = 21.36191;
};
})
);
}
);
width = 669;
}
);
userData = {
position = 10;
width = 615;
};
},
{
glyphname = A.swsh;
kernLeft = A;
kernRight = A;
layers = (
{
anchors = (
{
name = bottom;
pos = (391,0);
},
{
name = ogonek;
pos = (700,0);
},
{
name = top;
pos = (389,684);
}
);
hints = (
{
name = _corner.caps_swash_diag;
origin = (0,0);
scale = (-1,1);
type = Corner;
}
);
layerId = "0CAF3BED-C4AC-4024-B3E1-4C69D1EF7EC0";
shapes = (
{
closed = 1;
nodes = (
(194,53,l,{
"Letterink-NibData" = {
AngleInDegrees = "22.71999";
};
}),
(275,253,l,{
"Letterink-NibData" = {
AngleInDegrees = "236.57519";
};
}),
(225,210,l,{
"Letterink-NibData" = {
AngleInDegrees = "90";
};
}),
(557,210,l,{
"Letterink-NibData" = {
AngleInDegrees = "303.42481";
};
}),
(507,253,l,{
"Letterink-NibData" = {
AngleInDegrees = "157.34811";
};
}),
(613,0,l,{
"Letterink-NibData" = {
AngleInDegrees = "90";
};
}),
(700,0,l,{
"Letterink-NibData" = {
AngleInDegrees = "336.96218";
};
}),
(407,690,l,{
"Letterink-NibData" = {
AngleInDegrees = "270";
};
}),
(373,690,l,{
"Letterink-NibData" = {
AngleInDegrees = "202.82503";
};
}),
(120,83,l,{
"Letterink-NibData" = {
AngleInDegrees = "202.38014";
};
})
);
},
{
closed = 1;
nodes = (
(384,541,l,{
"Letterink-NibData" = {
AngleInDegrees = "8.130100000000001";
};
}),
(390,571,l,{
"Letterink-NibData" = {
AngleInDegrees = "171.8699";
};
}),
(397,541,l,{
"Letterink-NibData" = {
AngleInDegrees = "159.79358";
};
}),
(499,260,l,{
"Letterink-NibData" = {
AngleInDegrees = "35.21759";
};
}),
(523,284,l,{
"Letterink-NibData" = {
AngleInDegrees = "270";
};
}),
(255,284,l,{
"Letterink-NibData" = {
AngleInDegrees = "145.92281";
};
}),
(278,260,l,{
"Letterink-NibData" = {
AngleInDegrees = "20.73026";
};
})
);
}
);
width = 712;
},
{
anchors = (
{
name = bottom;
pos = (402,0);
},
{
name = ogonek;
pos = (694,1);
},
{
name = top;
pos = (403,684);
}
);
hints = (
{
name = _corner.caps_swash_diag;
origin = (0,0);
scale = (-1,1);
type = Corner;
}
);
layerId = "49C16FD3-6177-408B-A733-AEB3898BB77C";
shapes = (
{
closed = 1;
nodes = (
(170,54,l,{
"Letterink-NibData" = {
AngleInDegrees = "22.1315";
};
}),
(253,251,l,{
"Letterink-NibData" = {
AngleInDegrees = "235.7843";
};
}),
(231,234,l,{
"Letterink-NibData" = {
AngleInDegrees = "90";
};
}),
(572,234,l,{
"Letterink-NibData" = {
AngleInDegrees = "304.2157";
};
}),
(550,251,l,{
"Letterink-NibData" = {
AngleInDegrees = "157.41269";
};
}),
(653,0,l,{
"Letterink-NibData" = {
AngleInDegrees = "90";
};
}),
(694,0,l,{
"Letterink-NibData" = {
AngleInDegrees = "337.30364";
};
}),
(407,692,l,{
"Letterink-NibData" = {
AngleInDegrees = "270";
};
}),
(398,692,l,{
"Letterink-NibData" = {
AngleInDegrees = "202.68401";
};
}),
(136,70,l,{
"Letterink-NibData" = {
AngleInDegrees = "202.61986";
};
})
);
},
{
closed = 1;
nodes = (
(389,584,l,{
"Letterink-NibData" = {
AngleInDegrees = "16.29405";
};
}),
(402,627,l,{
"Letterink-NibData" = {
AngleInDegrees = "163.21735";
};
}),
(416,584,l,{
"Letterink-NibData" = {
AngleInDegrees = "158.19859";
};
}),
(546,257,l,{
"Letterink-NibData" = {
AngleInDegrees = "32.90524";
};
}),
(555,270,l,{
"Letterink-NibData" = {
AngleInDegrees = "270";
};
}),
(246,270,l,{
"Letterink-NibData" = {
AngleInDegrees = "147.09476";
};
}),
(256,257,l,{
"Letterink-NibData" = {
AngleInDegrees = "22.09423";
};
})
);
}
);
width = 721;
},
{
anchors = (
{
name = bottom;
pos = (424,-6);
},
{
name = ogonek;
pos = (720,0);
},
{
name = top;
pos = (424,684);
}
);
associatedMasterId = "49C16FD3-6177-408B-A733-AEB3898BB77C";
layerId = "58617E73-3A60-467D-AD5A-D66EDA6AE7B6";
name = "6 Jan 22, 16:52";
shapes = (
{
closed = 1;
nodes = (
(162,-11,o),
(188,10,o),
(204,49,cs,{
"Letterink-NibData" = {
AngleInDegrees = 21.9487;
};
}),
(285,250,l,{
"Letterink-NibData" = {
AngleInDegrees = 235.7843;
};
}),
(260,233,l,{
"Letterink-NibData" = {
AngleInDegrees = 90;
};
}),
(587,233,l,{
"Letterink-NibData" = {
AngleInDegrees = 304.2157;
};
}),
(562,250,l,{
"Letterink-NibData" = {
AngleInDegrees = 157.41269;
};
}),
(666,0,l,{
"Letterink-NibData" = {
AngleInDegrees = 90;
};
}),
(715,0,l,{
"Letterink-NibData" = {
AngleInDegrees = 337.54495;
};
}),
(429,692,l,{
"Letterink-NibData" = {
AngleInDegrees = 270;
};
}),
(419,692,l,{
"Letterink-NibData" = {
AngleInDegrees = 202.29205;
};
}),
(164,70,ls,{
"Letterink-NibData" = {
AngleInDegrees = 202.47943;
};
}),
(152,41,o),
(141,30,o),
(121,30,cs,{
"Letterink-NibData" = {
AngleInDegrees = 270;
};
}),
(101,30,o),
(84,48,o),
(84,67,cs),
(84,72,o),
(85,77,o),
(87,82,c,{
"Letterink-NibData" = {
AngleInDegrees = 304.43899;
};
}),
(52,106,l,{
"Letterink-NibData" = {
AngleInDegrees = 213.69007;
};
}),
(44,94,o),
(40,76,o),
(40,66,cs,{
"Letterink-NibData" = {
AngleInDegrees = 180;
};
}),
(40,21,o),
(81,-11,o),
(123,-11,cs,{
"Letterink-NibData" = {
AngleInDegrees = 90;
};
})
);
},
{
closed = 1;
nodes = (
(410,569,l,{
"Letterink-NibData" = {
AngleInDegrees = 15.64224;
};
}),
(424,619,l,{
"Letterink-NibData" = {
AngleInDegrees = 165.42579;
};
}),
(437,569,l,{
"Letterink-NibData" = {
AngleInDegrees = 158.93765;
};
}),
(556,260,l,{
"Letterink-NibData" = {
AngleInDegrees = 35.21759;
};
}),
(568,277,l,{
"Letterink-NibData" = {
AngleInDegrees = 270;
};
}),
(279,277,l,{
"Letterink-NibData" = {
AngleInDegrees = 144.78241;
};
}),
(291,260,l,{
"Letterink-NibData" = {
AngleInDegrees = 21.06235;
};
})
);
}
);
width = 753;
},
{
anchors = (
{
name = bottom;
pos = (438,0);
},
{
name = ogonek;
pos = (780,0);
},
{
name = top;
pos = (437,694);
}
);
hints = (
{
name = _corner.caps_swash_diag;
options = 2;
origin = (0,0);
scale = (-1,1);
type = Corner;
}
);
layerId = m004;
shapes = (
{
closed = 1;
nodes = (
(288,66,l,{
"Letterink-NibData" = {
AngleInDegrees = "22.65189";
};
}),
(381,257,l,{
"Letterink-NibData" = {
AngleInDegrees = "236.57519";
};
}),
(284,146,l,{
"Letterink-NibData" = {
AngleInDegrees = "90";
};
}),
(594,146,l,{
"Letterink-NibData" = {
AngleInDegrees = "303.42481";
};
}),
(499,257,l,{
"Letterink-NibData" = {
AngleInDegrees = "156.96496";
};
}),
(607,0,l,{
"Letterink-NibData" = {
AngleInDegrees = "90";
};
}),
(780,0,l,{
"Letterink-NibData" = {
AngleInDegrees = "337.32254";
};
}),
(482,708,l,{
"Letterink-NibData" = {
AngleInDegrees = "270";
};
}),
(396,708,l,{
"Letterink-NibData" = {
AngleInDegrees = "202.53914";
};
}),
(143,144,l,{
"Letterink-NibData" = {
AngleInDegrees = "90";
};
})
);
},
{
closed = 1;
nodes = (
(455,480,l,{
"Letterink-NibData" = {
AngleInDegrees = "19.98311";
};
}),
(438,484,l,{
"Letterink-NibData" = {
AngleInDegrees = "161.56505";
};
}),
(419,480,l,{
"Letterink-NibData" = {
AngleInDegrees = "158.35875";
};
}),
(486,272,l,{
"Letterink-NibData" = {
AngleInDegrees = "34.87533";
};
}),
(532,288,l,{
"Letterink-NibData" = {
AngleInDegrees = "270";
};
}),
(341,288,l,{
"Letterink-NibData" = {
AngleInDegrees = "145.92281";
};
}),
(387,268,l,{
"Letterink-NibData" = {
AngleInDegrees = "21.36191";
};
})
);
}
);
width = 781;
}
);
metricLeft = "=A*1.2";
metricRight = A;
userData = {
position = 666;
width = 20;
};
},
{
glyphname = AE;
kernLeft = AE;
kernRight = E;
layers = (
{
anchors = (
{
name = bottom;
pos = (507,0);
},
{
name = top;
pos = (518,673);
}
);
hints = (
{
name = _corner.caps_diag;
options = 1;
origin = (0,0);
scale = (-1,1);
type = Corner;
}
);
layerId = "0CAF3BED-C4AC-4024-B3E1-4C69D1EF7EC0";
shapes = (
{
closed = 1;
nodes = (
(176,37,l,{
"Letterink-NibData" = {
AngleInDegrees = 26.8249;
};
}),
(281,252,l,{
"Letterink-NibData" = {
AngleInDegrees = 90;
};
}),
(224,210,l,{
"Letterink-NibData" = {
AngleInDegrees = 90;
};
}),
(483,210,l,{
"Letterink-NibData" = {
AngleInDegrees = 180;
};
}),
(447,256,l,{
"Letterink-NibData" = {
AngleInDegrees = 180;
};
}),
(447,-1,l,{
"Letterink-NibData" = {
AngleInDegrees = 90;
};
}),
(884,-1,l),
(884,75,l,{
"Letterink-NibData" = {
AngleInDegrees = 270;
};
}),
(529,75,l),
(529,325,l,{
"Letterink-NibData" = {
AngleInDegrees = 90;
};
}),
(766,325,l),
(766,401,l,{
"Letterink-NibData" = {
AngleInDegrees = 270;
};
}),
(529,401,l),
(529,610,l,{
"Letterink-NibData" = {
AngleInDegrees = 90;
};
}),
(864,610,l),
(864,686,l,{
"Letterink-NibData" = {
AngleInDegrees = 270;
};
}),
(420,686,l,{
"Letterink-NibData" = {
AngleInDegrees = 208.5766;
};
}),
(112,86,l,{
"Letterink-NibData" = {
AngleInDegrees = 209.0546;
};
})
);
},
{
closed = 1;
nodes = (
(429,537,l,{
"Letterink-NibData" = {
AngleInDegrees = 23.19859;
};
}),
(447,586,l,{
"Letterink-NibData" = {
AngleInDegrees = 180;
};
}),
(447,260,l,{
"Letterink-NibData" = {
AngleInDegrees = 270;
};
}),
(483,286,l,{
"Letterink-NibData" = {
AngleInDegrees = 270;
};
}),
(268,286,l,{
"Letterink-NibData" = {
AngleInDegrees = 28.71031;
};
}),
(287,264,l,{
"Letterink-NibData" = {
AngleInDegrees = 28.71031;
};
})
);
}
);
width = 926;
},
{
anchors = (
{
name = bottom;
pos = (527,0);
},
{
name = top;
pos = (520,684);
}
);
hints = (
{
name = _corner.caps_diag;
origin = (0,0);
scale = (-1,1);
type = Corner;
}
);
layerId = "49C16FD3-6177-408B-A733-AEB3898BB77C";
shapes = (
{
closed = 1;
nodes = (
(152,43,l,{
"Letterink-NibData" = {
AngleInDegrees = 29.29136;
};
}),
(258,249,l,{
"Letterink-NibData" = {
AngleInDegrees = 90;
};
}),
(235,237,l,{
"Letterink-NibData" = {
AngleInDegrees = 90;
};
}),
(499,237,l,{
"Letterink-NibData" = {
AngleInDegrees = 180;
};
}),
(483,253,l,{
"Letterink-NibData" = {
AngleInDegrees = 180;
};
}),
(483,1,l,{
"Letterink-NibData" = {
AngleInDegrees = 90;
};
}),
(900,1,l),
(900,37,l,{
"Letterink-NibData" = {
AngleInDegrees = 270;
};
}),
(520,37,l),
(520,346,l,{
"Letterink-NibData" = {
AngleInDegrees = 90;
};
}),
(776,346,l),
(776,382,l,{
"Letterink-NibData" = {
AngleInDegrees = 270;
};
}),
(520,382,l),
(520,649,l,{
"Letterink-NibData" = {
AngleInDegrees = 90;
};
}),
(880,649,l),
(880,685,l,{
"Letterink-NibData" = {
AngleInDegrees = 270;
};
}),
(454,685,l,{
"Letterink-NibData" = {
AngleInDegrees = 208.82166;
};
}),
(117,56,l,{
"Letterink-NibData" = {
AngleInDegrees = 213.69007;
};
})
);
},
{
closed = 1;
nodes = (
(447,600,l,{
"Letterink-NibData" = {
AngleInDegrees = 27.32389;
};
}),
(482,663,l,{
"Letterink-NibData" = {
AngleInDegrees = 179.84962;
};
}),
(483,257,l,{
"Letterink-NibData" = {
AngleInDegrees = 270;
};
}),
(499,273,l,{
"Letterink-NibData" = {
AngleInDegrees = 270;
};
}),
(253,273,l,{
"Letterink-NibData" = {
AngleInDegrees = 28.59795;
};
}),
(261,259,l,{
"Letterink-NibData" = {
AngleInDegrees = 28.59795;
};
})
);
}
);
width = 915;
},
{
anchors = (
{
name = bottom;
pos = (548,0);
},
{
name = top;
pos = (556,692);
}
);
associatedMasterId = "49C16FD3-6177-408B-A733-AEB3898BB77C";
layerId = "C1A3D0A8-503D-4B78-876F-381CB7337013";
name = "11 Jan 22, 13:13";
shapes = (
{
closed = 1;
nodes = (
(139,-2,o),
(151,26,o),
(182,71,c,{
"Letterink-NibData" = {
AngleInDegrees = 29.29136;
};
}),
(274,235,l,{
"Letterink-NibData" = {
AngleInDegrees = 90;
};
}),
(502,235,l,{
"Letterink-NibData" = {
AngleInDegrees = 180;
};
}),
(502,1,l,{
"Letterink-NibData" = {
AngleInDegrees = 90;
};
}),
(921,1,l),
(921,41,l,{
"Letterink-NibData" = {
AngleInDegrees = 270;
};
}),
(544,41,l),
(544,344,l,{
"Letterink-NibData" = {
AngleInDegrees = 90;
};
}),
(798,344,l),
(798,384,l,{
"Letterink-NibData" = {
AngleInDegrees = 270;
};
}),
(544,384,l),
(544,645,l,{
"Letterink-NibData" = {
AngleInDegrees = 90;
};
}),
(901,645,l),
(901,685,l,{
"Letterink-NibData" = {
AngleInDegrees = 270;
};
}),
(474,685,l,{
"Letterink-NibData" = {
AngleInDegrees = 208.82166;
};
}),
(140,78,l,{
"Letterink-NibData" = {
AngleInDegrees = 213.69007;
};
}),
(126,57,o),
(117,38,o),
(93,38,cs,{
"Letterink-NibData" = {
AngleInDegrees = 270;
};
}),
(79,38,o),
(62,47,o),
(54,56,c,{
"Letterink-NibData" = {
AngleInDegrees = 244.0577;
};
}),
(17,38,l,{
"Letterink-NibData" = {
AngleInDegrees = 146.82149;
};
}),
(34,12,o),
(61,-2,o),
(92,-2,cs,{
"Letterink-NibData" = {
AngleInDegrees = 90;
};
})
);
},
{
closed = 1;
nodes = (
(470,596,l,{
"Letterink-NibData" = {
AngleInDegrees = 27.32389;
};
}),
(501,656,l,{
"Letterink-NibData" = {
AngleInDegrees = 179.84962;
};
}),
(502,275,l,{
"Letterink-NibData" = {
AngleInDegrees = 270;
};
}),
(295,275,l,{
"Letterink-NibData" = {
AngleInDegrees = 28.59795;
};
})
);
}
);
width = 966;
},
{
anchors = (
{
name = bottom;
pos = (543,0);
},
{
name = top;
pos = (554,673);
}
);
associatedMasterId = "0CAF3BED-C4AC-4024-B3E1-4C69D1EF7EC0";
layerId = "8D16C2AC-4E99-48C9-ADA3-C168C353B72B";
name = "11 Jan 22, 13:30";
shapes = (
{
closed = 1;
nodes = (
(142,-12,o),
(179,8,o),
(197,44,cs,{
"Letterink-NibData" = {
AngleInDegrees = 26.8249;
};
}),
(286,220,l,{
"Letterink-NibData" = {
AngleInDegrees = 90;
};
}),
(483,220,l,{
"Letterink-NibData" = {
AngleInDegrees = 180;
};
}),
(483,-1,l,{
"Letterink-NibData" = {
AngleInDegrees = 90;
};
}),
(920,-1,l),
(920,75,l,{
"Letterink-NibData" = {
AngleInDegrees = 270;
};
}),
(565,75,l),
(565,325,l,{
"Letterink-NibData" = {
AngleInDegrees = 90;
};
}),
(802,325,l),
(802,401,l,{
"Letterink-NibData" = {
AngleInDegrees = 270;
};
}),
(565,401,l),
(565,610,l,{
"Letterink-NibData" = {
AngleInDegrees = 90;
};
}),
(900,610,l),
(900,686,l,{
"Letterink-NibData" = {
AngleInDegrees = 270;
};
}),
(456,686,l,{
"Letterink-NibData" = {
AngleInDegrees = 208.5766;
};
}),
(133,93,ls,{
"Letterink-NibData" = {
AngleInDegrees = 209.0546;
};
}),
(123,75,o),
(114,67,o),
(99,67,cs,{
"Letterink-NibData" = {
AngleInDegrees = 270;
};
}),
(88,67,o),
(76,72,o),
(66,86,c,{
"Letterink-NibData" = {
AngleInDegrees = 220.6013;
};
}),
(18,30,l,{
"Letterink-NibData" = {
AngleInDegrees = 145.7843;
};
}),
(35,5,o),
(66,-12,o),
(107,-12,cs,{
"Letterink-NibData" = {
AngleInDegrees = 90;
};
})
);
},
{
closed = 1;
nodes = (
(462,537,l,{
"Letterink-NibData" = {
AngleInDegrees = 23.19859;
};
}),
(483,586,l,{
"Letterink-NibData" = {
AngleInDegrees = 180;
};
}),
(483,296,l,{
"Letterink-NibData" = {
AngleInDegrees = 270;
};
}),
(330,296,l,{
"Letterink-NibData" = {
AngleInDegrees = 28.71031;
};
})
);
}
);
width = 962;
},
{
anchors = (
{
name = bottom;
pos = (607,0);
},
{
name = top;
pos = (618,684);
}
);
hints = (
{
name = _corner.caps_diag;
options = 2;
origin = (0,0);
scale = (-1,1);
type = Corner;
}
);
layerId = m004;
shapes = (
{
closed = 1;
nodes = (
(283,70,l,{
"Letterink-NibData" = {
AngleInDegrees = "28.81079";
};
}),
(379,256,l,{
"Letterink-NibData" = {
AngleInDegrees = "90";
};
}),
(287,146,l,{
"Letterink-NibData" = {
AngleInDegrees = "90";
};
}),
(556,146,l,{
"Letterink-NibData" = {
AngleInDegrees = "180";
};
}),
(486,264,l,{
"Letterink-NibData" = {
AngleInDegrees = "180";
};
}),
(486,0,l,{
"Letterink-NibData" = {
AngleInDegrees = "90";
};
}),
(950,0,l),
(950,148,l,{
"Letterink-NibData" = {
AngleInDegrees = "270";
};
}),
(651,148,l),
(651,281,l,{
"Letterink-NibData" = {
AngleInDegrees = "90";
};
}),
(840,281,l),
(840,429,l,{
"Letterink-NibData" = {
AngleInDegrees = "270";
};
}),
(651,429,l),
(651,536,l,{
"Letterink-NibData" = {
AngleInDegrees = "90";
};
}),
(930,536,l),
(930,684,l,{
"Letterink-NibData" = {
AngleInDegrees = "270";
};
}),
(431,684,l,{
"Letterink-NibData" = {
AngleInDegrees = "209.70894";
};
}),
(136,145,l,{
"Letterink-NibData" = {
AngleInDegrees = "89.3704";
};
})
);
},
{
closed = 1;
nodes = (
(491,488,l,{
"Letterink-NibData" = {
AngleInDegrees = "23.62938";
};
}),
(486,449,l,{
"Letterink-NibData" = {
AngleInDegrees = "180";
};
}),
(486,275,l,{
"Letterink-NibData" = {
AngleInDegrees = "270";
};
}),
(556,296,l,{
"Letterink-NibData" = {
AngleInDegrees = "270";
};
}),
(368,296,l,{
"Letterink-NibData" = {
AngleInDegrees = "28.68615";
};
}),
(405,279,l,{
"Letterink-NibData" = {
AngleInDegrees = "28.68615";
};
})
);
}
);
width = 960;
},
{
anchors = (
{
name = bottom;
pos = (543,0);
},
{
name = top;
pos = (554,673);
}
);
associatedMasterId = m004;
layerId = "80EF8790-0869-49FF-90A7-EBAC34F5F575";
name = "11 Jan 22, 13:30";
shapes = (
{
closed = 1;
nodes = (
(142,-12,o),
(179,8,o),
(197,44,cs,{
"Letterink-NibData" = {
AngleInDegrees = 26.8249;
};
}),
(286,220,l,{
"Letterink-NibData" = {
AngleInDegrees = 90;
};
}),
(483,220,l,{
"Letterink-NibData" = {
AngleInDegrees = 180;
};
}),
(483,-1,l,{
"Letterink-NibData" = {
AngleInDegrees = 90;
};
}),
(920,-1,l),
(920,75,l,{
"Letterink-NibData" = {
AngleInDegrees = 270;
};
}),
(565,75,l),
(565,325,l,{
"Letterink-NibData" = {
AngleInDegrees = 90;
};
}),
(802,325,l),
(802,401,l,{
"Letterink-NibData" = {
AngleInDegrees = 270;
};
}),
(565,401,l),
(565,610,l,{
"Letterink-NibData" = {
AngleInDegrees = 90;
};
}),
(900,610,l),
(900,686,l,{
"Letterink-NibData" = {
AngleInDegrees = 270;
};
}),
(456,686,l,{
"Letterink-NibData" = {
AngleInDegrees = 208.5766;
};
}),
(133,93,ls,{
"Letterink-NibData" = {
AngleInDegrees = 209.0546;
};
}),
(123,75,o),
(114,67,o),
(99,67,cs,{
"Letterink-NibData" = {
AngleInDegrees = 270;
};
}),
(88,67,o),
(76,72,o),
(66,86,c,{
"Letterink-NibData" = {
AngleInDegrees = 220.6013;
};
}),
(18,30,l,{
"Letterink-NibData" = {
AngleInDegrees = 145.7843;
};
}),
(35,5,o),
(66,-12,o),
(107,-12,cs,{
"Letterink-NibData" = {
AngleInDegrees = 90;
};
})
);
},
{
closed = 1;
nodes = (
(462,537,l,{
"Letterink-NibData" = {
AngleInDegrees = 23.19859;
};
}),
(483,586,l,{
"Letterink-NibData" = {
AngleInDegrees = 180;
};
}),
(483,296,l,{
"Letterink-NibData" = {
AngleInDegrees = 270;
};
}),
(330,296,l,{
"Letterink-NibData" = {
AngleInDegrees = 28.71031;
};
})
);
}
);
width = 962;
}
);
metricLeft = A;
unicode = 198;
userData = {
position = 422;
width = 61;
};
},
{
glyphname = AE.ss01;
kernLeft = AE;
kernRight = E;
layers = (
{
anchors = (
{
name = bottom;
pos = (476,0);
},
{
name = top;
pos = (487,673);
}
);
layerId = "0CAF3BED-C4AC-4024-B3E1-4C69D1EF7EC0";
shapes = (
{
closed = 1;
nodes = (
(98,0,l,{
"Letterink-NibData" = {
AngleInDegrees = 28.81079;
};
}),
(236,252,l,{
"Letterink-NibData" = {
AngleInDegrees = 90;
};
}),
(183,210,l,{
"Letterink-NibData" = {
AngleInDegrees = 90;
};
}),
(452,210,l,{
"Letterink-NibData" = {
AngleInDegrees = 180;
};
}),
(416,256,l,{
"Letterink-NibData" = {
AngleInDegrees = 180;
};
}),
(416,-1,l,{
"Letterink-NibData" = {
AngleInDegrees = 90;
};
}),
(843,-1,l),
(843,75,l,{
"Letterink-NibData" = {
AngleInDegrees = 270;
};
}),
(498,75,l),
(498,325,l,{
"Letterink-NibData" = {
AngleInDegrees = 90;
};
}),
(725,325,l),
(725,401,l,{
"Letterink-NibData" = {
AngleInDegrees = 270;
};
}),
(498,401,l),
(498,610,l,{
"Letterink-NibData" = {
AngleInDegrees = 90;
};
}),
(823,610,l),
(823,686,l,{
"Letterink-NibData" = {
AngleInDegrees = 270;
};
}),
(399,686,l,{
"Letterink-NibData" = {
AngleInDegrees = 209.70894;
};
}),
(7,-1,l,{
"Letterink-NibData" = {
AngleInDegrees = 89.3704;
};
})
);
},
{
closed = 1;
nodes = (
(402,561,l,{
"Letterink-NibData" = {
AngleInDegrees = 23.62938;
};
}),
(416,593,l,{
"Letterink-NibData" = {
AngleInDegrees = 180;
};
}),
(416,260,l,{
"Letterink-NibData" = {
AngleInDegrees = 270;
};
}),
(452,286,l,{
"Letterink-NibData" = {
AngleInDegrees = 270;
};
}),
(221,286,l,{
"Letterink-NibData" = {
AngleInDegrees = 28.68615;
};
}),
(240,264,l,{
"Letterink-NibData" = {
AngleInDegrees = 28.68615;
};
})
);
}
);
width = 887;
},
{
anchors = (
{
name = bottom;
pos = (458,0);
},
{
name = top;
pos = (451,684);
}
);
layerId = "49C16FD3-6177-408B-A733-AEB3898BB77C";
shapes = (
{
closed = 1;
nodes = (
(69,1,l,{
"Letterink-NibData" = {
AngleInDegrees = 28.2127;
};
}),
(202,250,l,{
"Letterink-NibData" = {
AngleInDegrees = 90;
};
}),
(168,236,l,{
"Letterink-NibData" = {
AngleInDegrees = 90;
};
}),
(430,236,l,{
"Letterink-NibData" = {
AngleInDegrees = 180;
};
}),
(414,252,l,{
"Letterink-NibData" = {
AngleInDegrees = 180;
};
}),
(414,1,l,{
"Letterink-NibData" = {
AngleInDegrees = 90;
};
}),
(834,1,l),
(834,37,l,{
"Letterink-NibData" = {
AngleInDegrees = 270;
};
}),
(451,37,l),
(451,346,l,{
"Letterink-NibData" = {
AngleInDegrees = 90;
};
}),
(711,346,l),
(711,382,l,{
"Letterink-NibData" = {
AngleInDegrees = 270;
};
}),
(451,382,l),
(451,649,l,{
"Letterink-NibData" = {
AngleInDegrees = 90;
};
}),
(814,649,l),
(814,685,l,{
"Letterink-NibData" = {
AngleInDegrees = 270;
};
}),
(398,685,l,{
"Letterink-NibData" = {
AngleInDegrees = 208.86222;
};
}),
(27,1,l,{
"Letterink-NibData" = {
AngleInDegrees = 90;
};
})
);
},
{
closed = 1;
nodes = (
(391,601,l,{
"Letterink-NibData" = {
AngleInDegrees = 32.55;
};
}),
(414,650,l,{
"Letterink-NibData" = {
AngleInDegrees = 180;
};
}),
(414,256,l,{
"Letterink-NibData" = {
AngleInDegrees = 270;
};
}),
(430,272,l,{
"Letterink-NibData" = {
AngleInDegrees = 270;
};
}),
(184,272,l,{
"Letterink-NibData" = {
AngleInDegrees = 28.9193;
};
}),
(207,257,l,{
"Letterink-NibData" = {
AngleInDegrees = 28.9193;
};
})
);
}
);
width = 874;
},
{
anchors = (
{
name = bottom;
pos = (422,0);
},
{
name = top;
pos = (493,684);
}
);
layerId = m004;
shapes = (
{
closed = 1;
nodes = (
(177,1,l,{
"Letterink-NibData" = {
AngleInDegrees = "28.81079";
};
}),
(315,256,l,{
"Letterink-NibData" = {
AngleInDegrees = "90";
};
}),
(223,146,l,{
"Letterink-NibData" = {
AngleInDegrees = "90";
};
}),
(492,146,l,{
"Letterink-NibData" = {
AngleInDegrees = "180";
};
}),
(422,264,l,{
"Letterink-NibData" = {
AngleInDegrees = "180";
};
}),
(422,0,l,{
"Letterink-NibData" = {
AngleInDegrees = "90";
};
}),
(886,0,l),
(886,148,l,{
"Letterink-NibData" = {
AngleInDegrees = "270";
};
}),
(587,148,l),
(587,281,l,{
"Letterink-NibData" = {
AngleInDegrees = "90";
};
}),
(776,281,l),
(776,429,l,{
"Letterink-NibData" = {
AngleInDegrees = "270";
};
}),
(587,429,l),
(587,536,l,{
"Letterink-NibData" = {
AngleInDegrees = "90";
};
}),
(866,536,l),
(866,684,l,{
"Letterink-NibData" = {
AngleInDegrees = "270";
};
}),
(367,684,l,{
"Letterink-NibData" = {
AngleInDegrees = "209.70894";
};
}),
(-6,0,l,{
"Letterink-NibData" = {
AngleInDegrees = "89.3704";
};
})
);
},
{
closed = 1;
nodes = (
(423,488,l,{
"Letterink-NibData" = {
AngleInDegrees = "23.62938";
};
}),
(422,449,l,{
"Letterink-NibData" = {
AngleInDegrees = "180";
};
}),
(422,275,l,{
"Letterink-NibData" = {
AngleInDegrees = "270";
};
}),
(492,296,l,{
"Letterink-NibData" = {
AngleInDegrees = "270";
};
}),
(304,296,l,{
"Letterink-NibData" = {
AngleInDegrees = "28.68615";
};
}),
(341,279,l,{
"Letterink-NibData" = {
AngleInDegrees = "28.68615";
};
})
);
}
);
width = 949;
}
);
metricLeft = A.ss01;
metricRight = E;
userData = {
position = 422;
width = 61;
};
},
{
glyphname = AE.swsh;
kernLeft = AE;
kernRight = E;
layers = (
{
anchors = (
{
name = bottom;
pos = (508,0);
},
{
name = top;
pos = (519,673);
}
);
hints = (
{
name = _corner.caps_swash_diag;
options = 1;
origin = (0,0);
scale = (-1,1);
type = Corner;
}
);
layerId = "0CAF3BED-C4AC-4024-B3E1-4C69D1EF7EC0";
shapes = (
{
closed = 1;
nodes = (
(186,67,l,{
"Letterink-NibData" = {
AngleInDegrees = 26.8249;
};
}),
(277,252,l,{
"Letterink-NibData" = {
AngleInDegrees = 90;
};
}),
(225,210,l,{
"Letterink-NibData" = {
AngleInDegrees = 90;
};
}),
(484,210,l,{
"Letterink-NibData" = {
AngleInDegrees = 180;
};
}),
(448,256,l,{
"Letterink-NibData" = {
AngleInDegrees = 180;
};
}),
(448,-1,l,{
"Letterink-NibData" = {
AngleInDegrees = 90;
};
}),
(885,-1,l),
(885,75,l,{
"Letterink-NibData" = {
AngleInDegrees = 270;
};
}),
(530,75,l),
(530,325,l,{
"Letterink-NibData" = {
AngleInDegrees = 90;
};
}),
(767,325,l),
(767,401,l,{
"Letterink-NibData" = {
AngleInDegrees = 270;
};
}),
(530,401,l),
(530,610,l,{
"Letterink-NibData" = {
AngleInDegrees = 90;
};
}),
(865,610,l),
(865,686,l,{
"Letterink-NibData" = {
AngleInDegrees = 270;
};
}),
(421,686,l,{
"Letterink-NibData" = {
AngleInDegrees = 208.5766;
};
}),
(123,116,l,{
"Letterink-NibData" = {
AngleInDegrees = 209.0546;
};
})
);
},
{
closed = 1;
nodes = (
(432,537,l,{
"Letterink-NibData" = {
AngleInDegrees = 23.19859;
};
}),
(448,586,l,{
"Letterink-NibData" = {
AngleInDegrees = 180;
};
}),
(448,260,l,{
"Letterink-NibData" = {
AngleInDegrees = 270;
};
}),
(484,286,l,{
"Letterink-NibData" = {
AngleInDegrees = 270;
};
}),
(269,286,l,{
"Letterink-NibData" = {
AngleInDegrees = 28.71031;
};
}),
(288,264,l,{
"Letterink-NibData" = {
AngleInDegrees = 28.71031;
};
})
);
}
);
width = 927;
},
{
anchors = (
{
name = bottom;
pos = (546,0);
},
{
name = top;
pos = (554,694);
}
);
hints = (
{
name = _corner.caps_swash_diag;
origin = (0,0);
scale = (-1,1);
type = Corner;
}
);
layerId = "49C16FD3-6177-408B-A733-AEB3898BB77C";
shapes = (
{
closed = 1;
nodes = (
(167,48,l,{
"Letterink-NibData" = {
AngleInDegrees = 29.29136;
};
}),
(282,249,l,{
"Letterink-NibData" = {
AngleInDegrees = 90;
};
}),
(254,237,l,{
"Letterink-NibData" = {
AngleInDegrees = 90;
};
}),
(517,237,l,{
"Letterink-NibData" = {
AngleInDegrees = 180;
};
}),
(501,253,l,{
"Letterink-NibData" = {
AngleInDegrees = 180;
};
}),
(501,1,l,{
"Letterink-NibData" = {
AngleInDegrees = 90;
};
}),
(918,1,l),
(918,37,l,{
"Letterink-NibData" = {
AngleInDegrees = 270;
};
}),
(539,37,l),
(539,346,l,{
"Letterink-NibData" = {
AngleInDegrees = 90;
};
}),
(795,346,l),
(795,382,l,{
"Letterink-NibData" = {
AngleInDegrees = 270;
};
}),
(539,382,l),
(539,649,l,{
"Letterink-NibData" = {
AngleInDegrees = 90;
};
}),
(898,649,l),
(898,685,l,{
"Letterink-NibData" = {
AngleInDegrees = 270;
};
}),
(481,685,l,{
"Letterink-NibData" = {
AngleInDegrees = 208.82166;
};
}),
(131,61,l,{
"Letterink-NibData" = {
AngleInDegrees = 213.69007;
};
})
);
},
{
closed = 1;
nodes = (
(474,600,l,{
"Letterink-NibData" = {
AngleInDegrees = 27.32389;
};
}),
(500,650,l,{
"Letterink-NibData" = {
AngleInDegrees = 179.84962;
};
}),
(501,257,l,{
"Letterink-NibData" = {
AngleInDegrees = 270;
};
}),
(517,273,l,{
"Letterink-NibData" = {
AngleInDegrees = 270;
};
}),
(272,273,l,{
"Letterink-NibData" = {
AngleInDegrees = 28.59795;
};
}),
(285,259,l,{
"Letterink-NibData" = {
AngleInDegrees = 28.59795;
};
})
);
}
);
width = 933;
},
{
anchors = (
{
name = bottom;
pos = (548,0);
},
{
name = top;
pos = (556,692);
}
);
associatedMasterId = "49C16FD3-6177-408B-A733-AEB3898BB77C";
layerId = "C1A3D0A8-503D-4B78-876F-381CB7337013";
name = "11 Jan 22, 13:13";
shapes = (
{
closed = 1;
nodes = (
(139,-2,o),
(151,26,o),
(182,71,c,{
"Letterink-NibData" = {
AngleInDegrees = 29.29136;
};
}),
(274,235,l,{
"Letterink-NibData" = {
AngleInDegrees = 90;
};
}),
(502,235,l,{
"Letterink-NibData" = {
AngleInDegrees = 180;
};
}),
(502,1,l,{
"Letterink-NibData" = {
AngleInDegrees = 90;
};
}),
(921,1,l),
(921,41,l,{
"Letterink-NibData" = {
AngleInDegrees = 270;
};
}),
(544,41,l),
(544,344,l,{
"Letterink-NibData" = {
AngleInDegrees = 90;
};
}),
(798,344,l),
(798,384,l,{
"Letterink-NibData" = {
AngleInDegrees = 270;
};
}),
(544,384,l),
(544,645,l,{
"Letterink-NibData" = {
AngleInDegrees = 90;
};
}),
(901,645,l),
(901,685,l,{
"Letterink-NibData" = {
AngleInDegrees = 270;
};
}),
(474,685,l,{
"Letterink-NibData" = {
AngleInDegrees = 208.82166;
};
}),
(140,78,l,{
"Letterink-NibData" = {
AngleInDegrees = 213.69007;
};
}),
(126,57,o),
(117,38,o),
(93,38,cs,{
"Letterink-NibData" = {
AngleInDegrees = 270;
};
}),
(79,38,o),
(62,47,o),
(54,56,c,{
"Letterink-NibData" = {
AngleInDegrees = 244.0577;
};
}),
(17,38,l,{
"Letterink-NibData" = {
AngleInDegrees = 146.82149;
};
}),
(34,12,o),
(61,-2,o),
(92,-2,cs,{
"Letterink-NibData" = {
AngleInDegrees = 90;
};
})
);
},
{
closed = 1;
nodes = (
(470,596,l,{
"Letterink-NibData" = {
AngleInDegrees = 27.32389;
};
}),
(501,656,l,{
"Letterink-NibData" = {
AngleInDegrees = 179.84962;
};
}),
(502,275,l,{
"Letterink-NibData" = {
AngleInDegrees = 270;
};
}),
(295,275,l,{
"Letterink-NibData" = {
AngleInDegrees = 28.59795;
};
})
);
}
);
width = 966;
},
{
anchors = (
{
name = bottom;
pos = (543,0);
},
{
name = top;
pos = (554,673);
}
);
associatedMasterId = "0CAF3BED-C4AC-4024-B3E1-4C69D1EF7EC0";
layerId = "8D16C2AC-4E99-48C9-ADA3-C168C353B72B";
name = "11 Jan 22, 13:30";
shapes = (
{
closed = 1;
nodes = (
(142,-12,o),
(179,8,o),
(197,44,cs,{
"Letterink-NibData" = {
AngleInDegrees = 26.8249;
};
}),
(286,220,l,{
"Letterink-NibData" = {
AngleInDegrees = 90;
};
}),
(483,220,l,{
"Letterink-NibData" = {
AngleInDegrees = 180;
};
}),
(483,-1,l,{
"Letterink-NibData" = {
AngleInDegrees = 90;
};
}),
(920,-1,l),
(920,75,l,{
"Letterink-NibData" = {
AngleInDegrees = 270;
};
}),
(565,75,l),
(565,325,l,{
"Letterink-NibData" = {
AngleInDegrees = 90;
};
}),
(802,325,l),
(802,401,l,{
"Letterink-NibData" = {
AngleInDegrees = 270;
};
}),
(565,401,l),
(565,610,l,{
"Letterink-NibData" = {
AngleInDegrees = 90;
};
}),
(900,610,l),
(900,686,l,{
"Letterink-NibData" = {
AngleInDegrees = 270;
};
}),
(456,686,l,{
"Letterink-NibData" = {
AngleInDegrees = 208.5766;
};
}),
(133,93,ls,{
"Letterink-NibData" = {
AngleInDegrees = 209.0546;
};
}),
(123,75,o),
(114,67,o),
(99,67,cs,{
"Letterink-NibData" = {
AngleInDegrees = 270;
};
}),
(88,67,o),
(76,72,o),
(66,86,c,{
"Letterink-NibData" = {
AngleInDegrees = 220.6013;
};
}),
(18,30,l,{
"Letterink-NibData" = {
AngleInDegrees = 145.7843;
};
}),
(35,5,o),
(66,-12,o),
(107,-12,cs,{
"Letterink-NibData" = {
AngleInDegrees = 90;
};
})
);
},
{
closed = 1;
nodes = (
(462,537,l,{
"Letterink-NibData" = {
AngleInDegrees = 23.19859;
};
}),
(483,586,l,{
"Letterink-NibData" = {
AngleInDegrees = 180;
};
}),
(483,296,l,{
"Letterink-NibData" = {
AngleInDegrees = 270;
};
}),
(330,296,l,{
"Letterink-NibData" = {
AngleInDegrees = 28.71031;
};
})
);
}
);
width = 962;
},
{
anchors = (
{
name = bottom;
pos = (484,0);
},
{
name = top;
pos = (616,673);
}
);
hints = (
{
name = _corner.caps_swash_diag;
options = 1;
origin = (0,0);
scale = (-1,1);
type = Corner;
}
);
layerId = m004;
shapes = (
{
closed = 1;
nodes = (
(283,58,l,{
"Letterink-NibData" = {
AngleInDegrees = "28.81079";
};
}),
(377,256,l,{
"Letterink-NibData" = {
AngleInDegrees = "90";
};
}),
(285,146,l,{
"Letterink-NibData" = {
AngleInDegrees = "90";
};
}),
(554,146,l,{
"Letterink-NibData" = {
AngleInDegrees = "180";
};
}),
(484,264,l,{
"Letterink-NibData" = {
AngleInDegrees = "180";
};
}),
(484,0,l,{
"Letterink-NibData" = {
AngleInDegrees = "90";
};
}),
(948,0,l),
(948,148,l,{
"Letterink-NibData" = {
AngleInDegrees = "270";
};
}),
(649,148,l),
(649,291,l,{
"Letterink-NibData" = {
AngleInDegrees = "90";
};
}),
(838,291,l),
(838,439,l,{
"Letterink-NibData" = {
AngleInDegrees = "270";
};
}),
(649,439,l),
(649,536,l,{
"Letterink-NibData" = {
AngleInDegrees = "90";
};
}),
(928,536,l),
(928,684,l,{
"Letterink-NibData" = {
AngleInDegrees = "270";
};
}),
(424,684,l,{
"Letterink-NibData" = {
AngleInDegrees = "209.70894";
};
}),
(142,143,l,{
"Letterink-NibData" = {
AngleInDegrees = "89.3704";
};
})
);
},
{
closed = 1;
nodes = (
(486,488,l,{
"Letterink-NibData" = {
AngleInDegrees = "23.62938";
};
}),
(484,449,l,{
"Letterink-NibData" = {
AngleInDegrees = "180";
};
}),
(484,275,l,{
"Letterink-NibData" = {
AngleInDegrees = "270";
};
}),
(554,296,l,{
"Letterink-NibData" = {
AngleInDegrees = "270";
};
}),
(366,296,l,{
"Letterink-NibData" = {
AngleInDegrees = "28.68615";
};
}),
(403,279,l,{
"Letterink-NibData" = {
AngleInDegrees = "28.68615";
};
})
);
}
);
width = 958;
},
{
anchors = (
{
name = bottom;
pos = (543,0);
},
{
name = top;
pos = (554,673);
}
);
associatedMasterId = m004;
layerId = "80EF8790-0869-49FF-90A7-EBAC34F5F575";
name = "11 Jan 22, 13:30";
shapes = (
{
closed = 1;
nodes = (
(142,-12,o),
(179,8,o),
(197,44,cs,{
"Letterink-NibData" = {
AngleInDegrees = 26.8249;
};
}),
(286,220,l,{
"Letterink-NibData" = {
AngleInDegrees = 90;
};
}),
(483,220,l,{
"Letterink-NibData" = {
AngleInDegrees = 180;
};
}),
(483,-1,l,{
"Letterink-NibData" = {
AngleInDegrees = 90;
};
}),
(920,-1,l),
(920,75,l,{
"Letterink-NibData" = {
AngleInDegrees = 270;
};
}),
(565,75,l),
(565,325,l,{
"Letterink-NibData" = {
AngleInDegrees = 90;
};
}),
(802,325,l),
(802,401,l,{
"Letterink-NibData" = {
AngleInDegrees = 270;
};
}),
(565,401,l),
(565,610,l,{
"Letterink-NibData" = {
AngleInDegrees = 90;
};
}),
(900,610,l),
(900,686,l,{
"Letterink-NibData" = {
AngleInDegrees = 270;
};
}),
(456,686,l,{
"Letterink-NibData" = {
AngleInDegrees = 208.5766;
};
}),
(133,93,ls,{
"Letterink-NibData" = {
AngleInDegrees = 209.0546;
};
}),
(123,75,o),
(114,67,o),
(99,67,cs,{
"Letterink-NibData" = {
AngleInDegrees = 270;
};
}),
(88,67,o),
(76,72,o),
(66,86,c,{
"Letterink-NibData" = {
AngleInDegrees = 220.6013;
};
}),
(18,30,l,{
"Letterink-NibData" = {
AngleInDegrees = 145.7843;
};
}),
(35,5,o),
(66,-12,o),
(107,-12,cs,{
"Letterink-NibData" = {
AngleInDegrees = 90;
};
})
);
},
{
closed = 1;
nodes = (
(462,537,l,{
"Letterink-NibData" = {
AngleInDegrees = 23.19859;
};
}),
(483,586,l,{
"Letterink-NibData" = {
AngleInDegrees = 180;
};
}),
(483,296,l,{
"Letterink-NibData" = {
AngleInDegrees = 270;
};
}),
(330,296,l,{
"Letterink-NibData" = {
AngleInDegrees = 28.71031;
};
})
);
}
);
width = 962;
}
);
metricLeft = A.swsh;
userData = {
position = 422;
width = 61;
};
},
{
glyphname = B;
kernLeft = E;
kernRight = B;
layers = (
{
anchors = (
{
name = bottom;
pos = (328,0);
},
{
name = center;
pos = (338,368);
},
{
name = top;
pos = (328,684);
}
);
hints = (
{
name = _corner.caps_left;
origin = (0,18);
type = Corner;
}
);
layerId = "0CAF3BED-C4AC-4024-B3E1-4C69D1EF7EC0";
shapes = (
{
closed = 1;
nodes = (
(498,-10,o),
(591,63,o),
(591,190,cs),
(591,264,o),
(560,318,o),
(510,348,cs,{
"Letterink-NibData" = {
AngleInDegrees = 300.96376;
};
}),
(486,362,o),
(459,370,o),
(449,370,c,{
"Letterink-NibData" = {
AngleInDegrees = 71.56505;
};
}),
(460,374,o),
(476,377,o),
(493,385,cs,{
"Letterink-NibData" = {
AngleInDegrees = 63.43495;
};
}),
(537,407,o),
(561,453,o),
(561,511,cs),
(561,617,o),
(481,684,o),
(353,684,cs,{
"Letterink-NibData" = {
AngleInDegrees = 270;
};
}),
(127,684,l,{
"Letterink-NibData" = {
AngleInDegrees = 180;
};
}),
(127,606,l,{
"Letterink-NibData" = {
AngleInDegrees = 90;
};
}),
(354,606,l,{
"Letterink-NibData" = {
AngleInDegrees = 93.91825;
};
}),
(437,601,o),
(479,568,o),
(479,508,cs,{
"Letterink-NibData" = {
AngleInDegrees = 180;
};
}),
(479,443,o),
(430,401,o),
(352,401,cs,{
"Letterink-NibData" = {
AngleInDegrees = 270;
};
}),
(167,401,l,{
"Letterink-NibData" = {
AngleInDegrees = 180;
};
}),
(167,325,l,{
"Letterink-NibData" = {
AngleInDegrees = 90;
};
}),
(359,324,ls,{
"Letterink-NibData" = {
AngleInDegrees = 90;
};
}),
(452,324,o),
(510,273,o),
(510,188,cs,{
"Letterink-NibData" = {
AngleInDegrees = 180;
};
}),
(510,102,o),
(451,66,o),
(326,64,cs,{
"Letterink-NibData" = {
AngleInDegrees = 270;
};
}),
(290,63,o),
(247,65,o),
(209,71,c),
(209,642,l,{
"Letterink-NibData" = {
AngleInDegrees = 270;
};
}),
(127,642,l,{
"Letterink-NibData" = {
AngleInDegrees = 180;
};
}),
(127,2,l,{
"Letterink-NibData" = {
AngleInDegrees = 96.54629;
};
}),
(188,-5,ls,{
"Letterink-NibData" = {
AngleInDegrees = 96.70984;
};
}),
(209,-7,o),
(275,-10,o),
(313,-10,cs,{
"Letterink-NibData" = {
AngleInDegrees = 90;
};
})
);
}
);
width = 637;
},
{
anchors = (
{
name = bottom;
pos = (312,-2);
},
{
name = center;
pos = (329,367);
},
{
name = top;
pos = (312,684);
}
);
hints = (
{
name = _corner.caps_left;
origin = (0,18);
type = Corner;
}
);
layerId = "49C16FD3-6177-408B-A733-AEB3898BB77C";
shapes = (
{
closed = 1;
nodes = (
(461,-9,o),
(569,43,o),
(569,181,cs),
(569,254,o),
(532,315,o),
(462,349,cs,{
"Letterink-NibData" = {
AngleInDegrees = 305.53768;
};
}),
(451,354,o),
(427,361,o),
(399,366,c,{
"Letterink-NibData" = {
AngleInDegrees = 75.67728;
};
}),
(429,373,o),
(448,375,o),
(477,398,cs,{
"Letterink-NibData" = {
AngleInDegrees = 53.1301;
};
}),
(507,422,o),
(536,453,o),
(536,515,cs),
(536,633,o),
(443,684,o),
(339,684,cs,{
"Letterink-NibData" = {
AngleInDegrees = 270;
};
}),
(123,684,l,{
"Letterink-NibData" = {
AngleInDegrees = 180;
};
}),
(123,648,l,{
"Letterink-NibData" = {
AngleInDegrees = 90;
};
}),
(355,648,l,{
"Letterink-NibData" = {
AngleInDegrees = 93.81407;
};
}),
(446,641,o),
(497,598,o),
(497,519,cs,{
"Letterink-NibData" = {
AngleInDegrees = 180;
};
}),
(497,425,o),
(425,382,o),
(338,382,cs,{
"Letterink-NibData" = {
AngleInDegrees = 270;
};
}),
(152,382,l,{
"Letterink-NibData" = {
AngleInDegrees = 180;
};
}),
(152,347,l,{
"Letterink-NibData" = {
AngleInDegrees = 90;
};
}),
(345,347,ls,{
"Letterink-NibData" = {
AngleInDegrees = 90;
};
}),
(465,347,o),
(531,271,o),
(531,181,cs,{
"Letterink-NibData" = {
AngleInDegrees = 180;
};
}),
(531,78,o),
(447,26,o),
(331,26,cs,{
"Letterink-NibData" = {
AngleInDegrees = 270;
};
}),
(323,26,o),
(213,26,o),
(164,32,c),
(164,654,l,{
"Letterink-NibData" = {
AngleInDegrees = 270;
};
}),
(123,654,l,{
"Letterink-NibData" = {
AngleInDegrees = 90;
};
}),
(124,3,l,{
"Letterink-NibData" = {
AngleInDegrees = 98.65254;
};
}),
(169,-4,ls,{
"Letterink-NibData" = {
AngleInDegrees = 99.21103;
};
}),
(208,-10,o),
(330,-9,o),
(321,-9,cs,{
"Letterink-NibData" = {
AngleInDegrees = 90;
};
})
);
}
);
width = 625;
},
{
anchors = (
{
name = bottom;
pos = (379,-2);
},
{
name = center;
pos = (379,356);
},
{
name = top;
pos = (374,684);
}
);
hints = (
{
name = _corner.caps_left;
origin = (0,18);
type = Corner;
}
);
layerId = m004;
shapes = (
{
closed = 1;
nodes = (
(582,19,o),
(647,93,o),
(647,195,cs),
(647,254,o),
(614,313,o),
(569,339,cs),
(539,356,o),
(523,361,o),
(495,365,c,{
"Letterink-NibData" = {
AngleInDegrees = "77.90524000000001";
};
}),
(527,369,o),
(543,377,o),
(562,391,cs,{
"Letterink-NibData" = {
AngleInDegrees = "63.90458";
};
}),
(610,426,o),
(625,471,o),
(625,520,cs),
(625,617,o),
(541,686,o),
(408,686,cs,{
"Letterink-NibData" = {
AngleInDegrees = "270";
};
}),
(154,686,l,{
"Letterink-NibData" = {
AngleInDegrees = "180";
};
}),
(154,535,l),
(408,536,ls,{
"Letterink-NibData" = {
AngleInDegrees = "90";
};
}),
(443,536,o),
(464,513,o),
(464,485,cs,{
"Letterink-NibData" = {
AngleInDegrees = "180";
};
}),
(464,451,o),
(441,424,o),
(414,424,cs,{
"Letterink-NibData" = {
AngleInDegrees = "269.3338";
};
}),
(289,424,l,{
"Letterink-NibData" = {
AngleInDegrees = "180.77422";
};
}),
(289,289,l,{
"Letterink-NibData" = {
AngleInDegrees = "90";
};
}),
(405,289,ls,{
"Letterink-NibData" = {
AngleInDegrees = "90";
};
}),
(453,289,o),
(492,258,o),
(492,211,cs,{
"Letterink-NibData" = {
AngleInDegrees = "180";
};
}),
(492,158,o),
(455,132,o),
(381,132,cs,{
"Letterink-NibData" = {
AngleInDegrees = "270";
};
}),
(358,132,o),
(344,133,o),
(319,137,c),
(319,551,l,{
"Letterink-NibData" = {
AngleInDegrees = "90";
};
}),
(154,552,l),
(154,6,l,{
"Letterink-NibData" = {
AngleInDegrees = "96.44159999999999";
};
}),
(206,-2,ls,{
"Letterink-NibData" = {
AngleInDegrees = "96.65443";
};
}),
(299,-16,o),
(408,-17,o),
(474,-3,cs,{
"Letterink-NibData" = {
AngleInDegrees = "90";
};
})
);
}
);
width = 677;
}
);
metricLeft = E;
unicode = 66;
userData = {
position = 514;
width = 59;
};
},
{
glyphname = B.ss01;
kernLeft = L;
kernRight = B;
layers = (
{
anchors = (
{
name = bottom;
pos = (289,0);
},
{
name = center;
pos = (299,370);
},
{
name = top;
pos = (289,684);
}
);
layerId = "0CAF3BED-C4AC-4024-B3E1-4C69D1EF7EC0";
shapes = (
{
closed = 1;
nodes = (
(459,-10,o),
(552,63,o),
(552,190,cs),
(552,264,o),
(521,318,o),
(471,348,cs,{
"Letterink-NibData" = {
AngleInDegrees = 300.96376;
};
}),
(444,364,o),
(412,368,o),
(400,370,c,{
"Letterink-NibData" = {
AngleInDegrees = 71.56505;
};
}),
(414,372,o),
(434,375,o),
(454,385,cs,{
"Letterink-NibData" = {
AngleInDegrees = 63.43495;
};
}),
(498,407,o),
(522,453,o),
(522,511,cs),
(522,617,o),
(442,684,o),
(314,684,cs,{
"Letterink-NibData" = {
AngleInDegrees = 270;
};
}),
(88,684,l,{
"Letterink-NibData" = {
AngleInDegrees = 180;
};
}),
(88,606,l,{
"Letterink-NibData" = {
AngleInDegrees = 90;
};
}),
(315,606,l,{
"Letterink-NibData" = {
AngleInDegrees = 93.91825;
};
}),
(398,601,o),
(440,568,o),
(440,508,cs,{
"Letterink-NibData" = {
AngleInDegrees = 180;
};
}),
(440,443,o),
(391,401,o),
(313,401,cs,{
"Letterink-NibData" = {
AngleInDegrees = 270;
};
}),
(128,401,l,{
"Letterink-NibData" = {
AngleInDegrees = 180;
};
}),
(128,325,l,{
"Letterink-NibData" = {
AngleInDegrees = 90;
};
}),
(320,324,ls,{
"Letterink-NibData" = {
AngleInDegrees = 90;
};
}),
(413,324,o),
(471,273,o),
(471,188,cs,{
"Letterink-NibData" = {
AngleInDegrees = 180;
};
}),
(471,102,o),
(412,66,o),
(287,64,cs,{
"Letterink-NibData" = {
AngleInDegrees = 270;
};
}),
(251,63,o),
(208,65,o),
(170,71,c),
(170,642,l,{
"Letterink-NibData" = {
AngleInDegrees = 270;
};
}),
(88,642,l,{
"Letterink-NibData" = {
AngleInDegrees = 180;
};
}),
(88,2,l,{
"Letterink-NibData" = {
AngleInDegrees = 96.54629;
};
}),
(149,-5,ls,{
"Letterink-NibData" = {
AngleInDegrees = 96.70984;
};
}),
(170,-7,o),
(236,-10,o),
(274,-10,cs,{
"Letterink-NibData" = {
AngleInDegrees = 90;
};
})
);
}
);
width = 584;
},
{
anchors = (
{
name = bottom;
pos = (283,0);
},
{
name = center;
pos = (277,363);
},
{
name = top;
pos = (283,684);
}
);
layerId = "49C16FD3-6177-408B-A733-AEB3898BB77C";
shapes = (
{
closed = 1;
nodes = (
(452,-9,o),
(540,58,o),
(540,177,cs),
(540,256,o),
(501,317,o),
(443,346,cs,{
"Letterink-NibData" = {
AngleInDegrees = 305.53768;
};
}),
(421,356,o),
(395,361,o),
(370,365,c,{
"Letterink-NibData" = {
AngleInDegrees = 75.67728;
};
}),
(398,369,o),
(427,380,o),
(456,403,cs,{
"Letterink-NibData" = {
AngleInDegrees = 53.1301;
};
}),
(490,430,o),
(507,467,o),
(507,516,cs),
(507,619,o),
(431,684,o),
(310,684,cs,{
"Letterink-NibData" = {
AngleInDegrees = 270;
};
}),
(94,684,l,{
"Letterink-NibData" = {
AngleInDegrees = 180;
};
}),
(94,648,l,{
"Letterink-NibData" = {
AngleInDegrees = 90;
};
}),
(326,648,l,{
"Letterink-NibData" = {
AngleInDegrees = 93.81407;
};
}),
(419,641,o),
(468,596,o),
(468,520,cs,{
"Letterink-NibData" = {
AngleInDegrees = 180;
};
}),
(468,435,o),
(407,382,o),
(309,382,cs,{
"Letterink-NibData" = {
AngleInDegrees = 270;
};
}),
(127,382,l,{
"Letterink-NibData" = {
AngleInDegrees = 180;
};
}),
(127,347,l,{
"Letterink-NibData" = {
AngleInDegrees = 90;
};
}),
(316,347,ls,{
"Letterink-NibData" = {
AngleInDegrees = 90;
};
}),
(426,347,o),
(502,276,o),
(502,179,cs,{
"Letterink-NibData" = {
AngleInDegrees = 180;
};
}),
(502,63,o),
(426,26,o),
(273,26,cs,{
"Letterink-NibData" = {
AngleInDegrees = 270;
};
}),
(238,26,o),
(161,29,o),
(135,32,c),
(135,654,l,{
"Letterink-NibData" = {
AngleInDegrees = 270;
};
}),
(94,654,l,{
"Letterink-NibData" = {
AngleInDegrees = 90;
};
}),
(95,3,l,{
"Letterink-NibData" = {
AngleInDegrees = 98.65254;
};
}),
(140,-4,ls,{
"Letterink-NibData" = {
AngleInDegrees = 99.21103;
};
}),
(179,-10,o),
(301,-9,o),
(317,-9,cs,{
"Letterink-NibData" = {
AngleInDegrees = 90;
};
})
);
}
);
width = 583;
},
{
anchors = (
{
name = bottom;
pos = (298,0);
},
{
name = center;
pos = (298,356);
},
{
name = top;
pos = (298,684);
}
);
layerId = m004;
shapes = (
{
closed = 1;
nodes = (
(501,19,o),
(566,93,o),
(566,195,cs),
(566,254,o),
(533,313,o),
(488,339,cs),
(458,356,o),
(442,361,o),
(414,365,c,{
"Letterink-NibData" = {
AngleInDegrees = "77.90524000000001";
};
}),
(446,369,o),
(462,377,o),
(481,391,cs,{
"Letterink-NibData" = {
AngleInDegrees = "63.90458";
};
}),
(529,426,o),
(544,471,o),
(544,520,cs),
(544,617,o),
(460,686,o),
(327,686,cs,{
"Letterink-NibData" = {
AngleInDegrees = "270";
};
}),
(73,686,l,{
"Letterink-NibData" = {
AngleInDegrees = "180";
};
}),
(73,535,l),
(327,536,ls,{
"Letterink-NibData" = {
AngleInDegrees = "90";
};
}),
(362,536,o),
(383,513,o),
(383,485,cs,{
"Letterink-NibData" = {
AngleInDegrees = "180";
};
}),
(383,451,o),
(360,424,o),
(333,424,cs,{
"Letterink-NibData" = {
AngleInDegrees = "269.3338";
};
}),
(208,424,l,{
"Letterink-NibData" = {
AngleInDegrees = "180.77422";
};
}),
(208,289,l,{
"Letterink-NibData" = {
AngleInDegrees = "90";
};
}),
(324,289,ls,{
"Letterink-NibData" = {
AngleInDegrees = "90";
};
}),
(372,289,o),
(411,258,o),
(411,211,cs,{
"Letterink-NibData" = {
AngleInDegrees = "180";
};
}),
(411,158,o),
(374,132,o),
(300,132,cs,{
"Letterink-NibData" = {
AngleInDegrees = "270";
};
}),
(277,132,o),
(263,133,o),
(238,137,c),
(238,551,l,{
"Letterink-NibData" = {
AngleInDegrees = "90";
};
}),
(73,552,l),
(73,6,l,{
"Letterink-NibData" = {
AngleInDegrees = "96.44159999999999";
};
}),
(125,-2,ls,{
"Letterink-NibData" = {
AngleInDegrees = "96.65443";
};
}),
(218,-16,o),
(327,-17,o),
(393,-3,cs,{
"Letterink-NibData" = {
AngleInDegrees = "90";
};
})
);
}
);
width = 595;
}
);
metricLeft = N.ss01;
userData = {
position = 494;
width = 59;
};
},
{
glyphname = B.swsh;
kernLeft = E.swsh;
kernRight = B;
layers = (
{
anchors = (
{
name = bottom;
pos = (325,0);
},
{
name = center;
pos = (335,369);
},
{
name = top;
pos = (325,684);
}
);
background = {
hints = (
{
name = _corner.caps_swash;
origin = (0,18);
type = Corner;
}
);
shapes = (
{
closed = 1;
nodes = (
(499,-10,o),
(578,76,o),
(578,187,cs),
(578,254,o),
(550,306,o),
(511,335,cs,{
"Letterink-NibData" = {
AngleInDegrees = 306.46923;
};
}),
(488,352,o),
(449,363,o),
(426,363,c,{
"Letterink-NibData" = {
AngleInDegrees = 78.69007;
};
}),
(446,367,o),
(472,368,o),
(499,393,cs,{
"Letterink-NibData" = {
AngleInDegrees = 47.91084;
};
}),
(530,421,o),
(547,458,o),
(547,506,cs),
(547,621,o),
(458,685,o),
(339,685,cs,{
"Letterink-NibData" = {
AngleInDegrees = 270;
};
}),
(103,685,l,{
"Letterink-NibData" = {
AngleInDegrees = 180;
};
}),
(103,609,l,{
"Letterink-NibData" = {
AngleInDegrees = 90;
};
}),
(352,609,ls,{
"Letterink-NibData" = {
AngleInDegrees = 90;
};
}),
(422,609,o),
(465,571,o),
(465,509,cs,{
"Letterink-NibData" = {
AngleInDegrees = 180;
};
}),
(465,434,o),
(412,401,o),
(338,401,cs,{
"Letterink-NibData" = {
AngleInDegrees = 270;
};
}),
(251,401,l,{
"Letterink-NibData" = {
AngleInDegrees = 180;
};
}),
(251,324,l,{
"Letterink-NibData" = {
AngleInDegrees = 90;
};
}),
(345,324,ls,{
"Letterink-NibData" = {
AngleInDegrees = 90;
};
}),
(426,324,o),
(496,278,o),
(496,191,cs,{
"Letterink-NibData" = {
AngleInDegrees = 180;
};
}),
(496,97,o),
(432,66,o),
(316,66,cs,{
"Letterink-NibData" = {
AngleInDegrees = 270;
};
}),
(297,66,o),
(286,67,o),
(204,71,c),
(204,561,l,{
"Letterink-NibData" = {
AngleInDegrees = 270;
};
}),
(122,561,l,{
"Letterink-NibData" = {
AngleInDegrees = 180;
};
}),
(122,2,l,{
"Letterink-NibData" = {
AngleInDegrees = 96.34019;
};
}),
(185,-5,ls,{
"Letterink-NibData" = {
AngleInDegrees = 97.12502;
};
}),
(209,-8,o),
(263,-10,o),
(310,-10,cs,{
"Letterink-NibData" = {
AngleInDegrees = 90;
};
})
);
}
);
};
hints = (
{
name = _corner.caps_swash;
options = 2;
origin = (0,18);
type = Corner;
}
);
layerId = "0CAF3BED-C4AC-4024-B3E1-4C69D1EF7EC0";
shapes = (
{
closed = 1;
nodes = (
(495,-10,o),
(588,63,o),
(588,190,cs),
(588,264,o),
(557,318,o),
(511,345,cs,{
"Letterink-NibData" = {
AngleInDegrees = "300.96376";
};
}),
(482,363,o),
(448,369,o),
(436,370,c,{
"Letterink-NibData" = {
AngleInDegrees = "71.56505";
};
}),
(449,373,o),
(470,375,o),
(491,386,cs,{
"Letterink-NibData" = {
AngleInDegrees = "63.43495";
};
}),
(534,407,o),
(558,453,o),
(558,511,cs),
(558,617,o),
(478,684,o),
(350,684,cs,{
"Letterink-NibData" = {
AngleInDegrees = "270";
};
}),
(124,684,l,{
"Letterink-NibData" = {
AngleInDegrees = "180";
};
}),
(124,607,l,{
"Letterink-NibData" = {
AngleInDegrees = "90";
};
}),
(351,607,l,{
"Letterink-NibData" = {
AngleInDegrees = "93.91825";
};
}),
(434,602,o),
(476,568,o),
(476,508,cs,{
"Letterink-NibData" = {
AngleInDegrees = "180";
};
}),
(476,443,o),
(427,401,o),
(349,401,cs,{
"Letterink-NibData" = {
AngleInDegrees = "270";
};
}),
(254,401,l,{
"Letterink-NibData" = {
AngleInDegrees = "180";
};
}),
(254,325,l,{
"Letterink-NibData" = {
AngleInDegrees = "90";
};
}),
(356,324,ls,{
"Letterink-NibData" = {
AngleInDegrees = "90";
};
}),
(449,323,o),
(507,273,o),
(507,193,cs,{
"Letterink-NibData" = {
AngleInDegrees = "180";
};
}),
(507,112,o),
(448,66,o),
(319,64,cs,{
"Letterink-NibData" = {
AngleInDegrees = "270";
};
}),
(287,63,o),
(244,65,o),
(206,71,c),
(206,560,l,{
"Letterink-NibData" = {
AngleInDegrees = "270";
};
}),
(124,560,l,{
"Letterink-NibData" = {
AngleInDegrees = "180";
};
}),
(124,2,l,{
"Letterink-NibData" = {
AngleInDegrees = "96.54629";
};
}),
(185,-5,ls,{
"Letterink-NibData" = {
AngleInDegrees = "96.70984";
};
}),
(206,-7,o),
(272,-10,o),
(310,-10,cs,{
"Letterink-NibData" = {
AngleInDegrees = "90";
};
})
);
}
);
width = 621;
},
{
anchors = (
{
name = bottom;
pos = (265,0);
},
{
name = center;
pos = (283,367);
},
{
name = top;
pos = (265,684);
}
);
background = {
hints = (
{
name = _corner.caps_swash;
origin = (0,18);
type = Corner;
}
);
shapes = (
{
closed = 1;
nodes = (
(459,-9,o),
(553,47,o),
(553,178,cs),
(553,266,o),
(511,319,o),
(447,351,cs,{
"Letterink-NibData" = {
AngleInDegrees = 296.56505;
};
}),
(439,355,o),
(408,362,o),
(393,365,c,{
"Letterink-NibData" = {
AngleInDegrees = 80.83765;
};
}),
(424,370,o),
(442,380,o),
(444,381,cs,{
"Letterink-NibData" = {
AngleInDegrees = 63.43495;
};
}),
(494,406,o),
(522,452,o),
(522,514,cs),
(522,620,o),
(431,685,o),
(324,685,cs,{
"Letterink-NibData" = {
AngleInDegrees = 270;
};
}),
(86,685,l,{
"Letterink-NibData" = {
AngleInDegrees = 180;
};
}),
(86,645,l,{
"Letterink-NibData" = {
AngleInDegrees = 90;
};
}),
(338,645,l,{
"Letterink-NibData" = {
AngleInDegrees = 93.40644;
};
}),
(422,640,o),
(479,593,o),
(479,517,cs,{
"Letterink-NibData" = {
AngleInDegrees = 180;
};
}),
(479,425,o),
(409,383,o),
(323,383,cs,{
"Letterink-NibData" = {
AngleInDegrees = 270;
};
}),
(241,383,l,{
"Letterink-NibData" = {
AngleInDegrees = 180;
};
}),
(241,345,l,{
"Letterink-NibData" = {
AngleInDegrees = 90;
};
}),
(330,345,ls,{
"Letterink-NibData" = {
AngleInDegrees = 90;
};
}),
(425,345,o),
(511,289,o),
(511,182,cs,{
"Letterink-NibData" = {
AngleInDegrees = 180;
};
}),
(511,78,o),
(431,29,o),
(298,29,cs,{
"Letterink-NibData" = {
AngleInDegrees = 270;
};
}),
(280,29,o),
(235,31,o),
(159,34,c),
(159,591,l,{
"Letterink-NibData" = {
AngleInDegrees = 270;
};
}),
(117,591,l,{
"Letterink-NibData" = {
AngleInDegrees = 180;
};
}),
(117,1,l,{
"Letterink-NibData" = {
AngleInDegrees = 94.96974;
};
}),
(163,-3,ls,{
"Letterink-NibData" = {
AngleInDegrees = 94.92711;
};
}),
(221,-8,o),
(248,-9,o),
(278,-9,cs,{
"Letterink-NibData" = {
AngleInDegrees = 90;
};
})
);
}
);
};
hints = (
{
name = _corner.caps_swash;
origin = (0,18);
type = Corner;
}
);
layerId = "49C16FD3-6177-408B-A733-AEB3898BB77C";
shapes = (
{
closed = 1;
nodes = (
(472,-9,o),
(560,58,o),
(560,177,cs),
(560,256,o),
(521,319,o),
(462,348,cs,{
"Letterink-NibData" = {
AngleInDegrees = "305.53768";
};
}),
(441,358,o),
(415,365,o),
(390,369,c,{
"Letterink-NibData" = {
AngleInDegrees = "75.67728";
};
}),
(418,376,o),
(447,384,o),
(477,408,cs,{
"Letterink-NibData" = {
AngleInDegrees = "53.1301";
};
}),
(510,435,o),
(527,467,o),
(527,516,cs),
(527,619,o),
(451,684,o),
(330,684,cs,{
"Letterink-NibData" = {
AngleInDegrees = "270";
};
}),
(114,684,l,{
"Letterink-NibData" = {
AngleInDegrees = "180";
};
}),
(114,648,l,{
"Letterink-NibData" = {
AngleInDegrees = "90";
};
}),
(346,648,l,{
"Letterink-NibData" = {
AngleInDegrees = "93.81407";
};
}),
(439,641,o),
(488,596,o),
(488,520,cs,{
"Letterink-NibData" = {
AngleInDegrees = "180";
};
}),
(488,435,o),
(427,382,o),
(329,382,cs,{
"Letterink-NibData" = {
AngleInDegrees = "270";
};
}),
(240,382,l,{
"Letterink-NibData" = {
AngleInDegrees = "180";
};
}),
(240,347,l,{
"Letterink-NibData" = {
AngleInDegrees = "90";
};
}),
(336,347,ls,{
"Letterink-NibData" = {
AngleInDegrees = "90";
};
}),
(438,347,o),
(522,280,o),
(522,183,cs,{
"Letterink-NibData" = {
AngleInDegrees = "180";
};
}),
(522,76,o),
(446,26,o),
(311,26,cs,{
"Letterink-NibData" = {
AngleInDegrees = "270";
};
}),
(259,26,o),
(181,29,o),
(155,32,c),
(155,597,l,{
"Letterink-NibData" = {
AngleInDegrees = "270";
};
}),
(114,597,l,{
"Letterink-NibData" = {
AngleInDegrees = "179.91332";
};
}),
(115,3,l,{
"Letterink-NibData" = {
AngleInDegrees = "98.65254";
};
}),
(160,-4,ls,{
"Letterink-NibData" = {
AngleInDegrees = "99.21102999999999";
};
}),
(199,-10,o),
(321,-9,o),
(337,-9,cs,{
"Letterink-NibData" = {
AngleInDegrees = "90";
};
})
);
}
);
width = 596;
},
{
anchors = (
{
name = bottom;
pos = (354,0);
},
{
name = center;
pos = (354,355);
},
{
name = top;
pos = (354,684);
}
);
hints = (
{
name = _corner.caps_swash;
options = 2;
origin = (0,18);
type = Corner;
}
);
layerId = m004;
shapes = (
{
closed = 1;
nodes = (
(581,19,o),
(646,93,o),
(646,195,cs),
(646,254,o),
(613,313,o),
(568,339,cs),
(538,356,o),
(522,361,o),
(494,365,c,{
"Letterink-NibData" = {
AngleInDegrees = "77.90524000000001";
};
}),
(526,369,o),
(542,377,o),
(561,391,cs,{
"Letterink-NibData" = {
AngleInDegrees = "63.90458";
};
}),
(609,426,o),
(624,471,o),
(624,520,cs),
(624,617,o),
(540,686,o),
(407,686,cs,{
"Letterink-NibData" = {
AngleInDegrees = "270";
};
}),
(153,686,l,{
"Letterink-NibData" = {
AngleInDegrees = "180";
};
}),
(153,538,l),
(407,539,ls,{
"Letterink-NibData" = {
AngleInDegrees = "90";
};
}),
(442,539,o),
(463,513,o),
(463,485,cs,{
"Letterink-NibData" = {
AngleInDegrees = "180";
};
}),
(463,451,o),
(440,424,o),
(413,424,cs,{
"Letterink-NibData" = {
AngleInDegrees = "269.3338";
};
}),
(358,424,l,{
"Letterink-NibData" = {
AngleInDegrees = "180.77422";
};
}),
(358,289,l,{
"Letterink-NibData" = {
AngleInDegrees = "90";
};
}),
(404,289,ls,{
"Letterink-NibData" = {
AngleInDegrees = "90";
};
}),
(452,289,o),
(491,258,o),
(491,211,cs,{
"Letterink-NibData" = {
AngleInDegrees = "180";
};
}),
(491,158,o),
(454,132,o),
(380,132,cs,{
"Letterink-NibData" = {
AngleInDegrees = "270";
};
}),
(357,132,o),
(343,133,o),
(318,137,c),
(318,498,l,{
"Letterink-NibData" = {
AngleInDegrees = "90";
};
}),
(153,499,l),
(153,6,l,{
"Letterink-NibData" = {
AngleInDegrees = "96.44159999999999";
};
}),
(205,-2,ls,{
"Letterink-NibData" = {
AngleInDegrees = "96.65443";
};
}),
(298,-16,o),
(407,-17,o),
(473,-3,cs,{
"Letterink-NibData" = {
AngleInDegrees = "90";
};
})
);
}
);
width = 674;
}
);
metricLeft = E.swsh;
userData = {
position = 514;
width = 59;
};
},
{
glyphname = C;
kernLeft = O;
kernRight = C;
layers = (
{
anchors = (
{
name = bottom;
pos = (386,-5);
},
{
name = top;
pos = (385,689);
}
);
background = {
shapes = (
{
closed = 1;
nodes = (
(577,-25,o),
(723,126,o),
(723,326,cs),
(723,355,ls),
(723,548,o),
(571,702,o),
(381,702,cs,{
"Letterink-NibData" = {
AngleInDegrees = "270";
};
}),
(191,702,o),
(40,548,o),
(40,355,cs,{
"Letterink-NibData" = {
AngleInDegrees = "180";
};
}),
(40,326,ls,{
"Letterink-NibData" = {
AngleInDegrees = "180";
};
}),
(40,126,o),
(184,-19,o),
(385,-22,cs,{
"Letterink-NibData" = {
AngleInDegrees = "90.89517371732774";
};
})
);
},
{
closed = 1;
nodes = (
(234,54,o),
(122,170,o),
(122,326,cs),
(122,355,ls),
(122,504,o),
(236,626,o),
(380,626,cs,{
"Letterink-NibData" = {
AngleInDegrees = "90";
};
}),
(526,626,o),
(641,504,o),
(641,355,cs,{
"Letterink-NibData" = {
AngleInDegrees = "180";
};
}),
(641,326,ls,{
"Letterink-NibData" = {
AngleInDegrees = "180";
};
}),
(641,170,o),
(529,54,o),
(382,54,cs,{
"Letterink-NibData" = {
AngleInDegrees = "270";
};
})
);
}
);
};
layerId = "0CAF3BED-C4AC-4024-B3E1-4C69D1EF7EC0";
shapes = (
{
closed = 1;
nodes = (
(469,443,l),
(488,429,o),
(509,422,o),
(530,422,cs),
(586,422,o),
(630,472,o),
(630,536,cs),
(630,633,o),
(530,703,o),
(391,703,cs),
(185,703,o),
(40,553,o),
(40,342,cs),
(40,132,o),
(183,-19,o),
(383,-19,cs),
(500,-19,o),
(602,33,o),
(656,121,c),
(593,159,l),
(552,95,o),
(474,55,o),
(381,55,cs),
(229,55,o),
(120,173,o),
(120,338,cs),
(120,511,o),
(228,627,o),
(389,627,cs),
(486,627,o),
(556,588,o),
(556,534,cs),
(556,511,o),
(546,496,o),
(530,496,cs),
(523,496,o),
(515,498,o),
(511,501,c)
);
}
);
width = 692;
},
{
anchors = (
{
name = bottom;
pos = (398,-4);
},
{
name = top;
pos = (400,688);
}
);
background = {
shapes = (
{
closed = 1;
nodes = (
(594,-14,o),
(736,131,o),
(736,331,cs),
(736,350,ls),
(736,550,o),
(588,702,o),
(394,702,cs,{
"Letterink-NibData" = {
AngleInDegrees = "270";
};
}),
(200,702,o),
(54,551,o),
(54,350,cs,{
"Letterink-NibData" = {
AngleInDegrees = "180";
};
}),
(54,331,ls,{
"Letterink-NibData" = {
AngleInDegrees = "180";
};
}),
(54,133,o),
(201,-14,o),
(398,-14,cs,{
"Letterink-NibData" = {
AngleInDegrees = "90";
};
})
);
},
{
closed = 1;
nodes = (
(224,24,o),
(96,156,o),
(96,331,cs),
(96,350,ls),
(96,526,o),
(225,662,o),
(393,662,cs,{
"Letterink-NibData" = {
AngleInDegrees = "90";
};
}),
(562,662,o),
(694,526,o),
(694,350,cs,{
"Letterink-NibData" = {
AngleInDegrees = "180";
};
}),
(694,331,ls,{
"Letterink-NibData" = {
AngleInDegrees = "180";
};
}),
(694,156,o),
(565,24,o),
(395,24,cs,{
"Letterink-NibData" = {
AngleInDegrees = "270";
};
})
);
}
);
};
layerId = "49C16FD3-6177-408B-A733-AEB3898BB77C";
shapes = (
{
closed = 1;
nodes = (
(503,464,l),
(520,452,o),
(539,447,o),
(556,447,cs),
(594,447,o),
(636,485,o),
(636,542,cs),
(636,614,o),
(557,699,o),
(400,699,cs),
(205,699,o),
(52,555,o),
(52,327,cs),
(52,127,o),
(201,-17,o),
(409,-17,cs),
(519,-17,o),
(621,36,o),
(669,119,c),
(641,137,l),
(598,64,o),
(506,16,o),
(409,16,cs),
(223,16,o),
(90,142,o),
(90,327,cs),
(90,533,o),
(224,665,o),
(400,665,cs),
(494,665,o),
(603,624,o),
(603,542,cs),
(603,517,o),
(590,480,o),
(557,480,cs),
(548,480,o),
(532,484,o),
(523,491,c)
);
}
);
width = 716;
},
{
anchors = (
{
name = bottom;
pos = (384,-29);
},
{
name = top;
pos = (384,723);
}
);
associatedMasterId = "49C16FD3-6177-408B-A733-AEB3898BB77C";
layerId = "9A6A7639-79A9-4EC5-AE88-1E69E535A513";
name = "3 Jan 22, 15:02";
shapes = (
{
closed = 1;
nodes = (
(504,-22,o),
(607,20,o),
(676,118,c,{
"Letterink-NibData" = {
AngleInDegrees = 307.18471;
};
}),
(647,140,l,{
"Letterink-NibData" = {
AngleInDegrees = 215.75389;
};
}),
(593,65,o),
(500,18,o),
(401,18,cs,{
"Letterink-NibData" = {
AngleInDegrees = 270;
};
}),
(226,18,o),
(102,167,o),
(102,335,cs),
(102,508,o),
(235,665,o),
(405,665,cs,{
"Letterink-NibData" = {
AngleInDegrees = 90;
};
}),
(488,665,o),
(595,637,o),
(595,558,cs,{
"Letterink-NibData" = {
AngleInDegrees = 180;
};
}),
(595,531,o),
(582,510,o),
(559,510,cs,{
"Letterink-NibData" = {
AngleInDegrees = 270;
};
}),
(551,510,o),
(536,515,o),
(529,522,c,{
"Letterink-NibData" = {
AngleInDegrees = 217.99873;
};
}),
(504,490,l,{
"Letterink-NibData" = {
AngleInDegrees = 132.27369;
};
}),
(515,480,o),
(540,472,o),
(556,472,cs,{
"Letterink-NibData" = {
AngleInDegrees = 90;
};
}),
(603,472,o),
(635,510,o),
(635,562,cs),
(635,661,o),
(517,706,o),
(413,706,cs,{
"Letterink-NibData" = {
AngleInDegrees = 270;
};
}),
(211,706,o),
(60,535,o),
(60,335,cs,{
"Letterink-NibData" = {
AngleInDegrees = 180;
};
}),
(60,140,o),
(204,-22,o),
(402,-22,cs,{
"Letterink-NibData" = {
AngleInDegrees = 90;
};
})
);
}
);
width = 720;
},
{
anchors = (
{
name = bottom;
pos = (387,-9);
},
{
name = top;
pos = (387,703);
}
);
associatedMasterId = "0CAF3BED-C4AC-4024-B3E1-4C69D1EF7EC0";
layerId = "354B442F-650F-4F84-82F8-D7A6B1A052DE";
name = "3 Jan 22, 15:22";
shapes = (
{
closed = 1;
nodes = (
(533,-19,o),
(637,45,o),
(684,146,c,{
"Letterink-NibData" = {
AngleInDegrees = 296.92768;
};
}),
(621,178,l,{
"Letterink-NibData" = {
AngleInDegrees = 204.38637;
};
}),
(587,103,o),
(498,52,o),
(401,52,cs,{
"Letterink-NibData" = {
AngleInDegrees = 270;
};
}),
(250,52,o),
(135,178,o),
(135,340,cs),
(135,509,o),
(259,632,o),
(399,632,cs,{
"Letterink-NibData" = {
AngleInDegrees = 90;
};
}),
(458,632,o),
(562,610,o),
(562,547,cs,{
"Letterink-NibData" = {
AngleInDegrees = 180;
};
}),
(562,530,o),
(554,517,o),
(538,517,cs,{
"Letterink-NibData" = {
AngleInDegrees = 270;
};
}),
(526,517,o),
(513,525,o),
(506,534,c,{
"Letterink-NibData" = {
AngleInDegrees = 218.25442;
};
}),
(465,482,l,{
"Letterink-NibData" = {
AngleInDegrees = 143.53076;
};
}),
(482,459,o),
(508,445,o),
(538,445,cs,{
"Letterink-NibData" = {
AngleInDegrees = 90;
};
}),
(591,445,o),
(637,490,o),
(637,551,cs),
(637,642,o),
(532,706,o),
(404,706,cs,{
"Letterink-NibData" = {
AngleInDegrees = 270;
};
}),
(197,706,o),
(53,539,o),
(53,341,cs,{
"Letterink-NibData" = {
AngleInDegrees = 180;
};
}),
(53,147,o),
(190,-26,o),
(404,-22,cs,{
"Letterink-NibData" = {
AngleInDegrees = 88.66778;
};
})
);
}
);
width = 720;
},
{
anchors = (
{
name = bottom;
pos = (390,-29);
},
{
name = top;
pos = (390,723);
}
);
associatedMasterId = "49C16FD3-6177-408B-A733-AEB3898BB77C";
background = {
shapes = (
{
closed = 1;
nodes = (
(510,-22,o),
(613,20,o),
(682,118,c),
(653,140,l),
(599,65,o),
(506,18,o),
(407,18,cs),
(232,18,o),
(108,167,o),
(108,335,cs),
(108,508,o),
(241,665,o),
(411,665,cs),
(494,665,o),
(601,637,o),
(601,558,cs),
(601,531,o),
(588,510,o),
(565,510,cs),
(557,510,o),
(542,515,o),
(535,522,c),
(510,490,l),
(521,480,o),
(546,472,o),
(562,472,cs),
(609,472,o),
(641,510,o),
(641,562,cs),
(641,661,o),
(523,706,o),
(419,706,cs),
(217,706,o),
(66,535,o),
(66,335,cs),
(66,140,o),
(210,-22,o),
(408,-22,cs)
);
}
);
};
layerId = "4473E775-5B50-49F8-862E-9DFFC95B4874";
name = "5 Jan 22, 07:44";
shapes = (
{
attr = {
strokeHeight = 38;
strokeWidth = 42;
};
closed = 0;
nodes = (
(518,484,l,{
"Letterink-NibData" = {
AngleInDegrees = 116.56505;
};
}),
(528,479,o),
(538,477,o),
(549,477,cs,{
"Letterink-NibData" = {
AngleInDegrees = 91.50744;
};
}),
(587,476,o),
(613,516,o),
(613,556,cs),
(613,630,o),
(519,690,o),
(395,684,cs,{
"Letterink-NibData" = {
AngleInDegrees = 267.08916;
};
}),
(218,675,o),
(84,532,o),
(84,330,cs,{
"Letterink-NibData" = {
AngleInDegrees = 180;
};
}),
(84,136,o),
(219,0,o),
(409,0,cs,{
"Letterink-NibData" = {
AngleInDegrees = 90;
};
}),
(507,0,o),
(602,52,o),
(648,130,c,{
"Letterink-NibData" = {
AngleInDegrees = 30.52971;
};
})
);
}
);
width = 726;
},
{
anchors = (
{
name = bottom;
pos = (408,-10);
},
{
name = top;
pos = (391,699);
}
);
background = {
shapes = (
{
closed = 1;
nodes = (
(588,-25,o),
(734,126,o),
(734,326,cs),
(734,355,ls),
(734,548,o),
(582,702,o),
(392,702,cs,{
"Letterink-NibData" = {
AngleInDegrees = "270";
};
}),
(202,702,o),
(51,548,o),
(51,355,cs,{
"Letterink-NibData" = {
AngleInDegrees = "180";
};
}),
(51,326,ls,{
"Letterink-NibData" = {
AngleInDegrees = "180";
};
}),
(51,126,o),
(195,-19,o),
(396,-22,cs,{
"Letterink-NibData" = {
AngleInDegrees = "90.89517371732774";
};
})
);
},
{
closed = 1;
nodes = (
(245,54,o),
(133,170,o),
(133,326,cs),
(133,355,ls),
(133,504,o),
(247,626,o),
(391,626,cs,{
"Letterink-NibData" = {
AngleInDegrees = "90";
};
}),
(537,626,o),
(652,504,o),
(652,355,cs,{
"Letterink-NibData" = {
AngleInDegrees = "180";
};
}),
(652,326,ls,{
"Letterink-NibData" = {
AngleInDegrees = "180";
};
}),
(652,170,o),
(540,54,o),
(393,54,cs,{
"Letterink-NibData" = {
AngleInDegrees = "270";
};
})
);
}
);
};
layerId = m004;
shapes = (
{
closed = 1;
nodes = (
(431,380,l),
(449,355,o),
(488,338,o),
(533,338,cs),
(619,338,o),
(683,400,o),
(683,487,cs),
(683,614,o),
(555,713,o),
(391,713,cs),
(185,713,o),
(33,555,o),
(33,343,cs),
(33,130,o),
(189,-27,o),
(402,-27,cs),
(529,-27,o),
(635,27,o),
(691,121,c),
(563,196,l),
(536,151,o),
(468,121,o),
(396,121,cs),
(277,121,o),
(198,207,o),
(198,337,cs),
(198,471,o),
(281,565,o),
(399,565,cs),
(479,565,o),
(535,532,o),
(534,496,cs),
(534,482,o),
(528,480,o),
(523,480,cs),
(519,480,o),
(514,483,o),
(513,485,c)
);
}
);
width = 721;
},
{
anchors = (
{
name = bottom;
pos = (387,-9);
},
{
name = top;
pos = (387,703);
}
);
associatedMasterId = m004;
layerId = "1D3C4DC7-3234-4807-8E35-E7EE46E86FD4";
name = "3 Jan 22, 15:22";
shapes = (
{
closed = 1;
nodes = (
(533,-19,o),
(637,45,o),
(684,146,c,{
"Letterink-NibData" = {
AngleInDegrees = 296.92768;
};
}),
(621,178,l,{
"Letterink-NibData" = {
AngleInDegrees = 204.38637;
};
}),
(587,103,o),
(498,52,o),
(401,52,cs,{
"Letterink-NibData" = {
AngleInDegrees = 270;
};
}),
(250,52,o),
(135,178,o),
(135,340,cs),
(135,509,o),
(259,632,o),
(399,632,cs,{
"Letterink-NibData" = {
AngleInDegrees = 90;
};
}),
(458,632,o),
(562,610,o),
(562,547,cs,{
"Letterink-NibData" = {
AngleInDegrees = 180;
};
}),
(562,530,o),
(554,517,o),
(538,517,cs,{
"Letterink-NibData" = {
AngleInDegrees = 270;
};
}),
(526,517,o),
(513,525,o),
(506,534,c,{
"Letterink-NibData" = {
AngleInDegrees = 218.25442;
};
}),
(465,482,l,{
"Letterink-NibData" = {
AngleInDegrees = 143.53076;
};
}),
(482,459,o),
(508,445,o),
(538,445,cs,{
"Letterink-NibData" = {
AngleInDegrees = 90;
};
}),
(591,445,o),
(637,490,o),
(637,551,cs),
(637,642,o),
(532,706,o),
(404,706,cs,{
"Letterink-NibData" = {
AngleInDegrees = 270;
};
}),
(197,706,o),
(53,539,o),
(53,341,cs,{
"Letterink-NibData" = {
AngleInDegrees = 180;
};
}),
(53,147,o),
(190,-26,o),
(404,-22,cs,{
"Letterink-NibData" = {
AngleInDegrees = 88.66778;
};
})
);
}
);
width = 720;
},
{
anchors = (
{
name = bottom;
pos = (382,0);
},
{
name = top;
pos = (374,684);
}
);
associatedMasterId = m004;
background = {
shapes = (
{
closed = 1;
nodes = (
(566,-25,o),
(712,126,o),
(712,326,cs),
(712,355,ls),
(712,548,o),
(560,702,o),
(370,702,cs,{
"Letterink-NibData" = {
AngleInDegrees = "270";
};
}),
(180,702,o),
(29,548,o),
(29,355,cs,{
"Letterink-NibData" = {
AngleInDegrees = "180";
};
}),
(29,326,ls,{
"Letterink-NibData" = {
AngleInDegrees = "180";
};
}),
(29,126,o),
(173,-19,o),
(374,-22,cs,{
"Letterink-NibData" = {
AngleInDegrees = "90.89517371732774";
};
})
);
},
{
closed = 1;
nodes = (
(223,54,o),
(111,170,o),
(111,326,cs),
(111,355,ls),
(111,504,o),
(225,626,o),
(369,626,cs,{
"Letterink-NibData" = {
AngleInDegrees = "90";
};
}),
(515,626,o),
(630,504,o),
(630,355,cs,{
"Letterink-NibData" = {
AngleInDegrees = "180";
};
}),
(630,326,ls,{
"Letterink-NibData" = {
AngleInDegrees = "180";
};
}),
(630,170,o),
(518,54,o),
(371,54,cs,{
"Letterink-NibData" = {
AngleInDegrees = "270";
};
})
);
}
);
};
layerId = "C056148C-2549-4511-9EFE-DD576A128247";
name = "19 Jan 22, 08:49";
shapes = (
{
closed = 0;
nodes = (
(459,430,l,{
"Letterink-NibData" = {
AngleInDegrees = -45;
MainAxisWidth = 118;
MinorAxisWidth = -15;
ValidForParentMainAxisWidth = 30;
ValidForParentMinorAxisWidth = 15;
};
"Letterink-NibStyleId" = "8";
}),
(479,410,o),
(501,408,o),
(517,408,cs,{
"Letterink-NibData" = {
AngleInDegrees = -45;
MainAxisWidth = 118;
MinorAxisWidth = -15;
ValidForParentMainAxisWidth = 30;
ValidForParentMinorAxisWidth = 15;
};
"Letterink-NibStyleId" = "8";
}),
(559,408,o),
(592,452,o),
(592,500,cs,{
"Letterink-NibData" = {
AngleInDegrees = -45;
MainAxisWidth = 118;
MinorAxisWidth = -15;
ValidForParentMainAxisWidth = 30;
ValidForParentMinorAxisWidth = 15;
};
"Letterink-NibStyleId" = "8";
}),
(592,568,o),
(493,639,o),
(383,639,cs,{
"Letterink-NibData" = {
AngleInDegrees = -45;
MainAxisWidth = 118;
MinorAxisWidth = -15;
ValidForParentMainAxisWidth = 30;
ValidForParentMinorAxisWidth = 15;
};
"Letterink-NibStyleId" = "8";
}),
(222,639,o),
(98,519,o),
(98,331,cs,{
"Letterink-NibData" = {
AngleInDegrees = -45;
MainAxisWidth = 135;
MinorAxisWidth = -15;
ValidForParentMainAxisWidth = 30;
ValidForParentMinorAxisWidth = 15;
};
"Letterink-NibStyleId" = "8";
}),
(98,164,o),
(221,47,o),
(391,47,cs,{
"Letterink-NibData" = {
AngleInDegrees = -45;
MainAxisWidth = 118;
MinorAxisWidth = -15;
ValidForParentMainAxisWidth = 30;
ValidForParentMinorAxisWidth = 15;
};
"Letterink-NibStyleId" = "8";
}),
(480,47,o),
(564,90,o),
(605,159,c,{
"Letterink-NibData" = {
AngleInDegrees = -45;
MainAxisWidth = 118;
MinorAxisWidth = -15;
ValidForParentMainAxisWidth = 30;
ValidForParentMinorAxisWidth = 15;
};
"Letterink-NibStyleId" = "8";
})
);
}
);
userData = {
"Letterink-ComputationAllowed" = YES;
};
width = 671;
}
);
metricLeft = O;
metricRight = "=O*.9";
unicode = 67;
userData = {
position = 570;
width = 54;
};
},
{
glyphname = C.ss01;
kernLeft = O;
kernRight = C;
layers = (
{
anchors = (
{
name = bottom;
pos = (386,-6);
},
{
name = top;
pos = (382,689);
}
);
background = {
shapes = (
{
closed = 1;
nodes = (
(578,-25,o),
(724,126,o),
(724,326,cs),
(724,355,ls),
(724,548,o),
(572,702,o),
(382,702,cs,{
"Letterink-NibData" = {
AngleInDegrees = "270";
};
}),
(192,702,o),
(41,548,o),
(41,355,cs,{
"Letterink-NibData" = {
AngleInDegrees = "180";
};
}),
(41,326,ls,{
"Letterink-NibData" = {
AngleInDegrees = "180";
};
}),
(41,126,o),
(185,-19,o),
(386,-22,cs,{
"Letterink-NibData" = {
AngleInDegrees = "90.89517371732774";
};
})
);
},
{
closed = 1;
nodes = (
(235,54,o),
(123,170,o),
(123,326,cs),
(123,355,ls),
(123,504,o),
(237,626,o),
(381,626,cs,{
"Letterink-NibData" = {
AngleInDegrees = "90";
};
}),
(527,626,o),
(642,504,o),
(642,355,cs,{
"Letterink-NibData" = {
AngleInDegrees = "180";
};
}),
(642,326,ls,{
"Letterink-NibData" = {
AngleInDegrees = "180";
};
}),
(642,170,o),
(530,54,o),
(383,54,cs,{
"Letterink-NibData" = {
AngleInDegrees = "270";
};
})
);
}
);
};
layerId = "0CAF3BED-C4AC-4024-B3E1-4C69D1EF7EC0";
shapes = (
{
closed = 1;
nodes = (
(651,531,l),
(624,626,o),
(523,705,o),
(385,705,cs),
(194,705,o),
(40,555,o),
(40,336,cs),
(40,115,o),
(197,-23,o),
(387,-23,cs),
(502,-23,o),
(606,27,o),
(661,118,c),
(595,158,l),
(556,93,o),
(481,53,o),
(388,53,cs),
(233,53,o),
(120,165,o),
(120,335,cs),
(120,505,o),
(232,629,o),
(391,629,cs),
(501,629,o),
(562,570,o),
(584,512,c)
);
}
);
width = 699;
},
{
anchors = (
{
name = bottom;
pos = (381,-2);
},
{
name = top;
pos = (382,685);
}
);
background = {
anchors = (
{
name = bottom;
pos = (376,-27);
},
{
name = top;
pos = (376,721);
}
);
shapes = (
{
attr = {
strokeHeight = 38;
strokeWidth = 42;
};
closed = 0;
nodes = (
(612,537,l,{
"Letterink-NibData" = {
AngleInDegrees = 356.78451;
};
}),
(607,626,o),
(509,691,o),
(385,685,cs,{
"Letterink-NibData" = {
AngleInDegrees = 267.08916;
};
}),
(208,676,o),
(73,532,o),
(73,330,cs,{
"Letterink-NibData" = {
AngleInDegrees = 180;
};
}),
(73,136,o),
(208,0,o),
(398,0,cs,{
"Letterink-NibData" = {
AngleInDegrees = 90;
};
}),
(496,0,o),
(591,52,o),
(637,130,c,{
"Letterink-NibData" = {
AngleInDegrees = 30.52971;
};
})
);
}
);
};
layerId = "49C16FD3-6177-408B-A733-AEB3898BB77C";
shapes = (
{
closed = 1;
nodes = (
(652,531,l),
(625,627,o),
(524,699,o),
(386,699,cs),
(199,699,o),
(52,549,o),
(52,336,cs),
(52,120,o),
(203,-17,o),
(390,-17,cs),
(504,-17,o),
(605,32,o),
(658,120,c),
(629,138,l),
(584,61,o),
(497,17,o),
(390,17,cs),
(221,17,o),
(90,142,o),
(90,336,cs),
(90,529,o),
(220,665,o),
(386,665,cs),
(518,665,o),
(598,595,o),
(620,522,c)
);
}
);
width = 707;
},
{
anchors = (
{
name = bottom;
pos = (381,-27);
},
{
name = top;
pos = (381,721);
}
);
associatedMasterId = "49C16FD3-6177-408B-A733-AEB3898BB77C";
layerId = "5C147D22-45CB-49AC-8F59-80A6CB628E42";
name = "3 Jan 22, 15:09";
shapes = (
{
closed = 1;
nodes = (
(508,-20,o),
(606,31,o),
(666,119,c,{
"Letterink-NibData" = {
AngleInDegrees = 304.07719;
};
}),
(632,142,l,{
"Letterink-NibData" = {
AngleInDegrees = 214.03213;
};
}),
(580,65,o),
(492,20,o),
(396,20,cs,{
"Letterink-NibData" = {
AngleInDegrees = 270;
};
}),
(225,20,o),
(103,159,o),
(103,331,cs),
(103,497,o),
(224,669,o),
(406,669,cs,{
"Letterink-NibData" = {
AngleInDegrees = 90;
};
}),
(505,669,o),
(586,618,o),
(592,552,c,{
"Letterink-NibData" = {
AngleInDegrees = 90;
};
}),
(633,552,l,{
"Letterink-NibData" = {
AngleInDegrees = 355.69553;
};
}),
(626,645,o),
(535,709,o),
(411,709,cs,{
"Letterink-NibData" = {
AngleInDegrees = 270;
};
}),
(207,709,o),
(61,535,o),
(61,334,cs,{
"Letterink-NibData" = {
AngleInDegrees = 180;
};
}),
(61,132,o),
(201,-20,o),
(397,-20,cs,{
"Letterink-NibData" = {
AngleInDegrees = 90;
};
})
);
}
);
width = 706;
},
{
anchors = (
{
name = bottom;
pos = (376,-7);
},
{
name = top;
pos = (376,701);
}
);
associatedMasterId = "0CAF3BED-C4AC-4024-B3E1-4C69D1EF7EC0";
layerId = "F3AD09C8-78E5-4679-83B5-5B942013D0D4";
name = "3 Jan 22, 15:21";
shapes = (
{
closed = 1;
nodes = (
(512,-17,o),
(616,40,o),
(678,139,c,{
"Letterink-NibData" = {
AngleInDegrees = 304.31509;
};
}),
(615,182,l,{
"Letterink-NibData" = {
AngleInDegrees = 211.07166;
};
}),
(568,104,o),
(488,59,o),
(393,59,cs,{
"Letterink-NibData" = {
AngleInDegrees = 270;
};
}),
(240,59,o),
(133,176,o),
(133,324,cs),
(133,494,o),
(248,631,o),
(391,631,cs,{
"Letterink-NibData" = {
AngleInDegrees = 90;
};
}),
(491,631,o),
(569,582,o),
(566,520,c,{
"Letterink-NibData" = {
AngleInDegrees = 90;
};
}),
(645,520,l,{
"Letterink-NibData" = {
AngleInDegrees = 1.06091;
};
}),
(647,628,o),
(542,707,o),
(396,707,cs,{
"Letterink-NibData" = {
AngleInDegrees = 270;
};
}),
(207,707,o),
(53,538,o),
(53,327,cs,{
"Letterink-NibData" = {
AngleInDegrees = 180;
};
}),
(53,132,o),
(197,-17,o),
(392,-17,cs,{
"Letterink-NibData" = {
AngleInDegrees = 90;
};
})
);
}
);
width = 716;
},
{
anchors = (
{
name = bottom;
pos = (387,-27);
},
{
name = top;
pos = (387,721);
}
);
associatedMasterId = "49C16FD3-6177-408B-A733-AEB3898BB77C";
layerId = "60C93F8E-5478-4CF7-8F44-AF3ED9540F66";
name = "5 Jan 22, 07:47";
shapes = (
{
attr = {
strokeHeight = 38;
strokeWidth = 42;
};
closed = 0;
nodes = (
(623,537,l,{
"Letterink-NibData" = {
AngleInDegrees = 356.78451;
};
}),
(618,626,o),
(520,691,o),
(396,685,cs,{
"Letterink-NibData" = {
AngleInDegrees = 267.08916;
};
}),
(219,676,o),
(84,532,o),
(84,330,cs,{
"Letterink-NibData" = {
AngleInDegrees = 180;
};
}),
(84,136,o),
(219,0,o),
(409,0,cs,{
"Letterink-NibData" = {
AngleInDegrees = 90;
};
}),
(507,0,o),
(602,52,o),
(648,130,c,{
"Letterink-NibData" = {
AngleInDegrees = 30.52971;
};
})
);
}
);
width = 712;
},
{
anchors = (
{
name = bottom;
pos = (376,-7);
},
{
name = top;
pos = (376,701);
}
);
associatedMasterId = "0CAF3BED-C4AC-4024-B3E1-4C69D1EF7EC0";
layerId = "E3615987-2AFD-4696-A41C-F6163A2589A7";
name = "5 Jan 22, 07:50";
shapes = (
{
attr = {
strokeHeight = 74;
strokeWidth = 80;
};
closed = 0;
nodes = (
(614,525,ls,{
"Letterink-NibData" = {
AngleInDegrees = 356.63354;
};
}),
(609,610,o),
(516,671,o),
(399,665,cs,{
"Letterink-NibData" = {
AngleInDegrees = 267.02198;
};
}),
(226,656,o),
(94,521,o),
(94,331,cs,{
"Letterink-NibData" = {
AngleInDegrees = 180;
};
}),
(94,148,o),
(224,20,o),
(407,20,cs,{
"Letterink-NibData" = {
AngleInDegrees = 90;
};
}),
(502,20,o),
(593,68,o),
(638,142,c,{
"Letterink-NibData" = {
AngleInDegrees = 31.30412;
};
})
);
}
);
width = 716;
},
{
anchors = (
{
name = bottom;
pos = (397,-12);
},
{
name = top;
pos = (386,696);
}
);
background = {
shapes = (
{
closed = 1;
nodes = (
(594,-25,o),
(740,126,o),
(740,326,cs),
(740,355,ls),
(740,548,o),
(588,702,o),
(398,702,cs,{
"Letterink-NibData" = {
AngleInDegrees = "270";
};
}),
(208,702,o),
(57,548,o),
(57,355,cs,{
"Letterink-NibData" = {
AngleInDegrees = "180";
};
}),
(57,326,ls,{
"Letterink-NibData" = {
AngleInDegrees = "180";
};
}),
(57,126,o),
(201,-19,o),
(402,-22,cs,{
"Letterink-NibData" = {
AngleInDegrees = "90.89517371732774";
};
})
);
},
{
closed = 1;
nodes = (
(251,54,o),
(139,170,o),
(139,326,cs),
(139,355,ls),
(139,504,o),
(253,626,o),
(397,626,cs,{
"Letterink-NibData" = {
AngleInDegrees = "90";
};
}),
(543,626,o),
(658,504,o),
(658,355,cs,{
"Letterink-NibData" = {
AngleInDegrees = "180";
};
}),
(658,326,ls,{
"Letterink-NibData" = {
AngleInDegrees = "180";
};
}),
(658,170,o),
(546,54,o),
(399,54,cs,{
"Letterink-NibData" = {
AngleInDegrees = "270";
};
})
);
}
);
};
layerId = m004;
shapes = (
{
closed = 1;
nodes = (
(671,522,l),
(641,633,o),
(529,713,o),
(386,713,cs),
(185,713,o),
(33,552,o),
(33,341,cs),
(33,130,o),
(187,-28,o),
(394,-28,cs),
(515,-28,o),
(620,29,o),
(675,120,c),
(548,196,l),
(520,149,o),
(462,120,o),
(396,120,cs),
(283,120,o),
(198,211,o),
(198,333,cs),
(198,466,o),
(279,565,o),
(386,565,cs),
(460,565,o),
(518,530,o),
(535,474,c)
);
}
);
width = 706;
},
{
anchors = (
{
name = bottom;
pos = (376,-7);
},
{
name = top;
pos = (376,701);
}
);
associatedMasterId = m004;
layerId = "61EB21C3-3EB3-448C-BA61-69CC21CFBA6E";
name = "3 Jan 22, 15:21";
shapes = (
{
closed = 1;
nodes = (
(512,-17,o),
(616,40,o),
(678,139,c,{
"Letterink-NibData" = {
AngleInDegrees = 304.31509;
};
}),
(615,182,l,{
"Letterink-NibData" = {
AngleInDegrees = 211.07166;
};
}),
(568,104,o),
(488,59,o),
(393,59,cs,{
"Letterink-NibData" = {
AngleInDegrees = 270;
};
}),
(240,59,o),
(133,176,o),
(133,324,cs),
(133,494,o),
(248,631,o),
(391,631,cs,{
"Letterink-NibData" = {
AngleInDegrees = 90;
};
}),
(491,631,o),
(569,582,o),
(566,520,c,{
"Letterink-NibData" = {
AngleInDegrees = 90;
};
}),
(645,520,l,{
"Letterink-NibData" = {
AngleInDegrees = 1.06091;
};
}),
(647,628,o),
(542,707,o),
(396,707,cs,{
"Letterink-NibData" = {
AngleInDegrees = 270;
};
}),
(207,707,o),
(53,538,o),
(53,327,cs,{
"Letterink-NibData" = {
AngleInDegrees = 180;
};
}),
(53,132,o),
(197,-17,o),
(392,-17,cs,{
"Letterink-NibData" = {
AngleInDegrees = 90;
};
})
);
}
);
width = 716;
},
{
anchors = (
{
name = bottom;
pos = (376,-7);
},
{
name = top;
pos = (376,701);
}
);
associatedMasterId = m004;
layerId = "2E6EA62A-4F0C-4C83-906A-4BFA96122663";
name = "5 Jan 22, 07:50";
shapes = (
{
attr = {
strokeHeight = 74;
strokeWidth = 80;
};
closed = 0;
nodes = (
(614,525,ls,{
"Letterink-NibData" = {
AngleInDegrees = 356.63354;
};
}),
(609,610,o),
(516,671,o),
(399,665,cs,{
"Letterink-NibData" = {
AngleInDegrees = 267.02198;
};
}),
(226,656,o),
(94,521,o),
(94,331,cs,{
"Letterink-NibData" = {
AngleInDegrees = 180;
};
}),
(94,148,o),
(224,20,o),
(407,20,cs,{
"Letterink-NibData" = {
AngleInDegrees = 90;
};
}),
(502,20,o),
(593,68,o),
(638,142,c,{
"Letterink-NibData" = {
AngleInDegrees = 31.30412;
};
})
);
}
);
width = 716;
}
);
metricLeft = O;
metricRight = "=O*.95";
userData = {
position = 570;
width = 54;
};
},
{
glyphname = C.swsh;
kernLeft = O;
kernRight = C;
layers = (
{
anchors = (
{
name = bottom;
pos = (393,-8);
},
{
name = top;
pos = (382,691);
}
);
background = {
shapes = (
{
closed = 1;
nodes = (
(577,-25,o),
(723,126,o),
(723,326,cs),
(723,355,ls),
(723,548,o),
(571,702,o),
(381,702,cs,{
"Letterink-NibData" = {
AngleInDegrees = "270";
};
}),
(191,702,o),
(40,548,o),
(40,355,cs,{
"Letterink-NibData" = {
AngleInDegrees = "180";
};
}),
(40,326,ls,{
"Letterink-NibData" = {
AngleInDegrees = "180";
};
}),
(40,126,o),
(184,-19,o),
(385,-22,cs,{
"Letterink-NibData" = {
AngleInDegrees = "90.89517371732774";
};
})
);
},
{
closed = 1;
nodes = (
(234,54,o),
(122,170,o),
(122,326,cs),
(122,355,ls),
(122,504,o),
(236,626,o),
(380,626,cs,{
"Letterink-NibData" = {
AngleInDegrees = "90";
};
}),
(526,626,o),
(641,504,o),
(641,355,cs,{
"Letterink-NibData" = {
AngleInDegrees = "180";
};
}),
(641,326,ls,{
"Letterink-NibData" = {
AngleInDegrees = "180";
};
}),
(641,170,o),
(529,54,o),
(382,54,cs,{
"Letterink-NibData" = {
AngleInDegrees = "270";
};
})
);
}
);
};
layerId = "0CAF3BED-C4AC-4024-B3E1-4C69D1EF7EC0";
shapes = (
{
closed = 1;
nodes = (
(410,496,l),
(425,443,o),
(473,407,o),
(527,407,cs),
(592,407,o),
(638,455,o),
(638,524,cs),
(638,626,o),
(536,700,o),
(394,700,cs),
(189,700,o),
(40,546,o),
(40,335,cs),
(40,128,o),
(187,-22,o),
(391,-22,cs),
(509,-22,o),
(611,31,o),
(664,120,c),
(598,158,l),
(559,91,o),
(485,54,o),
(394,54,cs),
(232,54,o),
(120,169,o),
(120,335,cs),
(120,503,o),
(234,624,o),
(394,624,cs),
(484,624,o),
(558,577,o),
(558,520,cs),
(558,498,o),
(546,483,o),
(528,483,cs),
(508,483,o),
(489,498,o),
(482,518,c)
);
}
);
width = 703;
},
{
anchors = (
{
name = bottom;
pos = (398,-2);
},
{
name = top;
pos = (399,686);
}
);
background = {
shapes = (
{
closed = 1;
nodes = (
(596,-14,o),
(738,131,o),
(738,331,cs),
(738,350,ls),
(738,550,o),
(590,702,o),
(396,702,cs,{
"Letterink-NibData" = {
AngleInDegrees = "270";
};
}),
(202,702,o),
(56,551,o),
(56,350,cs,{
"Letterink-NibData" = {
AngleInDegrees = "180";
};
}),
(56,331,ls,{
"Letterink-NibData" = {
AngleInDegrees = "180";
};
}),
(56,133,o),
(203,-14,o),
(400,-14,cs,{
"Letterink-NibData" = {
AngleInDegrees = "90";
};
})
);
},
{
closed = 1;
nodes = (
(226,24,o),
(98,156,o),
(98,331,cs),
(98,350,ls),
(98,526,o),
(227,662,o),
(395,662,cs,{
"Letterink-NibData" = {
AngleInDegrees = "90";
};
}),
(564,662,o),
(696,526,o),
(696,350,cs,{
"Letterink-NibData" = {
AngleInDegrees = "180";
};
}),
(696,331,ls,{
"Letterink-NibData" = {
AngleInDegrees = "180";
};
}),
(696,156,o),
(567,24,o),
(397,24,cs,{
"Letterink-NibData" = {
AngleInDegrees = "270";
};
})
);
}
);
};
layerId = "49C16FD3-6177-408B-A733-AEB3898BB77C";
shapes = (
{
closed = 1;
nodes = (
(442,509,l),
(455,459,o),
(492,430,o),
(544,430,cs),
(595,430,o),
(635,473,o),
(635,530,cs),
(635,620,o),
(529,694,o),
(399,694,cs),
(199,694,o),
(52,544,o),
(52,341,cs),
(52,137,o),
(198,-11,o),
(401,-11,cs),
(517,-11,o),
(616,40,o),
(667,126,c),
(639,143,l),
(594,67,o),
(507,22,o),
(401,22,cs),
(217,22,o),
(90,153,o),
(90,341,cs),
(90,525,o),
(221,660,o),
(399,660,cs),
(511,660,o),
(602,602,o),
(602,530,cs),
(602,491,o),
(578,464,o),
(544,464,cs),
(508,464,o),
(483,484,o),
(474,518,c)
);
}
);
width = 718;
},
{
anchors = (
{
name = bottom;
pos = (371,0);
},
{
name = top;
pos = (383,684);
}
);
associatedMasterId = "49C16FD3-6177-408B-A733-AEB3898BB77C";
layerId = "3D02E95B-60B1-4244-8F26-D84725EF13C9";
name = "3 Jan 22, 15:07";
shapes = (
{
closed = 1;
nodes = (
(507,-21,o),
(630,33,o),
(680,140,c,{
"Letterink-NibData" = {
AngleInDegrees = 293.55226;
};
}),
(641,157,l,{
"Letterink-NibData" = {
AngleInDegrees = 204.62357;
};
}),
(608,85,o),
(527,18,o),
(390,19,cs,{
"Letterink-NibData" = {
AngleInDegrees = 270.40348;
};
}),
(248,20,o),
(102,149,o),
(102,343,cs),
(102,508,o),
(234,657,o),
(394,657,cs,{
"Letterink-NibData" = {
AngleInDegrees = 90;
};
}),
(475,657,o),
(572,621,o),
(572,548,cs,{
"Letterink-NibData" = {
AngleInDegrees = 180;
};
}),
(572,521,o),
(556,500,o),
(532,500,cs,{
"Letterink-NibData" = {
AngleInDegrees = 270;
};
}),
(519,500,o),
(502,510,o),
(495,523,c,{
"Letterink-NibData" = {
AngleInDegrees = 238.57043;
};
}),
(459,501,l,{
"Letterink-NibData" = {
AngleInDegrees = 149.03624;
};
}),
(477,471,o),
(504,458,o),
(531,458,cs,{
"Letterink-NibData" = {
AngleInDegrees = 90;
};
}),
(573,458,o),
(614,492,o),
(614,546,cs),
(614,639,o),
(506,697,o),
(395,697,cs,{
"Letterink-NibData" = {
AngleInDegrees = 270;
};
}),
(211,697,o),
(60,536,o),
(60,344,cs,{
"Letterink-NibData" = {
AngleInDegrees = 180;
};
}),
(60,159,o),
(191,-21,o),
(391,-21,cs,{
"Letterink-NibData" = {
AngleInDegrees = 90;
};
})
);
}
);
width = 718;
},
{
anchors = (
{
name = bottom;
pos = (378,-9);
},
{
name = top;
pos = (378,703);
}
);
associatedMasterId = "0CAF3BED-C4AC-4024-B3E1-4C69D1EF7EC0";
layerId = "430F94E4-6E0B-477D-BEA9-4D1159DC2E2A";
name = "3 Jan 22, 15:17";
shapes = (
{
closed = 1;
nodes = (
(505,-16,o),
(621,32,o),
(687,139,c,{
"Letterink-NibData" = {
AngleInDegrees = 303.88696;
};
}),
(620,184,l,{
"Letterink-NibData" = {
AngleInDegrees = 210.52971;
};
}),
(574,106,o),
(489,60,o),
(395,60,cs,{
"Letterink-NibData" = {
AngleInDegrees = 270;
};
}),
(243,60,o),
(133,184,o),
(133,337,cs),
(133,493,o),
(251,630,o),
(401,630,cs,{
"Letterink-NibData" = {
AngleInDegrees = 90;
};
}),
(464,630,o),
(558,604,o),
(558,552,cs,{
"Letterink-NibData" = {
AngleInDegrees = 180;
};
}),
(558,539,o),
(548,528,o),
(537,528,cs,{
"Letterink-NibData" = {
AngleInDegrees = 270;
};
}),
(530,528,o),
(520,532,o),
(515,539,c,{
"Letterink-NibData" = {
AngleInDegrees = 218.19868;
};
}),
(467,478,l,{
"Letterink-NibData" = {
AngleInDegrees = 135;
};
}),
(485,460,o),
(513,447,o),
(543,447,cs,{
"Letterink-NibData" = {
AngleInDegrees = 90;
};
}),
(594,447,o),
(638,494,o),
(638,551,cs),
(638,661,o),
(511,706,o),
(400,706,cs,{
"Letterink-NibData" = {
AngleInDegrees = 270;
};
}),
(207,706,o),
(53,536,o),
(53,337,cs,{
"Letterink-NibData" = {
AngleInDegrees = 180;
};
}),
(53,141,o),
(200,-16,o),
(394,-16,cs,{
"Letterink-NibData" = {
AngleInDegrees = 90;
};
})
);
}
);
width = 720;
},
{
anchors = (
{
name = bottom;
pos = (377,0);
},
{
name = top;
pos = (389,684);
}
);
associatedMasterId = "49C16FD3-6177-408B-A733-AEB3898BB77C";
layerId = "BE458C1D-0A4B-40C4-BCF4-9649CDEB98A4";
name = "5 Jan 22, 08:01";
shapes = (
{
attr = {
strokeHeight = 38;
strokeWidth = 42;
};
closed = 0;
nodes = (
(484,527,l,{
"Letterink-NibData" = {
AngleInDegrees = 168.31063;
};
}),
(490,498,o),
(515,478,o),
(549,477,cs,{
"Letterink-NibData" = {
AngleInDegrees = 91.50744;
};
}),
(587,476,o),
(613,516,o),
(613,556,cs),
(613,630,o),
(520,690,o),
(396,684,cs,{
"Letterink-NibData" = {
AngleInDegrees = 267.08916;
};
}),
(219,675,o),
(84,532,o),
(84,330,cs,{
"Letterink-NibData" = {
AngleInDegrees = 180;
};
}),
(84,136,o),
(219,0,o),
(409,0,cs,{
"Letterink-NibData" = {
AngleInDegrees = 90;
};
}),
(507,0,o),
(602,52,o),
(648,130,c,{
"Letterink-NibData" = {
AngleInDegrees = 30.52971;
};
})
);
}
);
width = 724;
},
{
anchors = (
{
name = bottom;
pos = (377,31);
},
{
name = top;
pos = (377,662);
}
);
associatedMasterId = "0CAF3BED-C4AC-4024-B3E1-4C69D1EF7EC0";
layerId = "26DD77D8-93B1-4CFB-A5C5-84AD5242F402";
name = "5 Jan 22, 08:04";
shapes = (
{
attr = {
strokeHeight = 74;
strokeWidth = 80;
};
closed = 0;
nodes = (
(482,519,l,{
"Letterink-NibData" = {
AngleInDegrees = 169.50852;
};
}),
(487,492,o),
(511,472,o),
(540,471,cs,{
"Letterink-NibData" = {
AngleInDegrees = 91.33222;
};
}),
(583,470,o),
(608,508,o),
(608,546,cs),
(608,617,o),
(519,674,o),
(398,669,cs,{
"Letterink-NibData" = {
AngleInDegrees = 267.03906;
};
}),
(224,660,o),
(90,523,o),
(90,334,cs,{
"Letterink-NibData" = {
AngleInDegrees = 180;
};
}),
(90,145,o),
(222,15,o),
(396,15,cs,{
"Letterink-NibData" = {
AngleInDegrees = 90;
};
}),
(501,15,o),
(596,63,o),
(642,140,c,{
"Letterink-NibData" = {
AngleInDegrees = 30.8542;
};
})
);
}
);
width = 720;
},
{
anchors = (
{
name = bottom;
pos = (394,-12);
},
{
name = top;
pos = (389,696);
}
);
background = {
shapes = (
{
closed = 1;
nodes = (
(590,-25,o),
(736,126,o),
(736,326,cs),
(736,355,ls),
(736,548,o),
(584,702,o),
(394,702,cs,{
"Letterink-NibData" = {
AngleInDegrees = "270";
};
}),
(204,702,o),
(53,548,o),
(53,355,cs,{
"Letterink-NibData" = {
AngleInDegrees = "180";
};
}),
(53,326,ls,{
"Letterink-NibData" = {
AngleInDegrees = "180";
};
}),
(53,126,o),
(197,-19,o),
(398,-22,cs,{
"Letterink-NibData" = {
AngleInDegrees = "90.89517371732774";
};
})
);
},
{
closed = 1;
nodes = (
(247,54,o),
(135,170,o),
(135,326,cs),
(135,355,ls),
(135,504,o),
(249,626,o),
(393,626,cs,{
"Letterink-NibData" = {
AngleInDegrees = "90";
};
}),
(539,626,o),
(654,504,o),
(654,355,cs,{
"Letterink-NibData" = {
AngleInDegrees = "180";
};
}),
(654,326,ls,{
"Letterink-NibData" = {
AngleInDegrees = "180";
};
}),
(654,170,o),
(542,54,o),
(395,54,cs,{
"Letterink-NibData" = {
AngleInDegrees = "270";
};
})
);
}
);
};
layerId = m004;
shapes = (
{
closed = 1;
nodes = (
(353,475,l),
(368,407,o),
(431,359,o),
(507,359,cs),
(593,359,o),
(656,422,o),
(656,510,cs),
(656,627,o),
(543,714,o),
(390,714,cs),
(186,714,o),
(33,554,o),
(33,340,cs),
(33,130,o),
(188,-28,o),
(394,-28,cs),
(516,-28,o),
(625,29,o),
(675,121,c),
(548,197,l),
(518,147,o),
(466,120,o),
(398,120,cs),
(277,120,o),
(198,204,o),
(198,332,cs),
(198,469,o),
(281,566,o),
(398,566,cs),
(443,566,o),
(484,552,o),
(500,531,cs),
(509,519,o),
(509,506,o),
(500,503,cs),
(492,500,o),
(483,508,o),
(483,518,c)
);
}
);
width = 707;
},
{
anchors = (
{
name = bottom;
pos = (378,-9);
},
{
name = top;
pos = (378,703);
}
);
associatedMasterId = m004;
layerId = "E1B422B0-C5DA-4EE8-BF30-75EC1E1BD4CA";
name = "3 Jan 22, 15:17";
shapes = (
{
closed = 1;
nodes = (
(505,-16,o),
(621,32,o),
(687,139,c,{
"Letterink-NibData" = {
AngleInDegrees = 303.88696;
};
}),
(620,184,l,{
"Letterink-NibData" = {
AngleInDegrees = 210.52971;
};
}),
(574,106,o),
(489,60,o),
(395,60,cs,{
"Letterink-NibData" = {
AngleInDegrees = 270;
};
}),
(243,60,o),
(133,184,o),
(133,337,cs),
(133,493,o),
(251,630,o),
(401,630,cs,{
"Letterink-NibData" = {
AngleInDegrees = 90;
};
}),
(464,630,o),
(558,604,o),
(558,552,cs,{
"Letterink-NibData" = {
AngleInDegrees = 180;
};
}),
(558,539,o),
(548,528,o),
(537,528,cs,{
"Letterink-NibData" = {
AngleInDegrees = 270;
};
}),
(530,528,o),
(520,532,o),
(515,539,c,{
"Letterink-NibData" = {
AngleInDegrees = 218.19868;
};
}),
(467,478,l,{
"Letterink-NibData" = {
AngleInDegrees = 135;
};
}),
(485,460,o),
(513,447,o),
(543,447,cs,{
"Letterink-NibData" = {
AngleInDegrees = 90;
};
}),
(594,447,o),
(638,494,o),
(638,551,cs),
(638,661,o),
(511,706,o),
(400,706,cs,{
"Letterink-NibData" = {
AngleInDegrees = 270;
};
}),
(207,706,o),
(53,536,o),
(53,337,cs,{
"Letterink-NibData" = {
AngleInDegrees = 180;
};
}),
(53,141,o),
(200,-16,o),
(394,-16,cs,{
"Letterink-NibData" = {
AngleInDegrees = 90;
};
})
);
}
);
width = 720;
},
{
anchors = (
{
name = bottom;
pos = (377,31);
},
{
name = top;
pos = (377,662);
}
);
associatedMasterId = m004;
layerId = "4CF65D10-8B5F-49BE-AA91-F2DD426CB74F";
name = "5 Jan 22, 08:04";
shapes = (
{
attr = {
strokeHeight = 74;
strokeWidth = 80;
};
closed = 0;
nodes = (
(482,519,l,{
"Letterink-NibData" = {
AngleInDegrees = 169.50852;
};
}),
(487,492,o),
(511,472,o),
(540,471,cs,{
"Letterink-NibData" = {
AngleInDegrees = 91.33222;
};
}),
(583,470,o),
(608,508,o),
(608,546,cs),
(608,617,o),
(519,674,o),
(398,669,cs,{
"Letterink-NibData" = {
AngleInDegrees = 267.03906;
};
}),
(224,660,o),
(90,523,o),
(90,334,cs,{
"Letterink-NibData" = {
AngleInDegrees = 180;
};
}),
(90,145,o),
(222,15,o),
(396,15,cs,{
"Letterink-NibData" = {
AngleInDegrees = 90;
};
}),
(501,15,o),
(596,63,o),
(642,140,c,{
"Letterink-NibData" = {
AngleInDegrees = 30.8542;
};
})
);
}
);
width = 720;
}
);
metricLeft = O;
metricRight = "=O*.98";
userData = {
position = 570;
width = 54;
};
},
{
glyphname = D;
kernLeft = E;
kernRight = O;
layers = (
{
anchors = (
{
name = bottom;
pos = (354,-10);
},
{
name = center;
pos = (209,367);
},
{
name = top;
pos = (384,684);
}
);
hints = (
{
name = _corner.caps_left;
origin = (0,7);
type = Corner;
}
);
layerId = "0CAF3BED-C4AC-4024-B3E1-4C69D1EF7EC0";
shapes = (
{
closed = 1;
nodes = (
(354,-10,cs,{
"Letterink-NibData" = {
AngleInDegrees = 90;
};
}),
(558,-10,o),
(702,136,o),
(702,342,cs),
(702,535,o),
(575,672,o),
(384,684,c,{
"Letterink-NibData" = {
AngleInDegrees = 270.21459;
};
}),
(127,685,l,{
"Letterink-NibData" = {
AngleInDegrees = 180;
};
}),
(127,608,l,{
"Letterink-NibData" = {
AngleInDegrees = 90;
};
}),
(373,608,l,{
"Letterink-NibData" = {
AngleInDegrees = 92.97373;
};
}),
(530,600,o),
(620,501,o),
(620,339,cs,{
"Letterink-NibData" = {
AngleInDegrees = 180;
};
}),
(620,163,o),
(514,65,o),
(322,65,cs,{
"Letterink-NibData" = {
AngleInDegrees = 270;
};
}),
(291,65,o),
(251,67,o),
(209,70,c),
(209,651,l,{
"Letterink-NibData" = {
AngleInDegrees = 270;
};
}),
(127,651,l,{
"Letterink-NibData" = {
AngleInDegrees = 180;
};
}),
(127,1,l,{
"Letterink-NibData" = {
AngleInDegrees = 95.10217;
};
}),
(183,-4,ls,{
"Letterink-NibData" = {
AngleInDegrees = 95.12819;
};
}),
(249,-10,o),
(272,-10,o)
);
}
);
width = 742;
},
{
anchors = (
{
name = bottom;
pos = (316,-9);
},
{
name = center;
pos = (162,358);
},
{
name = top;
pos = (333,685);
}
);
hints = (
{
name = _corner.caps_left;
origin = (0,7);
type = Corner;
}
);
layerId = "49C16FD3-6177-408B-A733-AEB3898BB77C";
shapes = (
{
closed = 1;
nodes = (
(352,-9,cs,{
"Letterink-NibData" = {
AngleInDegrees = 90;
};
}),
(555,-9,o),
(689,131,o),
(689,342,cs),
(689,541,o),
(565,672,o),
(372,684,c,{
"Letterink-NibData" = {
AngleInDegrees = 270.22037;
};
}),
(123,685,l,{
"Letterink-NibData" = {
AngleInDegrees = 180;
};
}),
(123,649,l,{
"Letterink-NibData" = {
AngleInDegrees = 90;
};
}),
(363,649,l,{
"Letterink-NibData" = {
AngleInDegrees = 93.25195;
};
}),
(542,639,o),
(650,525,o),
(650,339,cs,{
"Letterink-NibData" = {
AngleInDegrees = 180;
};
}),
(650,141,o),
(536,26,o),
(330,26,cs,{
"Letterink-NibData" = {
AngleInDegrees = 270;
};
}),
(265,26,o),
(178,29,o),
(161,31,c),
(161,649,l,{
"Letterink-NibData" = {
AngleInDegrees = 270;
};
}),
(123,649,l,{
"Letterink-NibData" = {
AngleInDegrees = 180;
};
}),
(123,0,l,{
"Letterink-NibData" = {
AngleInDegrees = 94.18492;
};
}),
(162,-3,ls,{
"Letterink-NibData" = {
AngleInDegrees = 94.20536;
};
}),
(229,-8,o),
(273,-9,o)
);
}
);
width = 741;
},
{
anchors = (
{
name = bottom;
pos = (408,-2);
},
{
name = center;
pos = (242,353);
},
{
name = top;
pos = (426,684);
}
);
hints = (
{
name = _corner.caps_left;
origin = (0,7);
type = Corner;
}
);
layerId = m004;
shapes = (
{
closed = 1;
nodes = (
(377,-10,cs,{
"Letterink-NibData" = {
AngleInDegrees = "90";
};
}),
(593,-14,o),
(748,135,o),
(748,346,cs),
(748,531,o),
(613,672,o),
(426,684,c,{
"Letterink-NibData" = {
AngleInDegrees = "270.21459";
};
}),
(154,685,l,{
"Letterink-NibData" = {
AngleInDegrees = "180";
};
}),
(154,532,l,{
"Letterink-NibData" = {
AngleInDegrees = "90";
};
}),
(411,532,l,{
"Letterink-NibData" = {
AngleInDegrees = "92.97373";
};
}),
(522,528,o),
(583,461,o),
(583,343,cs,{
"Letterink-NibData" = {
AngleInDegrees = "180";
};
}),
(583,217,o),
(511,141,o),
(392,141,cs,{
"Letterink-NibData" = {
AngleInDegrees = "270";
};
}),
(361,141,o),
(343,142,o),
(319,146,c),
(319,655,l,{
"Letterink-NibData" = {
AngleInDegrees = "270";
};
}),
(154,655,l,{
"Letterink-NibData" = {
AngleInDegrees = "180";
};
}),
(154,5,l,{
"Letterink-NibData" = {
AngleInDegrees = "95.10217";
};
}),
(224,-3,ls,{
"Letterink-NibData" = {
AngleInDegrees = "95.12819";
};
}),
(264,-8,o),
(297,-9,o)
);
}
);
width = 781;
}
);
metricLeft = E;
metricRight = O;
unicode = 68;
userData = {
position = 674;
width = 60;
};
},
{
glyphname = D.ss01;
kernLeft = L;
kernRight = O;
layers = (
{
anchors = (
{
name = bottom;
pos = (315,-10);
},
{
name = center;
pos = (170,367);
},
{
name = top;
pos = (302,681);
}
);
layerId = "0CAF3BED-C4AC-4024-B3E1-4C69D1EF7EC0";
shapes = (
{
closed = 1;
nodes = (
(315,-10,cs,{
"Letterink-NibData" = {
AngleInDegrees = 90;
};
}),
(519,-10,o),
(663,136,o),
(663,342,cs),
(663,535,o),
(536,672,o),
(345,684,c,{
"Letterink-NibData" = {
AngleInDegrees = 270.21459;
};
}),
(88,685,l,{
"Letterink-NibData" = {
AngleInDegrees = 180;
};
}),
(88,608,l,{
"Letterink-NibData" = {
AngleInDegrees = 90;
};
}),
(334,608,l,{
"Letterink-NibData" = {
AngleInDegrees = 92.97373;
};
}),
(491,600,o),
(581,501,o),
(581,339,cs,{
"Letterink-NibData" = {
AngleInDegrees = 180;
};
}),
(581,163,o),
(475,65,o),
(283,65,cs,{
"Letterink-NibData" = {
AngleInDegrees = 270;
};
}),
(252,65,o),
(212,67,o),
(170,70,c),
(170,651,l,{
"Letterink-NibData" = {
AngleInDegrees = 270;
};
}),
(88,651,l,{
"Letterink-NibData" = {
AngleInDegrees = 180;
};
}),
(88,1,l,{
"Letterink-NibData" = {
AngleInDegrees = 95.10217;
};
}),
(144,-4,ls,{
"Letterink-NibData" = {
AngleInDegrees = 95.12819;
};
}),
(210,-10,o),
(212,-10,o)
);
}
);
width = 703;
},
{
anchors = (
{
name = bottom;
pos = (258,-11);
},
{
name = center;
pos = (132,358);
},
{
name = top;
pos = (368,690);
}
);
layerId = "49C16FD3-6177-408B-A733-AEB3898BB77C";
shapes = (
{
closed = 1;
nodes = (
(323,-9,cs,{
"Letterink-NibData" = {
AngleInDegrees = 90;
};
}),
(526,-9,o),
(660,131,o),
(660,342,cs),
(660,541,o),
(536,672,o),
(343,684,c,{
"Letterink-NibData" = {
AngleInDegrees = 270.22037;
};
}),
(94,685,l,{
"Letterink-NibData" = {
AngleInDegrees = 180;
};
}),
(94,649,l,{
"Letterink-NibData" = {
AngleInDegrees = 90;
};
}),
(334,649,l,{
"Letterink-NibData" = {
AngleInDegrees = 93.25195;
};
}),
(513,639,o),
(621,525,o),
(621,339,cs,{
"Letterink-NibData" = {
AngleInDegrees = 180;
};
}),
(621,141,o),
(507,26,o),
(301,26,cs,{
"Letterink-NibData" = {
AngleInDegrees = 270;
};
}),
(236,26,o),
(149,29,o),
(132,31,c),
(132,649,l,{
"Letterink-NibData" = {
AngleInDegrees = 270;
};
}),
(94,649,l,{
"Letterink-NibData" = {
AngleInDegrees = 180;
};
}),
(94,0,l,{
"Letterink-NibData" = {
AngleInDegrees = 94.18492;
};
}),
(133,-3,ls,{
"Letterink-NibData" = {
AngleInDegrees = 94.20536;
};
}),
(200,-8,o),
(244,-9,o)
);
}
);
width = 712;
},
{
anchors = (
{
name = bottom;
pos = (296,-10);
},
{
name = center;
pos = (188,360);
},
{
name = top;
pos = (312,685);
}
);
layerId = m004;
shapes = (
{
closed = 1;
nodes = (
(296,-10,cs,{
"Letterink-NibData" = {
AngleInDegrees = "90";
};
}),
(529,-14,o),
(667,151,o),
(667,346,cs),
(667,523,o),
(540,673,o),
(332,684,c,{
"Letterink-NibData" = {
AngleInDegrees = "270.21459";
};
}),
(73,684,l,{
"Letterink-NibData" = {
AngleInDegrees = "180";
};
}),
(73,532,l,{
"Letterink-NibData" = {
AngleInDegrees = "90";
};
}),
(330,532,l,{
"Letterink-NibData" = {
AngleInDegrees = "92.97373";
};
}),
(453,528,o),
(502,448,o),
(502,343,cs,{
"Letterink-NibData" = {
AngleInDegrees = "180";
};
}),
(502,212,o),
(426,141,o),
(311,141,cs,{
"Letterink-NibData" = {
AngleInDegrees = "270";
};
}),
(290,141,o),
(263,141,o),
(238,146,c),
(238,655,l,{
"Letterink-NibData" = {
AngleInDegrees = "270";
};
}),
(73,655,l,{
"Letterink-NibData" = {
AngleInDegrees = "180";
};
}),
(73,5,l,{
"Letterink-NibData" = {
AngleInDegrees = "95.10217";
};
}),
(163,-4,ls,{
"Letterink-NibData" = {
AngleInDegrees = "95.12819";
};
}),
(166,-4,o),
(170,-8,o)
);
}
);
width = 700;
}
);
metricLeft = "=|H";
metricRight = O;
userData = {
position = 674;
width = 60;
};
},
{
glyphname = D.swsh;
kernLeft = Swash;
kernRight = O;
layers = (
{
background = {
anchors = (
{
name = bottom;
pos = (372,0);
},
{
name = center;
pos = (397,11);
},
{
name = top;
pos = (397,11);
}
);
hints = (
{
name = _corner.caps_swash;
origin = (0,7);
type = Corner;
}
);
shapes = (
{
closed = 1;
nodes = (
(336,-10,ls,{
"Letterink-NibData" = {
AngleInDegrees = 90;
};
}),
(540,-10,o),
(685,138,o),
(685,342,cs),
(685,532,o),
(558,678,o),
(366,690,c,{
"Letterink-NibData" = {
AngleInDegrees = 270.20033;
};
}),
(110,691,l,{
"Letterink-NibData" = {
AngleInDegrees = 180;
};
}),
(110,615,l,{
"Letterink-NibData" = {
AngleInDegrees = 90;
};
}),
(355,615,l,{
"Letterink-NibData" = {
AngleInDegrees = 93.55173;
};
}),
(500,606,o),
(603,517,o),
(603,342,cs,{
"Letterink-NibData" = {
AngleInDegrees = 180;
};
}),
(603,175,o),
(510,66,o),
(298,66,cs,{
"Letterink-NibData" = {
AngleInDegrees = 270;
};
}),
(271,66,o),
(245,69,o),
(211,71,c),
(211,559,l,{
"Letterink-NibData" = {
AngleInDegrees = 270;
};
}),
(129,559,l,{
"Letterink-NibData" = {
AngleInDegrees = 180;
};
}),
(129,1,l,{
"Letterink-NibData" = {
AngleInDegrees = 95.01311;
};
}),
(186,-4,ls,{
"Letterink-NibData" = {
AngleInDegrees = 94.93922;
};
}),
(255,-10,o),
(254,-10,o),
(296,-10,cs,{
"Letterink-NibData" = {
AngleInDegrees = 90;
};
})
);
}
);
};
hints = (
{
name = _corner.caps_swash;
origin = (0,7);
type = Corner;
}
);
layerId = "0CAF3BED-C4AC-4024-B3E1-4C69D1EF7EC0";
shapes = (
{
closed = 1;
nodes = (
(355,-10,cs,{
"Letterink-NibData" = {
AngleInDegrees = "90";
};
}),
(559,-10,o),
(703,136,o),
(703,342,cs),
(703,535,o),
(576,672,o),
(385,684,c,{
"Letterink-NibData" = {
AngleInDegrees = "270.21459";
};
}),
(128,685,l,{
"Letterink-NibData" = {
AngleInDegrees = "180";
};
}),
(128,608,l,{
"Letterink-NibData" = {
AngleInDegrees = "90";
};
}),
(374,608,l,{
"Letterink-NibData" = {
AngleInDegrees = "92.97373";
};
}),
(531,600,o),
(621,501,o),
(621,339,cs,{
"Letterink-NibData" = {
AngleInDegrees = "180";
};
}),
(621,163,o),
(515,65,o),
(323,65,cs,{
"Letterink-NibData" = {
AngleInDegrees = "270";
};
}),
(292,65,o),
(252,67,o),
(210,70,c),
(210,560,l,{
"Letterink-NibData" = {
AngleInDegrees = "270";
};
}),
(128,560,l,{
"Letterink-NibData" = {
AngleInDegrees = "180";
};
}),
(128,1,l,{
"Letterink-NibData" = {
AngleInDegrees = "95.10217";
};
}),
(184,-4,ls,{
"Letterink-NibData" = {
AngleInDegrees = "95.12819";
};
}),
(250,-10,o),
(252,-10,o)
);
}
);
width = 743;
},
{
background = {
anchors = (
{
name = bottom;
pos = (359,0);
},
{
name = center;
pos = (377,-8);
},
{
name = top;
pos = (377,-8);
}
);
hints = (
{
name = _corner.caps_swash;
origin = (0,7);
type = Corner;
}
);
shapes = (
{
closed = 1;
nodes = (
(326,-9,ls,{
"Letterink-NibData" = {
AngleInDegrees = 90;
};
}),
(514,-9,o),
(663,122,o),
(663,342,cs),
(663,535,o),
(548,690,o),
(346,690,c,{
"Letterink-NibData" = {
AngleInDegrees = 270.19689;
};
}),
(85,691,l,{
"Letterink-NibData" = {
AngleInDegrees = 180;
};
}),
(85,651,l,{
"Letterink-NibData" = {
AngleInDegrees = 90;
};
}),
(336,651,l,{
"Letterink-NibData" = {
AngleInDegrees = 90;
};
}),
(499,651,o),
(621,535,o),
(621,349,cs,{
"Letterink-NibData" = {
AngleInDegrees = 180;
};
}),
(621,161,o),
(512,30,o),
(298,30,cs,{
"Letterink-NibData" = {
AngleInDegrees = 270;
};
}),
(275,30,o),
(219,32,o),
(157,35,c),
(157,573,l,{
"Letterink-NibData" = {
AngleInDegrees = 270;
};
}),
(115,573,l,{
"Letterink-NibData" = {
AngleInDegrees = 180;
};
}),
(115,0,l,{
"Letterink-NibData" = {
AngleInDegrees = 94.28915;
};
}),
(155,-3,ls,{
"Letterink-NibData" = {
AngleInDegrees = 93.66779;
};
}),
(234,-9,o),
(243,-9,o),
(282,-9,cs,{
"Letterink-NibData" = {
AngleInDegrees = 90;
};
})
);
}
);
};
hints = (
{
name = _corner.caps_swash;
origin = (0,7);
type = Corner;
}
);
layerId = "49C16FD3-6177-408B-A733-AEB3898BB77C";
shapes = (
{
closed = 1;
nodes = (
(343,-9,cs,{
"Letterink-NibData" = {
AngleInDegrees = "90";
};
}),
(546,-9,o),
(680,131,o),
(680,342,cs),
(680,541,o),
(556,672,o),
(363,684,c,{
"Letterink-NibData" = {
AngleInDegrees = "270.22037";
};
}),
(114,685,l,{
"Letterink-NibData" = {
AngleInDegrees = "180";
};
}),
(114,649,l,{
"Letterink-NibData" = {
AngleInDegrees = "90";
};
}),
(354,649,l,{
"Letterink-NibData" = {
AngleInDegrees = "93.25194999999999";
};
}),
(533,639,o),
(641,524,o),
(641,339,cs,{
"Letterink-NibData" = {
AngleInDegrees = "180";
};
}),
(641,141,o),
(527,26,o),
(321,26,cs,{
"Letterink-NibData" = {
AngleInDegrees = "270";
};
}),
(256,26,o),
(169,29,o),
(152,31,c),
(152,569,l,{
"Letterink-NibData" = {
AngleInDegrees = "270";
};
}),
(114,569,l,{
"Letterink-NibData" = {
AngleInDegrees = "180";
};
}),
(114,0,l,{
"Letterink-NibData" = {
AngleInDegrees = "94.18492000000001";
};
}),
(153,-3,ls,{
"Letterink-NibData" = {
AngleInDegrees = "94.20536";
};
}),
(220,-8,o),
(264,-9,o)
);
}
);
width = 732;
},
{
background = {
anchors = (
{
name = bottom;
pos = (437,0);
},
{
name = center;
pos = (462,11);
},
{
name = top;
pos = (462,11);
}
);
hints = (
{
name = _corner.caps_swash;
origin = (0,7);
type = Corner;
}
);
shapes = (
{
closed = 1;
nodes = (
(401,-10,ls,{
"Letterink-NibData" = {
AngleInDegrees = 90;
};
}),
(605,-10,o),
(750,138,o),
(750,342,cs),
(750,532,o),
(623,678,o),
(431,690,c,{
"Letterink-NibData" = {
AngleInDegrees = 270.20033;
};
}),
(175,691,l,{
"Letterink-NibData" = {
AngleInDegrees = 180;
};
}),
(175,615,l,{
"Letterink-NibData" = {
AngleInDegrees = 90;
};
}),
(420,615,l,{
"Letterink-NibData" = {
AngleInDegrees = 93.55173;
};
}),
(565,606,o),
(668,517,o),
(668,342,cs,{
"Letterink-NibData" = {
AngleInDegrees = 180;
};
}),
(668,175,o),
(575,66,o),
(363,66,cs,{
"Letterink-NibData" = {
AngleInDegrees = 270;
};
}),
(336,66,o),
(310,69,o),
(276,71,c),
(276,559,l,{
"Letterink-NibData" = {
AngleInDegrees = 270;
};
}),
(194,559,l,{
"Letterink-NibData" = {
AngleInDegrees = 180;
};
}),
(194,1,l,{
"Letterink-NibData" = {
AngleInDegrees = 95.01311;
};
}),
(251,-4,ls,{
"Letterink-NibData" = {
AngleInDegrees = 94.93922;
};
}),
(320,-10,o),
(319,-10,o),
(361,-10,cs,{
"Letterink-NibData" = {
AngleInDegrees = 90;
};
})
);
}
);
};
hints = (
{
name = _corner.caps_swash;
origin = (0,7);
type = Corner;
}
);
layerId = m004;
shapes = (
{
closed = 1;
nodes = (
(359,-10,cs,{
"Letterink-NibData" = {
AngleInDegrees = "90";
};
}),
(617,-10,o),
(755,151,o),
(755,341,cs),
(755,523,o),
(628,672,o),
(433,684,c,{
"Letterink-NibData" = {
AngleInDegrees = "270.21459";
};
}),
(161,685,l,{
"Letterink-NibData" = {
AngleInDegrees = "180";
};
}),
(161,536,l,{
"Letterink-NibData" = {
AngleInDegrees = "90";
};
}),
(418,536,l,{
"Letterink-NibData" = {
AngleInDegrees = "92.97373";
};
}),
(541,532,o),
(590,448,o),
(590,346,cs,{
"Letterink-NibData" = {
AngleInDegrees = "180";
};
}),
(590,212,o),
(506,141,o),
(396,141,cs,{
"Letterink-NibData" = {
AngleInDegrees = "270";
};
}),
(378,141,o),
(349,143,o),
(326,146,c),
(326,499,l,{
"Letterink-NibData" = {
AngleInDegrees = "270";
};
}),
(161,499,l,{
"Letterink-NibData" = {
AngleInDegrees = "180";
};
}),
(161,5,l,{
"Letterink-NibData" = {
AngleInDegrees = "95.10217";
};
}),
(251,-4,ls,{
"Letterink-NibData" = {
AngleInDegrees = "95.12819";
};
}),
(285,-7,o),
(330,-10,o)
);
}
);
width = 788;
}
);
metricLeft = E;
metricRight = O;
userData = {
position = 674;
width = 60;
};
},
{
glyphname = E;
kernLeft = E;
kernRight = E;
layers = (
{
anchors = (
{
name = bottom;
pos = (385,2);
},
{
name = ogonek;
pos = (619,-1);
},
{
name = top;
pos = (366,684);
},
{
name = topleft;
pos = (55,684);
}
);
hints = (
{
name = _corner.caps_left;
origin = (0,10);
type = Corner;
}
);
layerId = "0CAF3BED-C4AC-4024-B3E1-4C69D1EF7EC0";
shapes = (
{
closed = 1;
nodes = (
(596,-1,l),
(596,75,l,{
"Letterink-NibData" = {
AngleInDegrees = "270";
};
}),
(209,75,l),
(209,323,l,{
"Letterink-NibData" = {
AngleInDegrees = "90";
};
}),
(480,323,l),
(480,399,l,{
"Letterink-NibData" = {
AngleInDegrees = "270";
};
}),
(209,399,l),
(209,608,l,{
"Letterink-NibData" = {
AngleInDegrees = "90";
};
}),
(577,608,l),
(577,684,l,{
"Letterink-NibData" = {
AngleInDegrees = "270";
};
}),
(127,684,l,{
"Letterink-NibData" = {
AngleInDegrees = "180";
};
}),
(127,-1,l,{
"Letterink-NibData" = {
AngleInDegrees = "90";
};
})
);
}
);
width = 640;
},
{
anchors = (
{
name = bottom;
pos = (327,0);
},
{
name = ogonek;
pos = (546,1);
},
{
name = top;
pos = (334,684);
},
{
name = topleft;
pos = (20,684);
}
);
hints = (
{
name = _corner.caps_left;
origin = (0,10);
type = Corner;
}
);
layerId = "49C16FD3-6177-408B-A733-AEB3898BB77C";
shapes = (
{
closed = 1;
nodes = (
(547,0,l),
(547,36,l,{
"Letterink-NibData" = {
AngleInDegrees = 270;
};
}),
(161,36,l),
(161,346,l,{
"Letterink-NibData" = {
AngleInDegrees = 90;
};
}),
(424,346,l),
(424,382,l,{
"Letterink-NibData" = {
AngleInDegrees = 270;
};
}),
(161,382,l),
(161,649,l,{
"Letterink-NibData" = {
AngleInDegrees = 90;
};
}),
(549,649,l),
(549,685,l,{
"Letterink-NibData" = {
AngleInDegrees = 269.86613;
};
}),
(123,684,l,{
"Letterink-NibData" = {
AngleInDegrees = 180;
};
}),
(123,0,l,{
"Letterink-NibData" = {
AngleInDegrees = 90;
};
})
);
}
);
width = 589;
},
{
anchors = (
{
name = bottom;
pos = (413,0);
},
{
name = ogonek;
pos = (656,-5);
},
{
name = top;
pos = (415,684);
},
{
name = topleft;
pos = (154,684);
}
);
hints = (
{
name = _corner.caps_left;
origin = (0,10);
type = Corner;
}
);
layerId = m004;
shapes = (
{
closed = 1;
nodes = (
(656,0,l),
(656,148,l,{
"Letterink-NibData" = {
AngleInDegrees = "270";
};
}),
(320,148,l),
(320,273,l,{
"Letterink-NibData" = {
AngleInDegrees = "90";
};
}),
(560,273,l),
(560,421,l,{
"Letterink-NibData" = {
AngleInDegrees = "270";
};
}),
(320,421,l),
(320,536,l,{
"Letterink-NibData" = {
AngleInDegrees = "90";
};
}),
(646,536,l),
(646,684,l,{
"Letterink-NibData" = {
AngleInDegrees = "270";
};
}),
(154,684,l,{
"Letterink-NibData" = {
AngleInDegrees = "180";
};
}),
(154,0,l,{
"Letterink-NibData" = {
AngleInDegrees = "90";
};
})
);
}
);
width = 719;
}
);
metricLeft = H;
unicode = 69;
userData = {
position = 130;
width = 61;
};
},
{
glyphname = E.ss01;
kernLeft = L;
kernRight = E;
layers = (
{
anchors = (
{
name = bottom;
pos = (326,0);
},
{
name = ogonek;
pos = (557,-1);
},
{
name = top;
pos = (328,685);
},
{
name = topleft;
pos = (24,684);
}
);
layerId = "0CAF3BED-C4AC-4024-B3E1-4C69D1EF7EC0";
shapes = (
{
closed = 1;
nodes = (
(557,-1,l),
(557,75,l,{
"Letterink-NibData" = {
AngleInDegrees = 270;
};
}),
(170,75,l),
(170,323,l,{
"Letterink-NibData" = {
AngleInDegrees = 90;
};
}),
(441,323,l),
(441,399,l,{
"Letterink-NibData" = {
AngleInDegrees = 270;
};
}),
(170,399,l),
(170,608,l,{
"Letterink-NibData" = {
AngleInDegrees = 90;
};
}),
(538,608,l),
(538,684,l,{
"Letterink-NibData" = {
AngleInDegrees = 270;
};
}),
(88,684,l,{
"Letterink-NibData" = {
AngleInDegrees = 180;
};
}),
(88,-1,l,{
"Letterink-NibData" = {
AngleInDegrees = 90;
};
})
);
}
);
width = 560;
},
{
anchors = (
{
name = bottom;
pos = (323,2);
},
{
name = ogonek;
pos = (545,1);
},
{
name = top;
pos = (321,684);
},
{
name = topleft;
pos = (29,684);
}
);
layerId = "49C16FD3-6177-408B-A733-AEB3898BB77C";
shapes = (
{
closed = 1;
nodes = (
(545,0,l),
(545,36,l,{
"Letterink-NibData" = {
AngleInDegrees = 270;
};
}),
(133,36,l),
(133,346,l,{
"Letterink-NibData" = {
AngleInDegrees = 90;
};
}),
(422,346,l),
(422,382,l,{
"Letterink-NibData" = {
AngleInDegrees = 270;
};
}),
(133,382,l),
(133,649,l,{
"Letterink-NibData" = {
AngleInDegrees = 90;
};
}),
(525,649,l),
(525,685,l,{
"Letterink-NibData" = {
AngleInDegrees = 270;
};
}),
(94,685,l,{
"Letterink-NibData" = {
AngleInDegrees = 180;
};
}),
(94,0,l,{
"Letterink-NibData" = {
AngleInDegrees = 90;
};
})
);
}
);
width = 567;
},
{
anchors = (
{
name = bottom;
pos = (330,0);
},
{
name = ogonek;
pos = (574,-5);
},
{
name = top;
pos = (317,687);
},
{
name = topleft;
pos = (73,684);
}
);
layerId = m004;
shapes = (
{
closed = 1;
nodes = (
(575,0,l),
(575,148,l,{
"Letterink-NibData" = {
AngleInDegrees = 270;
};
}),
(239,148,l),
(239,273,l,{
"Letterink-NibData" = {
AngleInDegrees = 90;
};
}),
(479,273,l),
(479,421,l,{
"Letterink-NibData" = {
AngleInDegrees = 270;
};
}),
(239,421,l),
(239,536,l,{
"Letterink-NibData" = {
AngleInDegrees = 90;
};
}),
(565,536,l),
(565,684,l,{
"Letterink-NibData" = {
AngleInDegrees = 270;
};
}),
(73,684,l,{
"Letterink-NibData" = {
AngleInDegrees = 180;
};
}),
(73,0,l,{
"Letterink-NibData" = {
AngleInDegrees = 90;
};
})
);
}
);
width = 575;
}
);
metricLeft = N.ss01;
userData = {
position = 95;
width = 61;
};
},
{
glyphname = E.swsh;
kernLeft = Swash;
kernRight = E;
layers = (
{
anchors = (
{
name = bottom;
pos = (381,0);
},
{
name = ogonek;
pos = (599,0);
},
{
name = top;
pos = (374,684);
},
{
name = topleft;
pos = (-18,684);
}
);
hints = (
{
name = _corner.caps_swash;
origin = (1,3);
type = Corner;
}
);
layerId = "0CAF3BED-C4AC-4024-B3E1-4C69D1EF7EC0";
shapes = (
{
closed = 1;
nodes = (
(599,0,l),
(599,76,l,{
"Letterink-NibData" = {
AngleInDegrees = 270;
};
}),
(233,76,l),
(233,325,l,{
"Letterink-NibData" = {
AngleInDegrees = 90;
};
}),
(483,325,l),
(483,401,l,{
"Letterink-NibData" = {
AngleInDegrees = 270;
};
}),
(233,401,l),
(233,559,l,{
"Letterink-NibData" = {
AngleInDegrees = 270;
};
}),
(151,559,l,{
"Letterink-NibData" = {
AngleInDegrees = 180;
};
}),
(151,0,l,{
"Letterink-NibData" = {
AngleInDegrees = 90;
};
})
);
},
{
closed = 1;
nodes = (
(126,609,l,{
"Letterink-NibData" = {
AngleInDegrees = 90;
};
}),
(599,609,l),
(599,685,l,{
"Letterink-NibData" = {
AngleInDegrees = 270;
};
}),
(126,685,l,{
"Letterink-NibData" = {
AngleInDegrees = 180;
};
})
);
}
);
width = 643;
},
{
anchors = (
{
name = bottom;
pos = (369,0);
},
{
name = ogonek;
pos = (577,0);
},
{
name = top;
pos = (359,684);
},
{
name = topleft;
pos = (-37,684);
}
);
hints = (
{
name = _corner.caps_swash;
origin = (1,3);
type = Corner;
}
);
layerId = "49C16FD3-6177-408B-A733-AEB3898BB77C";
shapes = (
{
closed = 1;
nodes = (
(577,0,l),
(577,36,l,{
"Letterink-NibData" = {
AngleInDegrees = 270;
};
}),
(185,36,l),
(185,346,l,{
"Letterink-NibData" = {
AngleInDegrees = 90;
};
}),
(453,346,l),
(453,382,l,{
"Letterink-NibData" = {
AngleInDegrees = 270;
};
}),
(185,382,l),
(185,570,l,{
"Letterink-NibData" = {
AngleInDegrees = 270;
};
}),
(148,570,l,{
"Letterink-NibData" = {
AngleInDegrees = 180;
};
}),
(148,0,l,{
"Letterink-NibData" = {
AngleInDegrees = 90;
};
})
);
},
{
closed = 1;
nodes = (
(114,648,l,{
"Letterink-NibData" = {
AngleInDegrees = 90;
};
}),
(577,648,l),
(577,684,l,{
"Letterink-NibData" = {
AngleInDegrees = 270;
};
}),
(114,684,l,{
"Letterink-NibData" = {
AngleInDegrees = 180;
};
})
);
}
);
width = 617;
},
{
anchors = (
{
name = bottom;
pos = (405,0);
},
{
name = ogonek;
pos = (656,-5);
},
{
name = top;
pos = (404,684);
},
{
name = topleft;
pos = (-55,728);
}
);
hints = (
{
name = _corner.caps_swash;
origin = (1,3);
type = Corner;
}
);
layerId = m004;
shapes = (
{
closed = 1;
nodes = (
(656,0,l),
(656,148,l,{
"Letterink-NibData" = {
AngleInDegrees = "270";
};
}),
(320,148,l),
(320,276,l,{
"Letterink-NibData" = {
AngleInDegrees = "90";
};
}),
(560,276,l),
(560,424,l,{
"Letterink-NibData" = {
AngleInDegrees = "270";
};
}),
(320,424,l),
(320,501,l,{
"Letterink-NibData" = {
AngleInDegrees = "90";
};
}),
(154,500,l,{
"Letterink-NibData" = {
AngleInDegrees = "180";
};
}),
(154,0,l,{
"Letterink-NibData" = {
AngleInDegrees = "90";
};
})
);
},
{
closed = 1;
nodes = (
(154,536,l),
(646,536,l),
(646,684,l,{
"Letterink-NibData" = {
AngleInDegrees = "270";
};
}),
(154,684,l,{
"Letterink-NibData" = {
AngleInDegrees = "180";
};
})
);
}
);
width = 719;
}
);
metricLeft = "=E*1.2";
metricRight = E;
userData = {
position = 130;
width = 61;
};
},
{
glyphname = Schwa;
kernLeft = O;
kernRight = O;
layers = (
{
anchors = (
{
name = bottom;
pos = (341,-14);
},
{
name = ogonek;
pos = (562,85);
},
{
name = top;
pos = (342,701);
}
);
layerId = "49C16FD3-6177-408B-A733-AEB3898BB77C";
shapes = (
{
closed = 1;
nodes = (
(256,701,o),
(174,679,o),
(103,630,c,{
"Letterink-NibData" = {
AngleInDegrees = 328.49573;
};
}),
(119,604,l,{
"Letterink-NibData" = {
AngleInDegrees = 241.38954;
};
}),
(197,648,o),
(257,668,o),
(332,668,cs,{
"Letterink-NibData" = {
AngleInDegrees = 270;
};
}),
(589,668,o),
(612,442,o),
(612,359,cs),
(612,168,o),
(504,16,o),
(339,16,cs,{
"Letterink-NibData" = {
AngleInDegrees = 90;
};
}),
(216,16,o),
(112,121,o),
(112,267,cs,{
"Letterink-NibData" = {
AngleInDegrees = 180;
};
}),
(112,278,o),
(113,315,o),
(120,351,c,{
"Letterink-NibData" = {
AngleInDegrees = 90;
};
}),
(81,351,l,{
"Letterink-NibData" = {
AngleInDegrees = 4.96974;
};
}),
(78,316,o),
(76,291,o),
(76,270,cs),
(76,99,o),
(184,-12,o),
(341,-14,cs,{
"Letterink-NibData" = {
AngleInDegrees = 270.42128;
};
}),
(521,-16,o),
(647,128,o),
(647,365,cs,{
"Letterink-NibData" = {
AngleInDegrees = 180;
};
}),
(647,566,o),
(540,701,o),
(342,701,cs,{
"Letterink-NibData" = {
AngleInDegrees = 90;
};
})
);
},
{
closed = 1;
nodes = (
(107,351,l),
(107,318,l,{
"Letterink-NibData" = {
AngleInDegrees = 270;
};
}),
(619,318,l,{
"Letterink-NibData" = {
AngleInDegrees = 180;
};
}),
(619,351,l,{
"Letterink-NibData" = {
AngleInDegrees = 90;
};
})
);
}
);
userData = {
RMXScaler = {
height = 140;
weight = -145;
width = 135;
};
};
width = 718;
},
{
anchors = (
{
name = bottom;
pos = (338,0);
},
{
name = ogonek;
pos = (626,68);
},
{
name = top;
pos = (338,712);
}
);
layerId = "0CAF3BED-C4AC-4024-B3E1-4C69D1EF7EC0";
shapes = (
{
closed = 1;
nodes = (
(245,712,o),
(150,683,o),
(82,629,c,{
"Letterink-NibData" = {
AngleInDegrees = 328.49573;
};
}),
(118,569,l,{
"Letterink-NibData" = {
AngleInDegrees = 235.0806;
};
}),
(197,621,o),
(259,635,o),
(333,635,cs,{
"Letterink-NibData" = {
AngleInDegrees = 270;
};
}),
(555,635,o),
(568,442,o),
(568,370,cs),
(568,169,o),
(463,62,o),
(338,62,cs,{
"Letterink-NibData" = {
AngleInDegrees = 90;
};
}),
(228,62,o),
(140,153,o),
(140,273,cs,{
"Letterink-NibData" = {
AngleInDegrees = 180;
};
}),
(140,301,o),
(144,337,o),
(150,377,c,{
"Letterink-NibData" = {
AngleInDegrees = 90;
};
}),
(62,377,l,{
"Letterink-NibData" = {
AngleInDegrees = 4.08562;
};
}),
(60,342,o),
(56,313,o),
(56,277,cs),
(56,113,o),
(179,-15,o),
(337,-15,cs,{
"Letterink-NibData" = {
AngleInDegrees = 270;
};
}),
(542,-15,o),
(652,177,o),
(652,369,cs,{
"Letterink-NibData" = {
AngleInDegrees = 180;
};
}),
(652,568,o),
(540,712,o),
(338,712,cs,{
"Letterink-NibData" = {
AngleInDegrees = 90;
};
})
);
},
{
closed = 1;
nodes = (
(93,377,l),
(93,300,l,{
"Letterink-NibData" = {
AngleInDegrees = 270;
};
}),
(625,300,l,{
"Letterink-NibData" = {
AngleInDegrees = 180;
};
}),
(625,377,l,{
"Letterink-NibData" = {
AngleInDegrees = 90;
};
})
);
}
);
userData = {
RMXScaler = {
height = 140;
weight = -120;
width = 135;
};
};
width = 705;
},
{
anchors = (
{
name = bottom;
pos = (356,48);
},
{
name = ogonek;
pos = (660,96);
},
{
name = top;
pos = (352,697);
}
);
layerId = m004;
shapes = (
{
closed = 1;
nodes = (
(209,707,o),
(94,660,o),
(40,592,c,{
"Letterink-NibData" = {
AngleInDegrees = 328.49573;
};
}),
(122,476,l,{
"Letterink-NibData" = {
AngleInDegrees = 235.0806;
};
}),
(173,529,o),
(245,558,o),
(314,558,cs,{
"Letterink-NibData" = {
AngleInDegrees = 270;
};
}),
(455,558,o),
(475,437,o),
(475,354,cs),
(475,198,o),
(401,129,o),
(325,129,cs,{
"Letterink-NibData" = {
AngleInDegrees = 90;
};
}),
(260,129,o),
(205,184,o),
(205,264,cs,{
"Letterink-NibData" = {
AngleInDegrees = 180;
};
}),
(205,299,o),
(205,334,o),
(216,399,c,{
"Letterink-NibData" = {
AngleInDegrees = 90;
};
}),
(39,399,l,{
"Letterink-NibData" = {
AngleInDegrees = 4.08562;
};
}),
(33,354,o),
(30,316,o),
(30,268,cs),
(30,100,o),
(154,-18,o),
(322,-19,cs,{
"Letterink-NibData" = {
AngleInDegrees = 270;
};
}),
(534,-20,o),
(655,161,o),
(655,354,cs,{
"Letterink-NibData" = {
AngleInDegrees = 180;
};
}),
(655,550,o),
(536,707,o),
(325,707,cs,{
"Letterink-NibData" = {
AngleInDegrees = 90;
};
})
);
},
{
closed = 1;
nodes = (
(50,399,l),
(50,269,l,{
"Letterink-NibData" = {
AngleInDegrees = 270;
};
}),
(637,269,l,{
"Letterink-NibData" = {
AngleInDegrees = 180;
};
}),
(637,399,l,{
"Letterink-NibData" = {
AngleInDegrees = 90;
};
})
);
}
);
userData = {
RMXScaler = {
height = 140;
weight = 200;
width = 135;
};
};
width = 681;
}
);
unicode = 399;
userData = {
RMXScaler = {
source = e.ss01;
};
};
},
{
glyphname = F;
kernLeft = E;
kernRight = F;
layers = (
{
anchors = (
{
name = bottom;
pos = (341,0);
},
{
name = top;
pos = (342,684);
}
);
hints = (
{
name = _corner.caps_left;
origin = (0,8);
type = Corner;
}
);
layerId = "0CAF3BED-C4AC-4024-B3E1-4C69D1EF7EC0";
shapes = (
{
closed = 1;
nodes = (
(210,-1,l),
(210,323,l,{
"Letterink-NibData" = {
AngleInDegrees = 90;
};
}),
(460,323,l),
(460,400,l,{
"Letterink-NibData" = {
AngleInDegrees = 270;
};
}),
(210,400,l),
(210,609,l,{
"Letterink-NibData" = {
AngleInDegrees = 90;
};
}),
(556,609,l),
(556,685,l,{
"Letterink-NibData" = {
AngleInDegrees = 270;
};
}),
(127,685,l,{
"Letterink-NibData" = {
AngleInDegrees = 179.91648;
};
}),
(128,-1,l,{
"Letterink-NibData" = {
AngleInDegrees = 90;
};
})
);
}
);
width = 600;
},
{
anchors = (
{
name = bottom;
pos = (337,-18);
},
{
name = top;
pos = (339,684);
}
);
hints = (
{
name = _corner.caps_left;
origin = (0,8);
type = Corner;
}
);
layerId = "49C16FD3-6177-408B-A733-AEB3898BB77C";
shapes = (
{
closed = 1;
nodes = (
(161,0,l),
(161,345,l,{
"Letterink-NibData" = {
AngleInDegrees = 90;
};
}),
(428,345,l),
(428,381,l,{
"Letterink-NibData" = {
AngleInDegrees = 270;
};
}),
(161,381,l),
(161,648,l,{
"Letterink-NibData" = {
AngleInDegrees = 90;
};
}),
(531,648,l),
(531,684,l,{
"Letterink-NibData" = {
AngleInDegrees = 270;
};
}),
(123,684,l,{
"Letterink-NibData" = {
AngleInDegrees = 180;
};
}),
(123,0,l,{
"Letterink-NibData" = {
AngleInDegrees = 90;
};
})
);
}
);
width = 571;
},
{
anchors = (
{
name = bottom;
pos = (397,-3);
},
{
name = top;
pos = (399,684);
}
);
background = {
anchors = (
{
name = bottom;
pos = (342,0);
},
{
name = top;
pos = (342,684);
}
);
hints = (
{
name = _corner.caps_left;
origin = (0,8);
type = Corner;
}
);
shapes = (
{
closed = 1;
nodes = (
(250,-1,l),
(250,323,l,{
"Letterink-NibData" = {
AngleInDegrees = 90;
};
}),
(500,323,l),
(500,400,l,{
"Letterink-NibData" = {
AngleInDegrees = 270;
};
}),
(250,400,l),
(250,609,l,{
"Letterink-NibData" = {
AngleInDegrees = 90;
};
}),
(596,609,l),
(596,685,l,{
"Letterink-NibData" = {
AngleInDegrees = 270;
};
}),
(167,685,l,{
"Letterink-NibData" = {
AngleInDegrees = 179.91648;
};
}),
(168,-1,l,{
"Letterink-NibData" = {
AngleInDegrees = 90;
};
})
);
}
);
};
hints = (
{
name = _corner.caps_left;
origin = (0,8);
type = Corner;
}
);
layerId = m004;
shapes = (
{
closed = 1;
nodes = (
(321,0,l),
(320,263,l,{
"Letterink-NibData" = {
AngleInDegrees = "90";
};
}),
(540,263,l),
(540,411,l,{
"Letterink-NibData" = {
AngleInDegrees = "270";
};
}),
(320,411,l),
(320,536,l,{
"Letterink-NibData" = {
AngleInDegrees = "90";
};
}),
(626,536,l),
(626,684,l,{
"Letterink-NibData" = {
AngleInDegrees = "270";
};
}),
(154,684,l,{
"Letterink-NibData" = {
AngleInDegrees = "180";
};
}),
(154,0,l,{
"Letterink-NibData" = {
AngleInDegrees = "90";
};
})
);
}
);
width = 689;
}
);
metricLeft = E;
metricRight = E;
unicode = 70;
userData = {
position = 129;
width = 61;
};
},
{
glyphname = F.ss01;
kernLeft = L;
kernRight = F;
layers = (
{
anchors = (
{
name = bottom;
pos = (301,0);
},
{
name = top;
pos = (302,684);
}
);
layerId = "0CAF3BED-C4AC-4024-B3E1-4C69D1EF7EC0";
shapes = (
{
closed = 1;
nodes = (
(170,-1,l),
(170,315,l,{
"Letterink-NibData" = {
AngleInDegrees = 90;
};
}),
(448,315,l),
(448,393,l,{
"Letterink-NibData" = {
AngleInDegrees = 270;
};
}),
(170,393,l),
(170,608,l,{
"Letterink-NibData" = {
AngleInDegrees = 90;
};
}),
(516,608,l),
(516,686,l,{
"Letterink-NibData" = {
AngleInDegrees = 270;
};
}),
(88,686,l,{
"Letterink-NibData" = {
AngleInDegrees = 180;
};
}),
(88,-1,l,{
"Letterink-NibData" = {
AngleInDegrees = 90;
};
})
);
}
);
width = 510;
},
{
anchors = (
{
name = bottom;
pos = (295,0);
},
{
name = top;
pos = (297,684);
}
);
layerId = "49C16FD3-6177-408B-A733-AEB3898BB77C";
shapes = (
{
closed = 1;
nodes = (
(135,1,l),
(135,337,l,{
"Letterink-NibData" = {
AngleInDegrees = 90;
};
}),
(432,337,l),
(432,372,l,{
"Letterink-NibData" = {
AngleInDegrees = 270;
};
}),
(135,372,l),
(135,648,l,{
"Letterink-NibData" = {
AngleInDegrees = 90;
};
}),
(504,648,l),
(504,685,l,{
"Letterink-NibData" = {
AngleInDegrees = 270;
};
}),
(94,685,l,{
"Letterink-NibData" = {
AngleInDegrees = 180;
};
}),
(94,1,l,{
"Letterink-NibData" = {
AngleInDegrees = 90;
};
})
);
}
);
width = 521;
},
{
anchors = (
{
name = bottom;
pos = (307,-11);
},
{
name = top;
pos = (309,684);
}
);
layerId = m004;
shapes = (
{
closed = 1;
nodes = (
(240,1,l),
(239,263,l,{
"Letterink-NibData" = {
AngleInDegrees = "90";
};
}),
(459,263,l),
(459,411,l,{
"Letterink-NibData" = {
AngleInDegrees = "270";
};
}),
(239,411,l),
(239,536,l,{
"Letterink-NibData" = {
AngleInDegrees = "90";
};
}),
(545,536,l),
(545,684,l,{
"Letterink-NibData" = {
AngleInDegrees = "270";
};
}),
(73,684,l,{
"Letterink-NibData" = {
AngleInDegrees = "180";
};
}),
(73,1,l,{
"Letterink-NibData" = {
AngleInDegrees = "90";
};
})
);
}
);
width = 524;
}
);
metricLeft = N.ss01;
userData = {
position = 95;
width = 61;
};
},
{
glyphname = F.swsh;
kernLeft = E.swsh;
kernRight = F;
layers = (
{
anchors = (
{
name = bottom;
pos = (344,0);
},
{
name = top;
pos = (338,684);
}
);
hints = (
{
name = _corner.caps_swash;
origin = (1,3);
type = Corner;
}
);
layerId = "0CAF3BED-C4AC-4024-B3E1-4C69D1EF7EC0";
shapes = (
{
closed = 1;
nodes = (
(235,-1,l),
(235,324,l,{
"Letterink-NibData" = {
AngleInDegrees = 90;
};
}),
(484,324,l),
(484,400,l,{
"Letterink-NibData" = {
AngleInDegrees = 270;
};
}),
(235,400,l),
(235,559,l,{
"Letterink-NibData" = {
AngleInDegrees = 270;
};
}),
(152,559,l,{
"Letterink-NibData" = {
AngleInDegrees = 180;
};
}),
(152,-1,l,{
"Letterink-NibData" = {
AngleInDegrees = 90;
};
})
);
},
{
closed = 1;
nodes = (
(126,608,l,{
"Letterink-NibData" = {
AngleInDegrees = 90;
};
}),
(580,608,l),
(580,684,l,{
"Letterink-NibData" = {
AngleInDegrees = 270;
};
}),
(126,684,l,{
"Letterink-NibData" = {
AngleInDegrees = 180;
};
})
);
}
);
width = 624;
},
{
anchors = (
{
name = bottom;
pos = (329,0);
},
{
name = top;
pos = (325,684);
}
);
hints = (
{
name = _corner.caps_swash;
origin = (1,3);
type = Corner;
}
);
layerId = "49C16FD3-6177-408B-A733-AEB3898BB77C";
shapes = (
{
closed = 1;
nodes = (
(185,0,l),
(185,345,l,{
"Letterink-NibData" = {
AngleInDegrees = 90;
};
}),
(453,345,l),
(453,381,l,{
"Letterink-NibData" = {
AngleInDegrees = 270;
};
}),
(185,381,l),
(185,570,l,{
"Letterink-NibData" = {
AngleInDegrees = 270;
};
}),
(147,570,l,{
"Letterink-NibData" = {
AngleInDegrees = 180;
};
}),
(147,0,l,{
"Letterink-NibData" = {
AngleInDegrees = 90;
};
})
);
},
{
closed = 1;
nodes = (
(114,648,l,{
"Letterink-NibData" = {
AngleInDegrees = 90;
};
}),
(557,648,l),
(557,684,l,{
"Letterink-NibData" = {
AngleInDegrees = 270;
};
}),
(114,684,l,{
"Letterink-NibData" = {
AngleInDegrees = 180;
};
})
);
}
);
width = 597;
},
{
anchors = (
{
name = bottom;
pos = (406,-4);
},
{
name = top;
pos = (409,684);
}
);
hints = (
{
name = _corner.caps_swash;
origin = (1,3);
type = Corner;
}
);
layerId = m004;
shapes = (
{
closed = 1;
nodes = (
(322,0,l),
(320,263,l,{
"Letterink-NibData" = {
AngleInDegrees = "90";
};
}),
(540,263,l),
(540,411,l,{
"Letterink-NibData" = {
AngleInDegrees = "270";
};
}),
(320,411,l),
(320,500,l,{
"Letterink-NibData" = {
AngleInDegrees = "90";
};
}),
(154,499,l),
(155,0,l,{
"Letterink-NibData" = {
AngleInDegrees = "90";
};
})
);
},
{
closed = 1;
nodes = (
(154,536,l),
(626,536,l),
(626,684,l,{
"Letterink-NibData" = {
AngleInDegrees = "270";
};
}),
(154,684,l,{
"Letterink-NibData" = {
AngleInDegrees = "180";
};
})
);
}
);
width = 689;
}
);
metricLeft = E.swsh;
metricRight = E;
userData = {
position = 129;
width = 61;
};
},
{
glyphname = G;
kernLeft = O;
kernRight = O;
layers = (
{
anchors = (
{
name = bottom;
pos = (374,-9);
},
{
name = top;
pos = (374,689);
}
);
background = {
shapes = (
{
closed = 1;
nodes = (
(577,-25,o),
(723,126,o),
(723,326,cs),
(723,355,ls),
(723,548,o),
(571,702,o),
(381,702,cs,{
"Letterink-NibData" = {
AngleInDegrees = "270";
};
}),
(191,702,o),
(40,548,o),
(40,355,cs,{
"Letterink-NibData" = {
AngleInDegrees = "180";
};
}),
(40,326,ls,{
"Letterink-NibData" = {
AngleInDegrees = "180";
};
}),
(40,126,o),
(184,-19,o),
(385,-22,cs,{
"Letterink-NibData" = {
AngleInDegrees = "90.89517371732774";
};
})
);
},
{
closed = 1;
nodes = (
(234,54,o),
(122,170,o),
(122,326,cs),
(122,355,ls),
(122,504,o),
(236,626,o),
(380,626,cs,{
"Letterink-NibData" = {
AngleInDegrees = "90";
};
}),
(526,626,o),
(641,504,o),
(641,355,cs,{
"Letterink-NibData" = {
AngleInDegrees = "180";
};
}),
(641,326,ls,{
"Letterink-NibData" = {
AngleInDegrees = "180";
};
}),
(641,170,o),
(529,54,o),
(382,54,cs,{
"Letterink-NibData" = {
AngleInDegrees = "270";
};
})
);
}
);
};
layerId = "0CAF3BED-C4AC-4024-B3E1-4C69D1EF7EC0";
shapes = (
{
closed = 1;
nodes = (
(477,454,l),
(499,439,o),
(522,434,o),
(540,434,cs),
(594,434,o),
(644,477,o),
(644,541,cs),
(644,654,o),
(522,703,o),
(388,703,cs),
(201,703,o),
(40,559,o),
(40,339,cs),
(40,128,o),
(191,-19,o),
(392,-19,cs),
(590,-19,o),
(694,137,o),
(689,305,cs),
(688,342,l),
(376,342,l),
(376,272,l),
(651,272,l),
(613,303,l),
(616,158,o),
(543,55,o),
(392,55,cs),
(237,55,o),
(120,164,o),
(120,339,cs),
(120,511,o),
(241,627,o),
(388,627,cs),
(519,627,o),
(564,575,o),
(564,541,cs),
(564,527,o),
(556,508,o),
(540,508,cs),
(534,508,o),
(525,509,o),
(517,514,c)
);
}
);
width = 728;
},
{
anchors = (
{
name = bottom;
pos = (389,0);
},
{
name = top;
pos = (387,688);
}
);
background = {
shapes = (
{
closed = 1;
nodes = (
(590,-14,o),
(732,131,o),
(732,331,cs),
(732,350,ls),
(732,550,o),
(584,702,o),
(390,702,cs,{
"Letterink-NibData" = {
AngleInDegrees = "270";
};
}),
(196,702,o),
(50,551,o),
(50,350,cs,{
"Letterink-NibData" = {
AngleInDegrees = "180";
};
}),
(50,331,ls,{
"Letterink-NibData" = {
AngleInDegrees = "180";
};
}),
(50,133,o),
(197,-14,o),
(394,-14,cs,{
"Letterink-NibData" = {
AngleInDegrees = "90";
};
})
);
},
{
closed = 1;
nodes = (
(220,24,o),
(92,156,o),
(92,331,cs),
(92,350,ls),
(92,526,o),
(221,662,o),
(389,662,cs,{
"Letterink-NibData" = {
AngleInDegrees = "90";
};
}),
(558,662,o),
(690,526,o),
(690,350,cs,{
"Letterink-NibData" = {
AngleInDegrees = "180";
};
}),
(690,331,ls,{
"Letterink-NibData" = {
AngleInDegrees = "180";
};
}),
(690,156,o),
(561,24,o),
(391,24,cs,{
"Letterink-NibData" = {
AngleInDegrees = "270";
};
})
);
}
);
};
layerId = "49C16FD3-6177-408B-A733-AEB3898BB77C";
shapes = (
{
closed = 1;
nodes = (
(505,468,l),
(524,454,o),
(544,451,o),
(559,451,cs),
(600,451,o),
(641,489,o),
(641,543,cs),
(641,625,o),
(541,701,o),
(387,701,cs),
(205,701,o),
(52,558,o),
(52,340,cs),
(52,128,o),
(191,-14,o),
(395,-14,cs),
(575,-14,o),
(696,117,o),
(696,311,cs),
(696,330,l),
(406,330,l),
(406,292,l),
(678,292,l),
(658,311,l),
(653,145,o),
(557,25,o),
(395,25,cs),
(208,25,o),
(90,153,o),
(90,340,cs),
(90,531,o),
(221,663,o),
(387,663,cs),
(531,663,o),
(602,590,o),
(603,543,cs),
(604,519,o),
(588,490,o),
(559,490,cs),
(548,490,o),
(536,493,o),
(527,499,c)
);
}
);
width = 747;
},
{
anchors = (
{
name = bottom;
pos = (392,-35);
},
{
name = top;
pos = (402,683);
}
);
associatedMasterId = "49C16FD3-6177-408B-A733-AEB3898BB77C";
layerId = "D0E3D1AC-81E4-4FC2-A1B9-BDF5A86A417E";
name = "3 Jan 22, 15:37";
shapes = (
{
closed = 1;
nodes = (
(537,-20,o),
(678,85,o),
(678,253,c),
(678,296,l,{
"Letterink-NibData" = {
AngleInDegrees = 270;
};
}),
(636,296,l,{
"Letterink-NibData" = {
AngleInDegrees = 180;
};
}),
(636,251,l,{
"Letterink-NibData" = {
AngleInDegrees = 180;
};
}),
(636,124,o),
(523,20,o),
(392,20,cs,{
"Letterink-NibData" = {
AngleInDegrees = 270;
};
}),
(227,20,o),
(103,157,o),
(103,329,cs),
(103,504,o),
(232,658,o),
(402,658,cs,{
"Letterink-NibData" = {
AngleInDegrees = 90;
};
}),
(466,658,o),
(587,637,o),
(587,563,cs,{
"Letterink-NibData" = {
AngleInDegrees = 180;
};
}),
(587,537,o),
(570,514,o),
(547,514,cs,{
"Letterink-NibData" = {
AngleInDegrees = 270;
};
}),
(537,514,o),
(529,518,o),
(524,524,c,{
"Letterink-NibData" = {
AngleInDegrees = 218.23383;
};
}),
(498,491,l,{
"Letterink-NibData" = {
AngleInDegrees = 138.36646;
};
}),
(506,482,o),
(524,473,o),
(546,473,cs,{
"Letterink-NibData" = {
AngleInDegrees = 90;
};
}),
(594,473,o),
(628,509,o),
(628,563,cs),
(628,669,o),
(486,698,o),
(401,698,cs,{
"Letterink-NibData" = {
AngleInDegrees = 270;
};
}),
(203,698,o),
(61,531,o),
(61,330,cs,{
"Letterink-NibData" = {
AngleInDegrees = 180;
};
}),
(61,138,o),
(198,-20,o),
(392,-20,cs,{
"Letterink-NibData" = {
AngleInDegrees = 90;
};
})
);
},
{
closed = 1;
nodes = (
(678,293,l),
(678,335,l,{
"Letterink-NibData" = {
AngleInDegrees = 270;
};
}),
(387,335,l,{
"Letterink-NibData" = {
AngleInDegrees = 180;
};
}),
(387,293,l,{
"Letterink-NibData" = {
AngleInDegrees = 90;
};
})
);
}
);
width = 735;
},
{
anchors = (
{
name = bottom;
pos = (390,-16);
},
{
name = top;
pos = (393,684);
}
);
associatedMasterId = "0CAF3BED-C4AC-4024-B3E1-4C69D1EF7EC0";
layerId = "801CC91F-0C96-44A6-9720-FE52325A0B43";
name = "3 Jan 22, 15:45";
shapes = (
{
closed = 1;
nodes = (
(541,-13,o),
(683,104,o),
(683,271,cs),
(683,319,l,{
"Letterink-NibData" = {
AngleInDegrees = 270;
};
}),
(600,319,l,{
"Letterink-NibData" = {
AngleInDegrees = 178.85424;
};
}),
(601,269,l,{
"Letterink-NibData" = {
AngleInDegrees = 180.96286;
};
}),
(599,150,o),
(504,63,o),
(390,63,cs,{
"Letterink-NibData" = {
AngleInDegrees = 270;
};
}),
(245,63,o),
(135,176,o),
(135,342,cs),
(135,497,o),
(245,620,o),
(399,620,cs,{
"Letterink-NibData" = {
AngleInDegrees = 90;
};
}),
(456,620,o),
(558,599,o),
(558,544,cs,{
"Letterink-NibData" = {
AngleInDegrees = 180;
};
}),
(558,530,o),
(551,518,o),
(537,517,cs,{
"Letterink-NibData" = {
AngleInDegrees = 264.28941;
};
}),
(527,516,o),
(517,523,o),
(511,528,c,{
"Letterink-NibData" = {
AngleInDegrees = 218.90414;
};
}),
(465,471,l,{
"Letterink-NibData" = {
AngleInDegrees = 136.54816;
};
}),
(483,452,o),
(511,442,o),
(536,442,cs,{
"Letterink-NibData" = {
AngleInDegrees = 90;
};
}),
(591,442,o),
(635,488,o),
(635,547,cs),
(635,656,o),
(481,696,o),
(398,696,cs,{
"Letterink-NibData" = {
AngleInDegrees = 270;
};
}),
(205,696,o),
(53,539,o),
(53,343,cs,{
"Letterink-NibData" = {
AngleInDegrees = 180;
};
}),
(53,141,o),
(196,-13,o),
(390,-13,cs,{
"Letterink-NibData" = {
AngleInDegrees = 90;
};
})
);
},
{
closed = 1;
nodes = (
(683,280,l),
(683,356,l,{
"Letterink-NibData" = {
AngleInDegrees = 270;
};
}),
(364,356,l,{
"Letterink-NibData" = {
AngleInDegrees = 180;
};
}),
(364,280,l,{
"Letterink-NibData" = {
AngleInDegrees = 90;
};
})
);
}
);
width = 734;
},
{
anchors = (
{
name = bottom;
pos = (390,-16);
},
{
name = top;
pos = (393,684);
}
);
associatedMasterId = "0CAF3BED-C4AC-4024-B3E1-4C69D1EF7EC0";
layerId = "F3CD14B1-1EDD-434D-B368-A4692BE06C00";
name = "5 Jan 22, 08:08";
shapes = (
{
attr = {
strokeHeight = 74;
strokeWidth = 80;
};
closed = 0;
nodes = (
(515,478,l,{
"Letterink-NibData" = {
AngleInDegrees = 116.56505;
};
}),
(525,473,o),
(534,471,o),
(543,471,cs,{
"Letterink-NibData" = {
AngleInDegrees = 90;
};
}),
(587,471,o),
(608,511,o),
(608,546,cs),
(608,617,o),
(519,674,o),
(391,668,cs,{
"Letterink-NibData" = {
AngleInDegrees = 267.25739;
};
}),
(224,660,o),
(90,522,o),
(90,334,cs,{
"Letterink-NibData" = {
AngleInDegrees = 180;
};
}),
(90,144,o),
(227,4,o),
(408,15,cs,{
"Letterink-NibData" = {
AngleInDegrees = 86.30861;
};
}),
(563,25,o),
(648,137,o),
(648,281,c,{
"Letterink-NibData" = {
AngleInDegrees = 358.26429;
};
}),
(647,314,l,{
"Letterink-NibData" = {
AngleInDegrees = 270.21221;
};
}),
(377,315,l,{
"Letterink-NibData" = {
AngleInDegrees = 270.21221;
};
})
);
}
);
width = 734;
},
{
anchors = (
{
name = bottom;
pos = (392,-35);
},
{
name = top;
pos = (402,683);
}
);
associatedMasterId = "49C16FD3-6177-408B-A733-AEB3898BB77C";
background = {
shapes = (
{
closed = 1;
nodes = (
(540,-19,o),
(678,85,o),
(678,253,c),
(678,296,l),
(636,296,l),
(636,251,l),
(636,124,o),
(523,20,o),
(392,20,cs),
(227,20,o),
(103,157,o),
(103,329,cs),
(103,504,o),
(232,658,o),
(402,658,cs),
(466,658,o),
(587,637,o),
(587,563,cs),
(587,537,o),
(570,514,o),
(547,514,cs),
(537,514,o),
(529,518,o),
(524,524,c),
(498,491,l),
(506,482,o),
(524,473,o),
(546,473,cs),
(594,473,o),
(628,509,o),
(628,563,cs),
(628,669,o),
(486,698,o),
(401,698,cs),
(203,698,o),
(61,531,o),
(61,330,cs),
(61,138,o),
(198,-21,o),
(392,-20,cs)
);
}
);
};
layerId = "F0F46AC2-3B0D-4489-B32E-B81CEA10F2A9";
name = "5 Jan 22, 08:18";
shapes = (
{
attr = {
strokeHeight = 38;
strokeWidth = 42;
};
closed = 0;
nodes = (
(518,484,l,{
"Letterink-NibData" = {
AngleInDegrees = 116.56505;
};
}),
(528,479,o),
(537,477,o),
(547,477,cs,{
"Letterink-NibData" = {
AngleInDegrees = 90;
};
}),
(591,477,o),
(613,519,o),
(613,556,cs),
(613,630,o),
(522,690,o),
(391,683,cs,{
"Letterink-NibData" = {
AngleInDegrees = 267.30572;
};
}),
(221,675,o),
(84,530,o),
(84,334,cs,{
"Letterink-NibData" = {
AngleInDegrees = 180;
};
}),
(84,135,o),
(224,-12,o),
(404,0,cs,{
"Letterink-NibData" = {
AngleInDegrees = 86.48932;
};
}),
(567,10,o),
(654,127,o),
(654,278,c,{
"Letterink-NibData" = {
AngleInDegrees = 358.36342;
};
}),
(653,313,l,{
"Letterink-NibData" = {
AngleInDegrees = 270.20759;
};
}),
(377,314,l,{
"Letterink-NibData" = {
AngleInDegrees = 270.20759;
};
})
);
}
);
width = 735;
},
{
anchors = (
{
name = bottom;
pos = (385,-10);
},
{
name = top;
pos = (385,703);
}
);
background = {
shapes = (
{
closed = 1;
nodes = (
(593,-25,o),
(739,126,o),
(739,326,cs),
(739,355,ls),
(739,548,o),
(587,702,o),
(397,702,cs,{
"Letterink-NibData" = {
AngleInDegrees = "270";
};
}),
(207,702,o),
(56,548,o),
(56,355,cs,{
"Letterink-NibData" = {
AngleInDegrees = "180";
};
}),
(56,326,ls,{
"Letterink-NibData" = {
AngleInDegrees = "180";
};
}),
(56,126,o),
(200,-19,o),
(401,-22,cs,{
"Letterink-NibData" = {
AngleInDegrees = "90.89517371732774";
};
})
);
},
{
closed = 1;
nodes = (
(250,54,o),
(138,170,o),
(138,326,cs),
(138,355,ls),
(138,504,o),
(252,626,o),
(396,626,cs,{
"Letterink-NibData" = {
AngleInDegrees = "90";
};
}),
(542,626,o),
(657,504,o),
(657,355,cs,{
"Letterink-NibData" = {
AngleInDegrees = "180";
};
}),
(657,326,ls,{
"Letterink-NibData" = {
AngleInDegrees = "180";
};
}),
(657,170,o),
(545,54,o),
(398,54,cs,{
"Letterink-NibData" = {
AngleInDegrees = "270";
};
})
);
}
);
};
layerId = m004;
shapes = (
{
closed = 1;
nodes = (
(424,419,l),
(459,395,o),
(491,379,o),
(526,383,cs),
(602,379,o),
(671,442,o),
(671,523,cs),
(671,628,o),
(557,711,o),
(402,711,cs),
(185,711,o),
(33,550,o),
(33,335,cs),
(33,122,o),
(182,-28,o),
(385,-28,cs),
(577,-28,o),
(712,106,o),
(715,309,c),
(713,362,l),
(386,362,l),
(386,224,l),
(638,224,l),
(563,285,l),
(566,184,o),
(504,120,o),
(398,120,cs),
(277,120,o),
(198,203,o),
(198,333,cs),
(198,458,o),
(270,563,o),
(407,563,cs),
(447,563,o),
(489,554,o),
(509,541,cs),
(523,532,o),
(531,518,o),
(527,510,cs),
(523,502,o),
(507,502,o),
(493,514,c)
);
}
);
width = 747;
},
{
anchors = (
{
name = bottom;
pos = (390,-16);
},
{
name = top;
pos = (393,684);
}
);
associatedMasterId = m004;
layerId = "0E9EACE4-EA9D-4B48-AA91-148DF9A2A64E";
name = "3 Jan 22, 15:45";
shapes = (
{
closed = 1;
nodes = (
(541,-13,o),
(683,104,o),
(683,271,cs),
(683,319,l,{
"Letterink-NibData" = {
AngleInDegrees = 270;
};
}),
(600,319,l,{
"Letterink-NibData" = {
AngleInDegrees = 178.85424;
};
}),
(601,269,l,{
"Letterink-NibData" = {
AngleInDegrees = 180.96286;
};
}),
(599,150,o),
(504,63,o),
(390,63,cs,{
"Letterink-NibData" = {
AngleInDegrees = 270;
};
}),
(245,63,o),
(135,176,o),
(135,342,cs),
(135,497,o),
(245,620,o),
(399,620,cs,{
"Letterink-NibData" = {
AngleInDegrees = 90;
};
}),
(456,620,o),
(558,599,o),
(558,544,cs,{
"Letterink-NibData" = {
AngleInDegrees = 180;
};
}),
(558,530,o),
(551,518,o),
(537,517,cs,{
"Letterink-NibData" = {
AngleInDegrees = 264.28941;
};
}),
(527,516,o),
(517,523,o),
(511,528,c,{
"Letterink-NibData" = {
AngleInDegrees = 218.90414;
};
}),
(465,471,l,{
"Letterink-NibData" = {
AngleInDegrees = 136.54816;
};
}),
(483,452,o),
(511,442,o),
(536,442,cs,{
"Letterink-NibData" = {
AngleInDegrees = 90;
};
}),
(591,442,o),
(635,488,o),
(635,547,cs),
(635,656,o),
(481,696,o),
(398,696,cs,{
"Letterink-NibData" = {
AngleInDegrees = 270;
};
}),
(205,696,o),
(53,539,o),
(53,343,cs,{
"Letterink-NibData" = {
AngleInDegrees = 180;
};
}),
(53,141,o),
(196,-13,o),
(390,-13,cs,{
"Letterink-NibData" = {
AngleInDegrees = 90;
};
})
);
},
{
closed = 1;
nodes = (
(683,280,l),
(683,356,l,{
"Letterink-NibData" = {
AngleInDegrees = 270;
};
}),
(364,356,l,{
"Letterink-NibData" = {
AngleInDegrees = 180;
};
}),
(364,280,l,{
"Letterink-NibData" = {
AngleInDegrees = 90;
};
})
);
}
);
width = 734;
},
{
anchors = (
{
name = bottom;
pos = (390,-16);
},
{
name = top;
pos = (393,684);
}
);
associatedMasterId = m004;
layerId = "E2560365-B553-4320-8997-4873FFE2CB5E";
name = "5 Jan 22, 08:08";
shapes = (
{
attr = {
strokeHeight = 74;
strokeWidth = 80;
};
closed = 0;
nodes = (
(515,478,l,{
"Letterink-NibData" = {
AngleInDegrees = 116.56505;
};
}),
(525,473,o),
(534,471,o),
(543,471,cs,{
"Letterink-NibData" = {
AngleInDegrees = 90;
};
}),
(587,471,o),
(608,511,o),
(608,546,cs),
(608,617,o),
(519,674,o),
(391,668,cs,{
"Letterink-NibData" = {
AngleInDegrees = 267.25739;
};
}),
(224,660,o),
(90,522,o),
(90,334,cs,{
"Letterink-NibData" = {
AngleInDegrees = 180;
};
}),
(90,144,o),
(227,4,o),
(408,15,cs,{
"Letterink-NibData" = {
AngleInDegrees = 86.30861;
};
}),
(563,25,o),
(648,137,o),
(648,281,c,{
"Letterink-NibData" = {
AngleInDegrees = 358.26429;
};
}),
(647,314,l,{
"Letterink-NibData" = {
AngleInDegrees = 270.21221;
};
}),
(377,315,l,{
"Letterink-NibData" = {
AngleInDegrees = 270.21221;
};
})
);
}
);
width = 734;
}
);
metricLeft = O;
metricRight = "=O*.975";
note = "Bold: 98/95.5%";
unicode = 71;
userData = {
position = 593;
width = 57;
};
},
{
glyphname = G.ss01;
kernLeft = O;
kernRight = O;
layers = (
{
anchors = (
{
name = bottom;
pos = (385,-6);
},
{
name = top;
pos = (382,691);
}
);
background = {
shapes = (
{
closed = 1;
nodes = (
(574,-25,o),
(720,126,o),
(720,326,cs),
(720,355,ls),
(720,548,o),
(568,702,o),
(378,702,cs,{
"Letterink-NibData" = {
AngleInDegrees = "270";
};
}),
(188,702,o),
(37,548,o),
(37,355,cs,{
"Letterink-NibData" = {
AngleInDegrees = "180";
};
}),
(37,326,ls,{
"Letterink-NibData" = {
AngleInDegrees = "180";
};
}),
(37,126,o),
(181,-19,o),
(382,-22,cs,{
"Letterink-NibData" = {
AngleInDegrees = "90.89517371732774";
};
})
);
},
{
closed = 1;
nodes = (
(231,54,o),
(119,170,o),
(119,326,cs),
(119,355,ls),
(119,504,o),
(233,626,o),
(377,626,cs,{
"Letterink-NibData" = {
AngleInDegrees = "90";
};
}),
(523,626,o),
(638,504,o),
(638,355,cs,{
"Letterink-NibData" = {
AngleInDegrees = "180";
};
}),
(638,326,ls,{
"Letterink-NibData" = {
AngleInDegrees = "180";
};
}),
(638,170,o),
(526,54,o),
(379,54,cs,{
"Letterink-NibData" = {
AngleInDegrees = "270";
};
})
);
}
);
};
layerId = "0CAF3BED-C4AC-4024-B3E1-4C69D1EF7EC0";
shapes = (
{
closed = 1;
nodes = (
(664,535,l),
(634,639,o),
(522,709,o),
(388,709,cs),
(186,709,o),
(40,556,o),
(40,344,cs),
(40,133,o),
(183,-17,o),
(385,-17,cs),
(575,-17,o),
(701,117,o),
(701,320,cs),
(701,358,l),
(393,358,l),
(393,282,l),
(663,282,l),
(625,320,l),
(625,162,o),
(531,59,o),
(387,59,cs),
(231,59,o),
(120,178,o),
(120,345,cs),
(120,512,o),
(233,633,o),
(389,633,cs),
(488,633,o),
(570,584,o),
(592,513,c)
);
}
);
width = 741;
},
{
anchors = (
{
name = bottom;
pos = (389,-2);
},
{
name = top;
pos = (396,694);
}
);
background = {
shapes = (
{
closed = 1;
nodes = (
(585,-14,o),
(727,131,o),
(727,331,cs),
(727,350,ls),
(727,550,o),
(579,702,o),
(385,702,cs,{
"Letterink-NibData" = {
AngleInDegrees = "270";
};
}),
(191,702,o),
(45,551,o),
(45,350,cs,{
"Letterink-NibData" = {
AngleInDegrees = "180";
};
}),
(45,331,ls,{
"Letterink-NibData" = {
AngleInDegrees = "180";
};
}),
(45,133,o),
(192,-14,o),
(389,-14,cs,{
"Letterink-NibData" = {
AngleInDegrees = "90";
};
})
);
},
{
closed = 1;
nodes = (
(215,24,o),
(87,156,o),
(87,331,cs),
(87,350,ls),
(87,526,o),
(216,662,o),
(384,662,cs,{
"Letterink-NibData" = {
AngleInDegrees = "90";
};
}),
(553,662,o),
(685,526,o),
(685,350,cs,{
"Letterink-NibData" = {
AngleInDegrees = "180";
};
}),
(685,331,ls,{
"Letterink-NibData" = {
AngleInDegrees = "180";
};
}),
(685,156,o),
(556,24,o),
(386,24,cs,{
"Letterink-NibData" = {
AngleInDegrees = "270";
};
})
);
}
);
};
layerId = "49C16FD3-6177-408B-A733-AEB3898BB77C";
shapes = (
{
closed = 1;
nodes = (
(661,535,l),
(632,625,o),
(533,699,o),
(396,699,cs),
(203,699,o),
(52,557,o),
(52,339,cs),
(52,132,o),
(196,-12,o),
(394,-12,cs),
(577,-12,o),
(698,120,o),
(698,319,cs),
(698,336,l),
(398,336,l),
(398,303,l),
(682,303,l),
(665,319,l),
(665,141,o),
(555,22,o),
(394,22,cs),
(219,22,o),
(90,152,o),
(90,339,cs),
(90,535,o),
(222,665,o),
(396,665,cs),
(525,665,o),
(607,595,o),
(629,524,c)
);
}
);
width = 750;
},
{
anchors = (
{
name = bottom;
pos = (386,0);
},
{
name = top;
pos = (401,684);
}
);
associatedMasterId = "49C16FD3-6177-408B-A733-AEB3898BB77C";
layerId = "96951EB1-18FB-4FDF-9014-B6300BAB0AB6";
name = "3 Jan 22, 15:40";
shapes = (
{
closed = 1;
nodes = (
(542,-15,o),
(675,97,o),
(675,285,cs),
(675,343,l,{
"Letterink-NibData" = {
AngleInDegrees = 270;
};
}),
(633,343,l,{
"Letterink-NibData" = {
AngleInDegrees = 180;
};
}),
(633,273,ls,{
"Letterink-NibData" = {
AngleInDegrees = 180;
};
}),
(633,127,o),
(512,25,o),
(391,25,cs,{
"Letterink-NibData" = {
AngleInDegrees = 270;
};
}),
(209,25,o),
(104,154,o),
(104,331,cs),
(104,508,o),
(231,656,o),
(401,656,cs,{
"Letterink-NibData" = {
AngleInDegrees = 90;
};
}),
(470,656,o),
(577,625,o),
(584,557,c,{
"Letterink-NibData" = {
AngleInDegrees = 88.60282;
};
}),
(625,558,l,{
"Letterink-NibData" = {
AngleInDegrees = 356.1432;
};
}),
(619,647,o),
(507,696,o),
(403,696,cs,{
"Letterink-NibData" = {
AngleInDegrees = 270;
};
}),
(207,696,o),
(62,537,o),
(62,332,cs,{
"Letterink-NibData" = {
AngleInDegrees = 180;
};
}),
(62,131,o),
(179,-15,o),
(387,-15,cs,{
"Letterink-NibData" = {
AngleInDegrees = 90;
};
})
);
},
{
closed = 1;
nodes = (
(675,303,l),
(675,343,l,{
"Letterink-NibData" = {
AngleInDegrees = 270;
};
}),
(384,343,l,{
"Letterink-NibData" = {
AngleInDegrees = 180;
};
}),
(384,303,l,{
"Letterink-NibData" = {
AngleInDegrees = 90;
};
})
);
}
);
width = 730;
},
{
anchors = (
{
name = bottom;
pos = (387,0);
},
{
name = top;
pos = (401,684);
}
);
associatedMasterId = "0CAF3BED-C4AC-4024-B3E1-4C69D1EF7EC0";
layerId = "B969E5E4-86DE-47F2-A424-5DC87FFFE71B";
name = "5 Jan 22, 08:26";
shapes = (
{
attr = {
strokeHeight = 74;
strokeWidth = 80;
};
closed = 0;
nodes = (
(618,528,ls,{
"Letterink-NibData" = {
AngleInDegrees = 356.63354;
};
}),
(613,613,o),
(519,675,o),
(391,669,cs,{
"Letterink-NibData" = {
AngleInDegrees = 267.25739;
};
}),
(224,661,o),
(90,523,o),
(90,331,cs,{
"Letterink-NibData" = {
AngleInDegrees = 180;
};
}),
(90,145,o),
(222,15,o),
(403,15,c,{
"Letterink-NibData" = {
AngleInDegrees = 86.42367;
};
}),
(563,25,o),
(648,137,o),
(648,281,c,{
"Letterink-NibData" = {
AngleInDegrees = 358.26429;
};
}),
(647,314,l,{
"Letterink-NibData" = {
AngleInDegrees = 270.21221;
};
}),
(377,315,l,{
"Letterink-NibData" = {
AngleInDegrees = 270.21221;
};
})
);
}
);
width = 730;
},
{
anchors = (
{
name = bottom;
pos = (387,-27);
},
{
name = top;
pos = (387,721);
}
);
associatedMasterId = "49C16FD3-6177-408B-A733-AEB3898BB77C";
background = {
shapes = (
{
closed = 1;
nodes = (
(542,-15,o),
(675,97,o),
(675,285,cs),
(675,343,l),
(633,343,l),
(633,273,ls),
(633,127,o),
(512,25,o),
(391,25,cs),
(209,25,o),
(104,154,o),
(104,331,cs),
(104,508,o),
(231,656,o),
(401,656,cs),
(470,656,o),
(577,625,o),
(584,557,c),
(625,558,l),
(619,647,o),
(507,696,o),
(403,696,cs),
(207,696,o),
(62,537,o),
(62,332,cs),
(62,131,o),
(179,-15,o),
(387,-15,cs)
);
},
{
closed = 1;
nodes = (
(675,303,l),
(675,343,l),
(384,343,l),
(384,303,l)
);
}
);
};
layerId = "AFEECE5E-BFEE-4508-863A-E5AFB845FDE7";
name = "5 Jan 22, 08:33";
shapes = (
{
attr = {
strokeHeight = 38;
strokeWidth = 42;
};
closed = 0;
nodes = (
(623,537,ls,{
"Letterink-NibData" = {
AngleInDegrees = 356.78451;
};
}),
(618,626,o),
(522,691,o),
(391,684,cs,{
"Letterink-NibData" = {
AngleInDegrees = 267.30572;
};
}),
(221,676,o),
(84,532,o),
(84,330,cs,{
"Letterink-NibData" = {
AngleInDegrees = 180;
};
}),
(84,136,o),
(219,0,o),
(409,0,c,{
"Letterink-NibData" = {
AngleInDegrees = 86.37852;
};
}),
(567,10,o),
(654,127,o),
(654,278,c,{
"Letterink-NibData" = {
AngleInDegrees = 358.36342;
};
}),
(653,313,l,{
"Letterink-NibData" = {
AngleInDegrees = 270.20759;
};
}),
(377,314,l,{
"Letterink-NibData" = {
AngleInDegrees = 270.20759;
};
})
);
}
);
width = 730;
},
{
anchors = (
{
name = bottom;
pos = (379,-12);
},
{
name = top;
pos = (393,698);
}
);
background = {
shapes = (
{
closed = 1;
nodes = (
(590,-25,o),
(736,126,o),
(736,326,cs),
(736,355,ls),
(736,548,o),
(584,702,o),
(394,702,cs,{
"Letterink-NibData" = {
AngleInDegrees = "270";
};
}),
(204,702,o),
(53,548,o),
(53,355,cs,{
"Letterink-NibData" = {
AngleInDegrees = "180";
};
}),
(53,326,ls,{
"Letterink-NibData" = {
AngleInDegrees = "180";
};
}),
(53,126,o),
(197,-19,o),
(398,-22,cs,{
"Letterink-NibData" = {
AngleInDegrees = "90.89517371732774";
};
})
);
},
{
closed = 1;
nodes = (
(247,54,o),
(135,170,o),
(135,326,cs),
(135,355,ls),
(135,504,o),
(249,626,o),
(393,626,cs,{
"Letterink-NibData" = {
AngleInDegrees = "90";
};
}),
(539,626,o),
(654,504,o),
(654,355,cs,{
"Letterink-NibData" = {
AngleInDegrees = "180";
};
}),
(654,326,ls,{
"Letterink-NibData" = {
AngleInDegrees = "180";
};
}),
(654,170,o),
(542,54,o),
(395,54,cs,{
"Letterink-NibData" = {
AngleInDegrees = "270";
};
})
);
}
);
};
layerId = m004;
shapes = (
{
closed = 1;
nodes = (
(684,527,l),
(649,648,o),
(528,713,o),
(395,713,cs),
(188,713,o),
(33,559,o),
(33,340,cs),
(33,118,o),
(184,-31,o),
(385,-31,cs),
(587,-31,o),
(724,116,o),
(724,340,c),
(724,387,l),
(407,387,l),
(407,239,l),
(650,239,l),
(576,313,l),
(576,193,o),
(510,117,o),
(395,117,cs),
(278,117,o),
(198,201,o),
(198,338,cs),
(198,467,o),
(276,565,o),
(399,565,cs),
(478,565,o),
(531,522,o),
(542,485,c)
);
}
);
width = 757;
},
{
anchors = (
{
name = bottom;
pos = (387,0);
},
{
name = top;
pos = (401,684);
}
);
associatedMasterId = m004;
layerId = "2166FA3C-D590-4885-A8B0-B32BF30CBC31";
name = "5 Jan 22, 08:26";
shapes = (
{
attr = {
strokeHeight = 74;
strokeWidth = 80;
};
closed = 0;
nodes = (
(618,528,ls,{
"Letterink-NibData" = {
AngleInDegrees = 356.63354;
};
}),
(613,613,o),
(519,675,o),
(391,669,cs,{
"Letterink-NibData" = {
AngleInDegrees = 267.25739;
};
}),
(224,661,o),
(90,523,o),
(90,331,cs,{
"Letterink-NibData" = {
AngleInDegrees = 180;
};
}),
(90,145,o),
(222,15,o),
(403,15,c,{
"Letterink-NibData" = {
AngleInDegrees = 86.42367;
};
}),
(563,25,o),
(648,137,o),
(648,281,c,{
"Letterink-NibData" = {
AngleInDegrees = 358.26429;
};
}),
(647,314,l,{
"Letterink-NibData" = {
AngleInDegrees = 270.21221;
};
}),
(377,315,l,{
"Letterink-NibData" = {
AngleInDegrees = 270.21221;
};
})
);
}
);
width = 730;
}
);
metricLeft = O;
metricRight = O;
userData = {
position = 593;
width = 57;
};
},
{
glyphname = G.swsh;
kernLeft = O;
kernRight = j;
layers = (
{
layerId = "0CAF3BED-C4AC-4024-B3E1-4C69D1EF7EC0";
shapes = (
{
ref = G;
},
{
closed = 1;
nodes = (
(417,-187,l),
(441,-235,o),
(488,-266,o),
(540,-266,cs),
(611,-266,o),
(678,-216,o),
(678,-110,cs),
(678,342,l),
(601,342,l),
(601,-110,ls),
(601,-156,o),
(580,-190,o),
(540,-190,cs),
(520,-190,o),
(497,-177,o),
(485,-153,c)
);
}
);
width = 728;
},
{
layerId = "49C16FD3-6177-408B-A733-AEB3898BB77C";
shapes = (
{
ref = G;
},
{
closed = 1;
nodes = (
(456,-208,l),
(479,-251,o),
(521,-278,o),
(567,-278,cs),
(631,-278,o),
(690,-232,o),
(690,-137,cs),
(690,318,l),
(651,318,l),
(651,-137,ls),
(651,-198,o),
(615,-236,o),
(567,-236,cs),
(537,-236,o),
(509,-219,o),
(494,-188,c)
);
}
);
width = 747;
},
{
anchors = (
{
name = bottom;
pos = (393,0);
},
{
name = top;
pos = (402,684);
}
);
associatedMasterId = "49C16FD3-6177-408B-A733-AEB3898BB77C";
layerId = "99324C05-2E3B-491C-BB33-A281431388C0";
name = "3 Jan 22, 15:43";
shapes = (
{
closed = 1;
nodes = (
(632,-275,o),
(677,-247,o),
(677,-188,cs),
(677,296,l,{
"Letterink-NibData" = {
AngleInDegrees = 270;
};
}),
(635,296,l,{
"Letterink-NibData" = {
AngleInDegrees = 180;
};
}),
(635,231,l,{
"Letterink-NibData" = {
AngleInDegrees = 189.05072;
};
}),
(617,118,o),
(524,19,o),
(389,19,cs,{
"Letterink-NibData" = {
AngleInDegrees = 270;
};
}),
(229,19,o),
(103,157,o),
(103,331,cs),
(103,504,o),
(226,661,o),
(399,661,cs,{
"Letterink-NibData" = {
AngleInDegrees = 90;
};
}),
(467,661,o),
(588,637,o),
(588,563,cs,{
"Letterink-NibData" = {
AngleInDegrees = 180;
};
}),
(588,537,o),
(571,514,o),
(548,514,cs,{
"Letterink-NibData" = {
AngleInDegrees = 270;
};
}),
(542,514,o),
(535,516,o),
(528,519,c,{
"Letterink-NibData" = {
AngleInDegrees = 218.23383;
};
}),
(502,486,l,{
"Letterink-NibData" = {
AngleInDegrees = 122.73523;
};
}),
(516,477,o),
(531,473,o),
(547,473,cs,{
"Letterink-NibData" = {
AngleInDegrees = 90;
};
}),
(595,473,o),
(629,509,o),
(629,562,cs),
(629,670,o),
(485,701,o),
(402,701,cs,{
"Letterink-NibData" = {
AngleInDegrees = 270;
};
}),
(204,701,o),
(61,530,o),
(61,333,cs,{
"Letterink-NibData" = {
AngleInDegrees = 180;
};
}),
(61,137,o),
(202,-21,o),
(385,-21,cs,{
"Letterink-NibData" = {
AngleInDegrees = 90;
};
}),
(490,-21,o),
(597,31,o),
(635,124,c,{
"Letterink-NibData" = {
AngleInDegrees = 180;
};
}),
(635,-188,l,{
"Letterink-NibData" = {
AngleInDegrees = 186.00901;
};
}),
(633,-207,o),
(619,-229,o),
(592,-229,cs,{
"Letterink-NibData" = {
AngleInDegrees = 270;
};
}),
(579,-229,o),
(569,-224,o),
(562,-217,c,{
"Letterink-NibData" = {
AngleInDegrees = 236.65929;
};
}),
(524,-242,l,{
"Letterink-NibData" = {
AngleInDegrees = 142.69605;
};
}),
(540,-263,o),
(563,-275,o),
(591,-275,cs,{
"Letterink-NibData" = {
AngleInDegrees = 90;
};
})
);
}
);
width = 745;
},
{
anchors = (
{
name = bottom;
pos = (392,-35);
},
{
name = top;
pos = (402,683);
}
);
associatedMasterId = "49C16FD3-6177-408B-A733-AEB3898BB77C";
layerId = "993784D9-67C7-4A50-9317-88BF6374F3F5";
name = "5 Jan 22, 08:42";
shapes = (
{
closed = 1;
nodes = (
(632,-188,l,{
"Letterink-NibData" = {
AngleInDegrees = 186.00901;
};
}),
(630,-207,o),
(616,-229,o),
(589,-229,cs,{
"Letterink-NibData" = {
AngleInDegrees = 270;
};
}),
(576,-229,o),
(566,-224,o),
(559,-217,c,{
"Letterink-NibData" = {
AngleInDegrees = 236.65929;
};
}),
(521,-242,l,{
"Letterink-NibData" = {
AngleInDegrees = 142.69605;
};
}),
(537,-263,o),
(560,-275,o),
(588,-275,cs,{
"Letterink-NibData" = {
AngleInDegrees = 90;
};
}),
(629,-275,o),
(674,-247,o),
(674,-188,cs),
(674,296,l,{
"Letterink-NibData" = {
AngleInDegrees = 270;
};
}),
(632,296,l,{
"Letterink-NibData" = {
AngleInDegrees = 180;
};
})
);
},
{
ref = G;
}
);
width = 745;
},
{
anchors = (
{
name = bottom;
pos = (392,-35);
},
{
name = top;
pos = (402,683);
}
);
associatedMasterId = "49C16FD3-6177-408B-A733-AEB3898BB77C";
hints = (
{
name = _corner.caps_swash;
options = 1;
origin = (0,2);
scale = (-1,1);
type = Corner;
}
);
layerId = "A1B0A753-5F1E-49B0-BC7C-F65043380999";
name = "5 Jan 22, 08:46";
shapes = (
{
closed = 1;
nodes = (
(651,330,l,{
"Letterink-NibData" = {
AngleInDegrees = 270;
};
}),
(651,-154,l),
(693,-154,l,{
"Letterink-NibData" = {
AngleInDegrees = 186.00901;
};
}),
(693,330,l,{
"Letterink-NibData" = {
AngleInDegrees = 180;
};
})
);
},
{
ref = G;
},
{
closed = 0;
nodes = (
(344,-192,l),
(363,-228,o),
(402,-253,o),
(446,-253,cs),
(509,-253,o),
(561,-202,o),
(561,-139,cs),
(561,-139,o),
(561,-139,o),
(561,-138,cs),
(561,308,l)
);
}
);
width = 745;
},
{
anchors = (
{
name = bottom;
pos = (393,-16);
},
{
name = top;
pos = (396,689);
}
);
associatedMasterId = "0CAF3BED-C4AC-4024-B3E1-4C69D1EF7EC0";
layerId = "14C1AB9A-2353-4380-971D-F4E2C0A0EA14";
name = "5 Jan 22, 08:50";
shapes = (
{
closed = 1;
nodes = (
(605,-161,l,{
"Letterink-NibData" = {
AngleInDegrees = 180;
};
}),
(605,-174,o),
(595,-183,o),
(582,-183,cs,{
"Letterink-NibData" = {
AngleInDegrees = 270;
};
}),
(569,-183,o),
(563,-178,o),
(556,-165,c,{
"Letterink-NibData" = {
AngleInDegrees = 235.68491;
};
}),
(493,-208,l,{
"Letterink-NibData" = {
AngleInDegrees = 154.88516;
};
}),
(508,-240,o),
(544,-263,o),
(581,-263,cs,{
"Letterink-NibData" = {
AngleInDegrees = 90;
};
}),
(626,-263,o),
(685,-228,o),
(685,-162,cs),
(685,317,l,{
"Letterink-NibData" = {
AngleInDegrees = 270;
};
}),
(605,317,l,{
"Letterink-NibData" = {
AngleInDegrees = 180;
};
})
);
},
{
attr = {
strokeHeight = 74;
strokeWidth = 80;
};
closed = 0;
nodes = (
(515,478,l,{
"Letterink-NibData" = {
AngleInDegrees = 116.56505;
};
}),
(525,473,o),
(534,471,o),
(543,471,cs,{
"Letterink-NibData" = {
AngleInDegrees = 90;
};
}),
(587,471,o),
(608,511,o),
(608,546,cs),
(608,617,o),
(519,674,o),
(391,668,cs,{
"Letterink-NibData" = {
AngleInDegrees = 267.25739;
};
}),
(224,660,o),
(90,522,o),
(90,334,cs,{
"Letterink-NibData" = {
AngleInDegrees = 180;
};
}),
(90,144,o),
(227,4,o),
(408,15,cs,{
"Letterink-NibData" = {
AngleInDegrees = 86.30861;
};
}),
(563,25,o),
(648,137,o),
(648,281,c,{
"Letterink-NibData" = {
AngleInDegrees = 358.26429;
};
}),
(647,314,l,{
"Letterink-NibData" = {
AngleInDegrees = 270.21221;
};
}),
(377,315,l,{
"Letterink-NibData" = {
AngleInDegrees = 270.21221;
};
})
);
}
);
width = 749;
},
{
layerId = m004;
shapes = (
{
ref = G;
},
{
closed = 1;
nodes = (
(348,-153,l),
(381,-219,o),
(444,-262,o),
(518,-262,cs),
(618,-262,o),
(714,-196,o),
(714,-50,cs),
(714,312,l),
(554,312,l),
(554,-50,ls),
(554,-83,o),
(547,-114,o),
(518,-114,cs),
(508,-114,o),
(489,-105,o),
(480,-87,c)
);
}
);
width = 747;
},
{
anchors = (
{
name = bottom;
pos = (393,-16);
},
{
name = top;
pos = (396,689);
}
);
associatedMasterId = m004;
layerId = "1BDCECD6-6FE7-4C37-9D37-AA6D55EDC2F1";
name = "5 Jan 22, 08:50";
shapes = (
{
closed = 1;
nodes = (
(605,-161,l,{
"Letterink-NibData" = {
AngleInDegrees = 180;
};
}),
(605,-174,o),
(595,-183,o),
(582,-183,cs,{
"Letterink-NibData" = {
AngleInDegrees = 270;
};
}),
(569,-183,o),
(563,-178,o),
(556,-165,c,{
"Letterink-NibData" = {
AngleInDegrees = 235.68491;
};
}),
(493,-208,l,{
"Letterink-NibData" = {
AngleInDegrees = 154.88516;
};
}),
(508,-240,o),
(544,-263,o),
(581,-263,cs,{
"Letterink-NibData" = {
AngleInDegrees = 90;
};
}),
(626,-263,o),
(685,-228,o),
(685,-162,cs),
(685,317,l,{
"Letterink-NibData" = {
AngleInDegrees = 270;
};
}),
(605,317,l,{
"Letterink-NibData" = {
AngleInDegrees = 180;
};
})
);
},
{
attr = {
strokeHeight = 74;
strokeWidth = 80;
};
closed = 0;
nodes = (
(515,478,l,{
"Letterink-NibData" = {
AngleInDegrees = 116.56505;
};
}),
(525,473,o),
(534,471,o),
(543,471,cs,{
"Letterink-NibData" = {
AngleInDegrees = 90;
};
}),
(587,471,o),
(608,511,o),
(608,546,cs),
(608,617,o),
(519,674,o),
(391,668,cs,{
"Letterink-NibData" = {
AngleInDegrees = 267.25739;
};
}),
(224,660,o),
(90,522,o),
(90,334,cs,{
"Letterink-NibData" = {
AngleInDegrees = 180;
};
}),
(90,144,o),
(227,4,o),
(408,15,cs,{
"Letterink-NibData" = {
AngleInDegrees = 86.30861;
};
}),
(563,25,o),
(648,137,o),
(648,281,c,{
"Letterink-NibData" = {
AngleInDegrees = 358.26429;
};
}),
(647,314,l,{
"Letterink-NibData" = {
AngleInDegrees = 270.21221;
};
}),
(377,315,l,{
"Letterink-NibData" = {
AngleInDegrees = 270.21221;
};
})
);
}
);
width = 749;
}
);
metricLeft = O;
metricRight = G;
userData = {
position = 593;
width = 57;
};
},
{
glyphname = H;
kernLeft = E;
layers = (
{
anchors = (
{
name = bottom;
pos = (377,0);
},
{
name = center;
pos = (377,500);
},
{
name = top;
pos = (377,675);
},
{
name = topleft;
pos = (18,684);
}
);
hints = (
{
name = _corner.caps_vert;
origin = (0,9);
type = Corner;
}
);
layerId = "0CAF3BED-C4AC-4024-B3E1-4C69D1EF7EC0";
shapes = (
{
closed = 1;
nodes = (
(194,-1,l),
(194,319,l,{
"Letterink-NibData" = {
AngleInDegrees = 90;
};
}),
(559,319,l,{
"Letterink-NibData" = {
AngleInDegrees = 180;
};
}),
(559,-1,l,{
"Letterink-NibData" = {
AngleInDegrees = 90;
};
}),
(641,-1,l),
(641,686,l,{
"Letterink-NibData" = {
AngleInDegrees = 270;
};
}),
(559,686,l,{
"Letterink-NibData" = {
AngleInDegrees = 180;
};
}),
(559,395,l,{
"Letterink-NibData" = {
AngleInDegrees = 270;
};
}),
(194,395,l),
(194,559,l,{
"Letterink-NibData" = {
AngleInDegrees = 269.30131;
};
}),
(112,558,l,{
"Letterink-NibData" = {
AngleInDegrees = 180;
};
}),
(112,-1,l,{
"Letterink-NibData" = {
AngleInDegrees = 90;
};
})
);
}
);
width = 729;
},
{
anchors = (
{
name = bottom;
pos = (376,0);
},
{
name = center;
pos = (376,489);
},
{
name = top;
pos = (376,685);
},
{
name = topleft;
pos = (49,684);
}
);
hints = (
{
name = _corner.caps_vert;
origin = (0,9);
type = Corner;
}
);
layerId = "49C16FD3-6177-408B-A733-AEB3898BB77C";
shapes = (
{
closed = 1;
nodes = (
(166,1,l),
(166,340,l,{
"Letterink-NibData" = {
AngleInDegrees = 90;
};
}),
(588,340,l,{
"Letterink-NibData" = {
AngleInDegrees = 180;
};
}),
(588,1,l,{
"Letterink-NibData" = {
AngleInDegrees = 90;
};
}),
(625,1,l),
(625,685,l,{
"Letterink-NibData" = {
AngleInDegrees = 270;
};
}),
(588,685,l,{
"Letterink-NibData" = {
AngleInDegrees = 180;
};
}),
(588,376,l,{
"Letterink-NibData" = {
AngleInDegrees = 270;
};
}),
(166,376,l),
(166,570,l,{
"Letterink-NibData" = {
AngleInDegrees = 270;
};
}),
(128,570,l,{
"Letterink-NibData" = {
AngleInDegrees = 180;
};
}),
(128,1,l,{
"Letterink-NibData" = {
AngleInDegrees = 90;
};
})
);
}
);
width = 719;
},
{
anchors = (
{
name = bottom;
pos = (395,0);
},
{
name = center;
pos = (395,500);
},
{
name = top;
pos = (394,684);
},
{
name = topleft;
pos = (74,684);
}
);
hints = (
{
name = _corner.caps_vert;
origin = (0,9);
type = Corner;
}
);
layerId = m004;
shapes = (
{
closed = 1;
nodes = (
(281,0,l),
(281,270,l,{
"Letterink-NibData" = {
AngleInDegrees = "90";
};
}),
(518,270,l,{
"Letterink-NibData" = {
AngleInDegrees = "180";
};
}),
(518,0,l,{
"Letterink-NibData" = {
AngleInDegrees = "90";
};
}),
(683,0,l),
(683,684,l,{
"Letterink-NibData" = {
AngleInDegrees = "270";
};
}),
(518,684,l,{
"Letterink-NibData" = {
AngleInDegrees = "180";
};
}),
(518,422,l,{
"Letterink-NibData" = {
AngleInDegrees = "270";
};
}),
(281,422,l),
(281,500,l,{
"Letterink-NibData" = {
AngleInDegrees = "270";
};
}),
(116,500,l,{
"Letterink-NibData" = {
AngleInDegrees = "180";
};
}),
(116,0,l,{
"Letterink-NibData" = {
AngleInDegrees = "90";
};
})
);
}
);
width = 756;
}
);
unicode = 72;
userData = {
position = 554;
width = 61;
};
},
{
glyphname = H.ss01;
layers = (
{
anchors = (
{
name = bottom;
pos = (361,0);
},
{
name = center;
pos = (361,512);
},
{
name = top;
pos = (361,684);
},
{
name = topleft;
pos = (44,684);
}
);
layerId = "0CAF3BED-C4AC-4024-B3E1-4C69D1EF7EC0";
shapes = (
{
closed = 1;
nodes = (
(170,-1,l),
(170,318,l,{
"Letterink-NibData" = {
AngleInDegrees = 90;
};
}),
(548,318,l,{
"Letterink-NibData" = {
AngleInDegrees = 180;
};
}),
(548,-1,l,{
"Letterink-NibData" = {
AngleInDegrees = 90;
};
}),
(630,-1,l),
(630,684,l,{
"Letterink-NibData" = {
AngleInDegrees = 270;
};
}),
(548,684,l,{
"Letterink-NibData" = {
AngleInDegrees = 180;
};
}),
(548,394,l,{
"Letterink-NibData" = {
AngleInDegrees = 270;
};
}),
(170,394,l),
(170,684,l,{
"Letterink-NibData" = {
AngleInDegrees = 270;
};
}),
(88,684,l,{
"Letterink-NibData" = {
AngleInDegrees = 180;
};
}),
(88,-1,l,{
"Letterink-NibData" = {
AngleInDegrees = 90;
};
})
);
}
);
width = 718;
},
{
anchors = (
{
name = bottom;
pos = (344,0);
},
{
name = center;
pos = (346,498);
},
{
name = top;
pos = (345,684);
},
{
name = topleft;
pos = (35,684);
}
);
layerId = "49C16FD3-6177-408B-A733-AEB3898BB77C";
shapes = (
{
closed = 1;
nodes = (
(132,0,l),
(132,340,l,{
"Letterink-NibData" = {
AngleInDegrees = 90;
};
}),
(560,340,l,{
"Letterink-NibData" = {
AngleInDegrees = 180;
};
}),
(560,0,l,{
"Letterink-NibData" = {
AngleInDegrees = 90;
};
}),
(598,0,l),
(598,684,l,{
"Letterink-NibData" = {
AngleInDegrees = 270;
};
}),
(560,684,l,{
"Letterink-NibData" = {
AngleInDegrees = 180;
};
}),
(560,376,l,{
"Letterink-NibData" = {
AngleInDegrees = 270;
};
}),
(132,376,l),
(132,684,l,{
"Letterink-NibData" = {
AngleInDegrees = 270;
};
}),
(94,684,l,{
"Letterink-NibData" = {
AngleInDegrees = 180;
};
}),
(94,0,l,{
"Letterink-NibData" = {
AngleInDegrees = 90;
};
})
);
}
);
width = 692;
},
{
anchors = (
{
name = bottom;
pos = (369,0);
},
{
name = center;
pos = (370,508);
},
{
name = top;
pos = (369,684);
},
{
name = topleft;
pos = (35,684);
}
);
layerId = m004;
shapes = (
{
closed = 1;
nodes = (
(238,0,l),
(238,270,l,{
"Letterink-NibData" = {
AngleInDegrees = "90";
};
}),
(499,270,l,{
"Letterink-NibData" = {
AngleInDegrees = "180";
};
}),
(499,0,l,{
"Letterink-NibData" = {
AngleInDegrees = "90";
};
}),
(664,0,l),
(664,684,l,{
"Letterink-NibData" = {
AngleInDegrees = "270";
};
}),
(499,684,l,{
"Letterink-NibData" = {
AngleInDegrees = "180";
};
}),
(499,422,l,{
"Letterink-NibData" = {
AngleInDegrees = "270";
};
}),
(238,422,l),
(238,684,l,{
"Letterink-NibData" = {
AngleInDegrees = "270";
};
}),
(73,684,l,{
"Letterink-NibData" = {
AngleInDegrees = "180";
};
}),
(73,0,l,{
"Letterink-NibData" = {
AngleInDegrees = "90";
};
})
);
}
);
width = 737;
}
);
metricLeft = "=|H";
metricRight = H;
userData = {
position = 525;
width = 61;
};
},
{
glyphname = H.swsh;
kernLeft = Swash;
layers = (
{
anchors = (
{
name = bottom;
pos = (398,0);
},
{
name = center;
pos = (398,478);
},
{
name = top;
pos = (398,675);
},
{
name = topleft;
pos = (36,684);
}
);
hints = (
{
name = _corner.caps_swash_vert;
origin = (0,9);
type = Corner;
}
);
layerId = "0CAF3BED-C4AC-4024-B3E1-4C69D1EF7EC0";
shapes = (
{
closed = 1;
nodes = (
(222,-1,l),
(222,317,l,{
"Letterink-NibData" = {
AngleInDegrees = 90;
};
}),
(567,317,l,{
"Letterink-NibData" = {
AngleInDegrees = 180;
};
}),
(567,-1,l,{
"Letterink-NibData" = {
AngleInDegrees = 90;
};
}),
(649,-1,l),
(649,686,l,{
"Letterink-NibData" = {
AngleInDegrees = 270;
};
}),
(567,686,l,{
"Letterink-NibData" = {
AngleInDegrees = 180;
};
}),
(567,395,l,{
"Letterink-NibData" = {
AngleInDegrees = 270;
};
}),
(222,395,l),
(222,559,l,{
"Letterink-NibData" = {
AngleInDegrees = 270;
};
}),
(140,559,l,{
"Letterink-NibData" = {
AngleInDegrees = 180;
};
}),
(140,-1,l,{
"Letterink-NibData" = {
AngleInDegrees = 90;
};
})
);
}
);
width = 737;
},
{
anchors = (
{
name = bottom;
pos = (393,0);
},
{
name = center;
pos = (393,450);
},
{
name = top;
pos = (393,684);
},
{
name = topleft;
pos = (60,684);
}
);
hints = (
{
name = _corner.caps_swash_vert;
options = 1;
origin = (0,9);
type = Corner;
}
);
layerId = "49C16FD3-6177-408B-A733-AEB3898BB77C";
shapes = (
{
closed = 1;
nodes = (
(188,1,l),
(188,340,l,{
"Letterink-NibData" = {
AngleInDegrees = 90;
};
}),
(599,340,l,{
"Letterink-NibData" = {
AngleInDegrees = 180;
};
}),
(599,1,l,{
"Letterink-NibData" = {
AngleInDegrees = 90;
};
}),
(637,1,l),
(637,685,l,{
"Letterink-NibData" = {
AngleInDegrees = 270;
};
}),
(599,685,l,{
"Letterink-NibData" = {
AngleInDegrees = 180;
};
}),
(599,376,l,{
"Letterink-NibData" = {
AngleInDegrees = 270;
};
}),
(188,376,l),
(188,570,l,{
"Letterink-NibData" = {
AngleInDegrees = 270;
};
}),
(150,570,l,{
"Letterink-NibData" = {
AngleInDegrees = 180;
};
}),
(150,1,l,{
"Letterink-NibData" = {
AngleInDegrees = 90;
};
})
);
}
);
width = 731;
},
{
anchors = (
{
name = bottom;
pos = (432,0);
},
{
name = center;
pos = (432,512);
},
{
name = top;
pos = (432,684);
},
{
name = topleft;
pos = (107,684);
}
);
hints = (
{
name = _corner.caps_swash_vert;
origin = (0,9);
type = Corner;
}
);
layerId = m004;
shapes = (
{
closed = 1;
nodes = (
(317,-5,l),
(317,270,l,{
"Letterink-NibData" = {
AngleInDegrees = "90";
};
}),
(554,270,l,{
"Letterink-NibData" = {
AngleInDegrees = "180";
};
}),
(554,-5,l,{
"Letterink-NibData" = {
AngleInDegrees = "90";
};
}),
(719,-5,l),
(719,684,l,{
"Letterink-NibData" = {
AngleInDegrees = "270";
};
}),
(554,684,l,{
"Letterink-NibData" = {
AngleInDegrees = "180";
};
}),
(554,422,l,{
"Letterink-NibData" = {
AngleInDegrees = "270";
};
}),
(317,422,l),
(317,501,l,{
"Letterink-NibData" = {
AngleInDegrees = "270";
};
}),
(152,501,l,{
"Letterink-NibData" = {
AngleInDegrees = "180";
};
}),
(152,-5,l,{
"Letterink-NibData" = {
AngleInDegrees = "90";
};
})
);
}
);
width = 792;
}
);
metricLeft = "=H*1.2";
metricRight = H;
userData = {
position = 554;
width = 61;
};
},
{
glyphname = I;
layers = (
{
anchors = (
{
name = bottom;
pos = (129,0);
},
{
name = center;
pos = (128,340);
},
{
name = ogonek;
pos = (170,-1);
},
{
name = top;
pos = (127,684);
},
{
name = topleft;
pos = (22,684);
}
);
layerId = "0CAF3BED-C4AC-4024-B3E1-4C69D1EF7EC0";
shapes = (
{
closed = 1;
nodes = (
(170,-1,l),
(170,684,l,{
"Letterink-NibData" = {
AngleInDegrees = 270;
};
}),
(88,684,l,{
"Letterink-NibData" = {
AngleInDegrees = 180;
};
}),
(88,-1,l,{
"Letterink-NibData" = {
AngleInDegrees = 90;
};
})
);
}
);
width = 258;
},
{
anchors = (
{
name = bottom;
pos = (114,0);
},
{
name = center;
pos = (114,343);
},
{
name = ogonek;
pos = (135,1);
},
{
name = top;
pos = (114,686);
},
{
name = topleft;
pos = (28,684);
}
);
layerId = "49C16FD3-6177-408B-A733-AEB3898BB77C";
shapes = (
{
closed = 1;
nodes = (
(135,1,l),
(135,686,l,{
"Letterink-NibData" = {
AngleInDegrees = 270;
};
}),
(94,686,l,{
"Letterink-NibData" = {
AngleInDegrees = 180;
};
}),
(94,1,l,{
"Letterink-NibData" = {
AngleInDegrees = 90;
};
})
);
}
);
width = 229;
},
{
anchors = (
{
name = bottom;
pos = (156,-1);
},
{
name = center;
pos = (156,339);
},
{
name = ogonek;
pos = (238,0);
},
{
name = top;
pos = (155,684);
},
{
name = topleft;
pos = (11,684);
}
);
layerId = m004;
shapes = (
{
closed = 1;
nodes = (
(238,0,l),
(238,684,l,{
"Letterink-NibData" = {
AngleInDegrees = 270;
};
}),
(73,684,l,{
"Letterink-NibData" = {
AngleInDegrees = 180;
};
}),
(73,0,l,{
"Letterink-NibData" = {
AngleInDegrees = 90;
};
})
);
}
);
width = 311;
}
);
metricLeft = "=|H";
metricRight = H;
unicode = 73;
userData = {
position = 54;
width = 61;
};
},
{
glyphname = I.swsh;
kernLeft = Swash;
layers = (
{
anchors = (
{
name = bottom;
pos = (187,0);
},
{
name = center;
pos = (186,340);
},
{
name = ogonek;
pos = (228,-1);
},
{
name = top;
pos = (187,684);
},
{
name = topleft;
pos = (80,684);
}
);
hints = (
{
name = _corner.caps_swash;
origin = (1,3);
type = Corner;
}
);
layerId = "0CAF3BED-C4AC-4024-B3E1-4C69D1EF7EC0";
shapes = (
{
closed = 1;
nodes = (
(228,0,l),
(228,684,l,{
"Letterink-NibData" = {
AngleInDegrees = 270;
};
}),
(146,684,l,{
"Letterink-NibData" = {
AngleInDegrees = 180;
};
}),
(146,0,l,{
"Letterink-NibData" = {
AngleInDegrees = 90;
};
})
);
},
{
closed = 1;
nodes = (
(126,608,l),
(191,608,l),
(191,684,l),
(126,684,l)
);
}
);
width = 316;
},
{
anchors = (
{
name = bottom;
pos = (182,0);
},
{
name = center;
pos = (181,342);
},
{
name = ogonek;
pos = (204,1);
},
{
name = top;
pos = (181,684);
},
{
name = topleft;
pos = (93,684);
}
);
hints = (
{
name = _corner.caps_swash;
origin = (1,3);
type = Corner;
}
);
layerId = "49C16FD3-6177-408B-A733-AEB3898BB77C";
shapes = (
{
closed = 1;
nodes = (
(199,1,l),
(199,684,l,{
"Letterink-NibData" = {
AngleInDegrees = 270;
};
}),
(162,684,l,{
"Letterink-NibData" = {
AngleInDegrees = 180;
};
}),
(162,1,l,{
"Letterink-NibData" = {
AngleInDegrees = 90;
};
})
);
},
{
closed = 1;
nodes = (
(114,648,l),
(168,648,l),
(168,684,l),
(114,684,l)
);
}
);
width = 293;
},
{
anchors = (
{
name = bottom;
pos = (179,0);
},
{
name = center;
pos = (178,386);
},
{
name = ogonek;
pos = (202,1);
},
{
name = top;
pos = (176,684);
},
{
name = topleft;
pos = (88,684);
}
);
associatedMasterId = "49C16FD3-6177-408B-A733-AEB3898BB77C";
hints = (
{
name = _corner.caps_swash_vert;
options = 1;
origin = (0,1);
type = Corner;
}
);
layerId = "AE169FFE-AC8B-4E8A-9035-7F809B0493BD";
name = "5 Jan 22, 09:48";
shapes = (
{
closed = 1;
nodes = (
(198,1,l),
(198,576,l,{
"Letterink-NibData" = {
AngleInDegrees = 270;
};
}),
(156,576,l,{
"Letterink-NibData" = {
AngleInDegrees = 180;
};
}),
(156,1,l,{
"Letterink-NibData" = {
AngleInDegrees = 90;
};
})
);
}
);
width = 301;
},
{
anchors = (
{
name = bottom;
pos = (247,0);
},
{
name = center;
pos = (251,341);
},
{
name = ogonek;
pos = (330,-1);
},
{
name = top;
pos = (250,684);
},
{
name = topleft;
pos = (99,684);
}
);
hints = (
{
name = _corner.caps_swash;
origin = (1,3);
type = Corner;
}
);
layerId = m004;
shapes = (
{
closed = 1;
nodes = (
(330,-1,l),
(330,684,l,{
"Letterink-NibData" = {
AngleInDegrees = 270;
};
}),
(165,684,l,{
"Letterink-NibData" = {
AngleInDegrees = 180;
};
}),
(165,-1,l,{
"Letterink-NibData" = {
AngleInDegrees = 90;
};
})
);
},
{
closed = 1;
nodes = (
(154,536,l),
(292,536,l),
(292,684,l),
(154,684,l,{
"Letterink-NibData" = {
AngleInDegrees = 180;
};
})
);
}
);
width = 403;
}
);
metricLeft = H.swsh;
metricRight = H;
userData = {
position = 54;
width = 61;
};
},
{
glyphname = J;
kernLeft = J;
kernRight = J;
layers = (
{
anchors = (
{
name = bottom;
pos = (246,0);
},
{
name = top;
pos = (246,684);
}
);
layerId = "0CAF3BED-C4AC-4024-B3E1-4C69D1EF7EC0";
shapes = (
{
closed = 1;
nodes = (
(357,-7,o),
(435,70,o),
(435,193,cs),
(435,689,l,{
"Letterink-NibData" = {
AngleInDegrees = 270;
};
}),
(366,689,l,{
"Letterink-NibData" = {
AngleInDegrees = 211.6075;
};
}),
(358,676,o),
(328,663,o),
(308,663,cs,{
"Letterink-NibData" = {
AngleInDegrees = 270;
};
}),
(266,663,o),
(233,698,o),
(183,698,cs,{
"Letterink-NibData" = {
AngleInDegrees = 270;
};
}),
(147,698,o),
(115,692,o),
(58,664,c,{
"Letterink-NibData" = {
AngleInDegrees = 153.09391;
};
}),
(92,597,l,{
"Letterink-NibData" = {
AngleInDegrees = 67.52057;
};
}),
(121,609,o),
(150,620,o),
(175,620,cs,{
"Letterink-NibData" = {
AngleInDegrees = 90;
};
}),
(223,620,o),
(260,587,o),
(303,587,cs,{
"Letterink-NibData" = {
AngleInDegrees = 90;
};
}),
(325,587,o),
(340,589,o),
(353,594,c,{
"Letterink-NibData" = {
AngleInDegrees = 180;
};
}),
(353,196,ls,{
"Letterink-NibData" = {
AngleInDegrees = 180;
};
}),
(353,118,o),
(308,69,o),
(236,69,cs,{
"Letterink-NibData" = {
AngleInDegrees = 270;
};
}),
(160,69,o),
(115,115,o),
(119,188,c,{
"Letterink-NibData" = {
AngleInDegrees = 274.39871;
};
}),
(41,194,l,{
"Letterink-NibData" = {
AngleInDegrees = 181.88819;
};
}),
(37,71,o),
(111,-7,o),
(233,-7,cs,{
"Letterink-NibData" = {
AngleInDegrees = 90;
};
})
);
}
);
width = 519;
},
{
anchors = (
{
name = bottom;
pos = (246,0);
},
{
name = top;
pos = (262,684);
}
);
layerId = "49C16FD3-6177-408B-A733-AEB3898BB77C";
shapes = (
{
closed = 1;
nodes = (
(348,-6,o),
(422,68,o),
(422,184,cs),
(422,688,l,{
"Letterink-NibData" = {
AngleInDegrees = 270;
};
}),
(377,688,l,{
"Letterink-NibData" = {
AngleInDegrees = 209.35776;
};
}),
(367,671,o),
(340,660,o),
(318,660,cs,{
"Letterink-NibData" = {
AngleInDegrees = 270;
};
}),
(277,660,o),
(227,697,o),
(170,697,cs,{
"Letterink-NibData" = {
AngleInDegrees = 270;
};
}),
(145,697,o),
(119,690,o),
(78,673,c,{
"Letterink-NibData" = {
AngleInDegrees = 153.43495;
};
}),
(94,641,l,{
"Letterink-NibData" = {
AngleInDegrees = 70.82099;
};
}),
(114,651,o),
(140,662,o),
(170,662,cs,{
"Letterink-NibData" = {
AngleInDegrees = 90;
};
}),
(234,662,o),
(252,625,o),
(316,625,cs,{
"Letterink-NibData" = {
AngleInDegrees = 90;
};
}),
(343,625,o),
(367,632,o),
(384,650,c,{
"Letterink-NibData" = {
AngleInDegrees = 180;
};
}),
(384,187,ls,{
"Letterink-NibData" = {
AngleInDegrees = 180;
};
}),
(384,90,o),
(326,30,o),
(235,30,cs,{
"Letterink-NibData" = {
AngleInDegrees = 270;
};
}),
(143,30,o),
(91,83,o),
(89,156,c,{
"Letterink-NibData" = {
AngleInDegrees = 275.5722;
};
}),
(52,156,l,{
"Letterink-NibData" = {
AngleInDegrees = 176.71075;
};
}),
(59,58,o),
(129,-6,o),
(232,-6,cs,{
"Letterink-NibData" = {
AngleInDegrees = 90;
};
})
);
}
);
width = 511;
},
{
anchors = (
{
name = bottom;
pos = (283,0);
},
{
name = top;
pos = (258,684);
}
);
layerId = m004;
shapes = (
{
closed = 1;
nodes = (
(397,-22,o),
(483,62,o),
(483,197,cs),
(483,697,l,{
"Letterink-NibData" = {
AngleInDegrees = 270;
};
}),
(376,697,l,{
"Letterink-NibData" = {
AngleInDegrees = 211.6075;
};
}),
(360,682,o),
(335,674,o),
(312,674,cs,{
"Letterink-NibData" = {
AngleInDegrees = 270;
};
}),
(273,674,o),
(235,696,o),
(167,696,cs,{
"Letterink-NibData" = {
AngleInDegrees = 270;
};
}),
(112,696,o),
(79,686,o),
(32,653,c,{
"Letterink-NibData" = {
AngleInDegrees = 153.09391;
};
}),
(100,521,l,{
"Letterink-NibData" = {
AngleInDegrees = 67.52057;
};
}),
(126,534,o),
(155,541,o),
(182,541,cs,{
"Letterink-NibData" = {
AngleInDegrees = 90;
};
}),
(223,541,o),
(248,524,o),
(277,524,cs,{
"Letterink-NibData" = {
AngleInDegrees = 90;
};
}),
(299,524,o),
(314,529,o),
(318,533,c,{
"Letterink-NibData" = {
AngleInDegrees = 180;
};
}),
(318,200,ls,{
"Letterink-NibData" = {
AngleInDegrees = 180;
};
}),
(318,157,o),
(296,130,o),
(254,130,cs,{
"Letterink-NibData" = {
AngleInDegrees = 270;
};
}),
(203,130,o),
(177,169,o),
(186,237,c,{
"Letterink-NibData" = {
AngleInDegrees = 274.39871;
};
}),
(29,247,l,{
"Letterink-NibData" = {
AngleInDegrees = 181.88819;
};
}),
(11,82,o),
(98,-22,o),
(255,-22,cs,{
"Letterink-NibData" = {
AngleInDegrees = 90;
};
})
);
}
);
width = 552;
}
);
metricRight = "=H*.95";
unicode = 74;
userData = {
position = 333;
width = 53;
};
},
{
glyphname = J.ss01;
kernLeft = Jtext;
kernRight = J;
layers = (
{
anchors = (
{
name = bottom;
pos = (249,-9);
},
{
name = top;
pos = (428,684);
}
);
layerId = "0CAF3BED-C4AC-4024-B3E1-4C69D1EF7EC0";
shapes = (
{
closed = 1;
nodes = (
(385,-9,o),
(471,78,o),
(471,216,cs),
(471,684,l,{
"Letterink-NibData" = {
AngleInDegrees = 270;
};
}),
(389,684,l,{
"Letterink-NibData" = {
AngleInDegrees = 180;
};
}),
(389,219,ls,{
"Letterink-NibData" = {
AngleInDegrees = 180;
};
}),
(389,126,o),
(324,67,o),
(252,67,cs,{
"Letterink-NibData" = {
AngleInDegrees = 270;
};
}),
(156,67,o),
(111,121,o),
(115,206,c,{
"Letterink-NibData" = {
AngleInDegrees = 274.39871;
};
}),
(37,212,l,{
"Letterink-NibData" = {
AngleInDegrees = 181.88819;
};
}),
(33,77,o),
(107,-9,o),
(249,-9,cs,{
"Letterink-NibData" = {
AngleInDegrees = 90;
};
})
);
}
);
width = 555;
},
{
anchors = (
{
name = bottom;
pos = (248,-6);
},
{
name = top;
pos = (441,684);
}
);
layerId = "49C16FD3-6177-408B-A733-AEB3898BB77C";
shapes = (
{
closed = 1;
nodes = (
(377,-6,o),
(459,78,o),
(459,210,cs),
(459,685,l,{
"Letterink-NibData" = {
AngleInDegrees = 268.5679;
};
}),
(419,684,l,{
"Letterink-NibData" = {
AngleInDegrees = 184.66686;
};
}),
(423,213,ls,{
"Letterink-NibData" = {
AngleInDegrees = 180;
};
}),
(424,99,o),
(352,30,o),
(247,30,cs,{
"Letterink-NibData" = {
AngleInDegrees = 270;
};
}),
(153,30,o),
(90,86,o),
(87,180,c,{
"Letterink-NibData" = {
AngleInDegrees = 275.19443;
};
}),
(47,183,l,{
"Letterink-NibData" = {
AngleInDegrees = 178.68309;
};
}),
(49,68,o),
(126,-6,o),
(248,-6,cs,{
"Letterink-NibData" = {
AngleInDegrees = 90;
};
})
);
}
);
width = 548;
},
{
anchors = (
{
name = bottom;
pos = (273,-7);
},
{
name = top;
pos = (411,684);
}
);
layerId = m004;
shapes = (
{
closed = 1;
nodes = (
(407,-22,o),
(497,66,o),
(497,207,cs),
(497,686,l,{
"Letterink-NibData" = {
AngleInDegrees = "270";
};
}),
(332,686,l,{
"Letterink-NibData" = {
AngleInDegrees = "180";
};
}),
(332,210,ls,{
"Letterink-NibData" = {
AngleInDegrees = "180";
};
}),
(332,161,o),
(306,130,o),
(266,130,cs,{
"Letterink-NibData" = {
AngleInDegrees = "270";
};
}),
(199,130,o),
(169,169,o),
(185,237,c,{
"Letterink-NibData" = {
AngleInDegrees = "274.39871";
};
}),
(28,247,l,{
"Letterink-NibData" = {
AngleInDegrees = "181.88819";
};
}),
(4,82,o),
(95,-22,o),
(263,-22,cs,{
"Letterink-NibData" = {
AngleInDegrees = "90";
};
})
);
}
);
width = 566;
}
);
metricLeft = "=J*.9";
metricRight = J;
userData = {
position = 333;
width = 53;
};
},
{
glyphname = J.swsh;
kernLeft = J;
kernRight = J;
layers = (
{
anchors = (
{
name = bottom;
pos = (286,0);
},
{
name = top;
pos = (286,684);
}
);
layerId = "0CAF3BED-C4AC-4024-B3E1-4C69D1EF7EC0";
shapes = (
{
closed = 1;
nodes = (
(389,-12,o),
(475,73,o),
(475,208,cs),
(475,685,l,{
"Letterink-NibData" = {
AngleInDegrees = 270;
};
}),
(410,685,l,{
"Letterink-NibData" = {
AngleInDegrees = 211.6075;
};
}),
(393,626,l),
(393,211,ls,{
"Letterink-NibData" = {
AngleInDegrees = 180;
};
}),
(393,121,o),
(342,64,o),
(254,64,cs,{
"Letterink-NibData" = {
AngleInDegrees = 270;
};
}),
(168,64,o),
(114,118,o),
(119,203,c,{
"Letterink-NibData" = {
AngleInDegrees = 274.39871;
};
}),
(41,209,l,{
"Letterink-NibData" = {
AngleInDegrees = 181.88819;
};
}),
(37,74,o),
(118,-12,o),
(253,-12,cs,{
"Letterink-NibData" = {
AngleInDegrees = 90;
};
})
);
},
{
closed = 1;
nodes = (
(321,630,o),
(304,703,o),
(190,703,cs),
(70,703,o),
(9,574,o),
(69,494,cs),
(112,438,o),
(203,438,o),
(241,494,c),
(180,540,l),
(167,524,o),
(147,524,o),
(135,540,cs),
(108,575,o),
(130,627,o),
(190,627,cs),
(248,627,o),
(323,536,o),
(459,630,c),
(411,685,l)
);
}
);
width = 559;
},
{
anchors = (
{
name = bottom;
pos = (286,0);
},
{
name = top;
pos = (285,684);
}
);
background = {
shapes = (
{
closed = 1;
nodes = (
(410,-6,o),
(464,86,o),
(464,185,cs),
(464,688,l,{
"Letterink-NibData" = {
AngleInDegrees = "270";
};
}),
(417,688,l,{
"Letterink-NibData" = {
AngleInDegrees = "209.35776";
};
}),
(408,672,o),
(380,660,o),
(358,660,cs,{
"Letterink-NibData" = {
AngleInDegrees = "270";
};
}),
(340,660,o),
(320,666,o),
(300,674,cs,{
"Letterink-NibData" = {
AngleInDegrees = "291.57131";
};
}),
(257,691,o),
(227,697,o),
(212,697,cs,{
"Letterink-NibData" = {
AngleInDegrees = "270";
};
}),
(186,697,o),
(168,691,o),
(117,672,c,{
"Letterink-NibData" = {
AngleInDegrees = "153.43495";
};
}),
(135,636,l,{
"Letterink-NibData" = {
AngleInDegrees = "70.82098999999999";
};
}),
(158,644,o),
(183,658,o),
(212,658,cs,{
"Letterink-NibData" = {
AngleInDegrees = "90";
};
}),
(233,658,o),
(251,651,o),
(269,643,cs,{
"Letterink-NibData" = {
AngleInDegrees = "113.42869";
};
}),
(299,630,o),
(323,621,o),
(356,621,cs,{
"Letterink-NibData" = {
AngleInDegrees = "90";
};
}),
(377,621,o),
(403,625,o),
(422,644,c,{
"Letterink-NibData" = {
AngleInDegrees = "180";
};
}),
(422,188,ls,{
"Letterink-NibData" = {
AngleInDegrees = "180";
};
}),
(422,121,o),
(392,34,o),
(276,34,cs,{
"Letterink-NibData" = {
AngleInDegrees = "270";
};
}),
(187,34,o),
(135,86,o),
(133,159,c,{
"Letterink-NibData" = {
AngleInDegrees = "275.5722";
};
}),
(92,163,l,{
"Letterink-NibData" = {
AngleInDegrees = "176.71075";
};
}),
(97,76,o),
(143,-6,o),
(273,-6,cs,{
"Letterink-NibData" = {
AngleInDegrees = "90";
};
})
);
},
{
closed = 1;
nodes = (
(410,-6,o),
(464,86,o),
(464,185,cs),
(464,688,l,{
"Letterink-NibData" = {
AngleInDegrees = "270";
};
}),
(417,688,l,{
"Letterink-NibData" = {
AngleInDegrees = "209.35776";
};
}),
(408,672,o),
(380,660,o),
(358,660,cs,{
"Letterink-NibData" = {
AngleInDegrees = "270";
};
}),
(340,660,o),
(320,666,o),
(300,674,cs,{
"Letterink-NibData" = {
AngleInDegrees = "291.57131";
};
}),
(257,691,o),
(227,697,o),
(212,697,cs,{
"Letterink-NibData" = {
AngleInDegrees = "270";
};
}),
(186,697,o),
(168,691,o),
(117,672,c,{
"Letterink-NibData" = {
AngleInDegrees = "153.43495";
};
}),
(135,636,l,{
"Letterink-NibData" = {
AngleInDegrees = "70.82098999999999";
};
}),
(158,644,o),
(183,658,o),
(212,658,cs,{
"Letterink-NibData" = {
AngleInDegrees = "90";
};
}),
(233,658,o),
(251,651,o),
(269,643,cs,{
"Letterink-NibData" = {
AngleInDegrees = "113.42869";
};
}),
(299,630,o),
(323,621,o),
(356,621,cs,{
"Letterink-NibData" = {
AngleInDegrees = "90";
};
}),
(377,621,o),
(403,625,o),
(422,644,c,{
"Letterink-NibData" = {
AngleInDegrees = "180";
};
}),
(422,188,ls,{
"Letterink-NibData" = {
AngleInDegrees = "180";
};
}),
(422,121,o),
(392,34,o),
(276,34,cs,{
"Letterink-NibData" = {
AngleInDegrees = "270";
};
}),
(187,34,o),
(135,86,o),
(133,159,c,{
"Letterink-NibData" = {
AngleInDegrees = "275.5722";
};
}),
(92,163,l,{
"Letterink-NibData" = {
AngleInDegrees = "176.71075";
};
}),
(97,76,o),
(143,-6,o),
(273,-6,cs,{
"Letterink-NibData" = {
AngleInDegrees = "90";
};
})
);
}
);
};
layerId = "49C16FD3-6177-408B-A733-AEB3898BB77C";
shapes = (
{
closed = 1;
nodes = (
(380,-6,o),
(462,77,o),
(462,204,cs),
(462,686,l,{
"Letterink-NibData" = {
AngleInDegrees = 270;
};
}),
(431,686,l,{
"Letterink-NibData" = {
AngleInDegrees = 180;
};
}),
(424,662,l),
(424,207,ls,{
"Letterink-NibData" = {
AngleInDegrees = 180;
};
}),
(424,98,o),
(358,30,o),
(255,30,cs,{
"Letterink-NibData" = {
AngleInDegrees = 270;
};
}),
(159,30,o),
(92,83,o),
(89,176,c,{
"Letterink-NibData" = {
AngleInDegrees = 275.5722;
};
}),
(52,180,l,{
"Letterink-NibData" = {
AngleInDegrees = 176.71075;
};
}),
(60,66,o),
(137,-6,o),
(252,-6,cs,{
"Letterink-NibData" = {
AngleInDegrees = 90;
};
})
);
},
{
closed = 1;
nodes = (
(340,626,o),
(294,702,o),
(197,702,cs),
(88,702,o),
(38,585,o),
(89,518,cs),
(130,465,o),
(203,475,o),
(233,518,c),
(204,540,l),
(181,508,o),
(143,508,o),
(119,540,cs),
(84,588,o),
(117,666,o),
(197,666,cs),
(269,666,o),
(338,580,o),
(448,659,c),
(431,686,l,{
"Letterink-NibData" = {
AngleInDegrees = 180;
};
})
);
}
);
width = 551;
},
{
anchors = (
{
name = bottom;
pos = (323,0);
},
{
name = top;
pos = (247,692);
}
);
layerId = m004;
shapes = (
{
closed = 1;
nodes = (
(430,-31,o),
(523,62,o),
(523,208,cs),
(523,677,l,{
"Letterink-NibData" = {
AngleInDegrees = 270;
};
}),
(384,677,l,{
"Letterink-NibData" = {
AngleInDegrees = 211.6075;
};
}),
(355,536,l),
(358,211,ls,{
"Letterink-NibData" = {
AngleInDegrees = 180;
};
}),
(358,158,o),
(333,121,o),
(280,121,cs,{
"Letterink-NibData" = {
AngleInDegrees = 270;
};
}),
(207,121,o),
(178,173,o),
(201,248,c,{
"Letterink-NibData" = {
AngleInDegrees = 274.39871;
};
}),
(44,258,l,{
"Letterink-NibData" = {
AngleInDegrees = 181.88819;
};
}),
(13,80,o),
(103,-31,o),
(279,-31,cs,{
"Letterink-NibData" = {
AngleInDegrees = 90;
};
})
);
},
{
closed = 1;
nodes = (
(352,654,o),
(306,706,o),
(218,706,cs),
(59,706,o),
(-27,550,o),
(65,429,cs),
(124,352,o),
(259,357,o),
(325,437,c),
(213,519,l),
(205,511,o),
(193,513,o),
(183,525,cs),
(170,541,o),
(191,558,o),
(223,558,cs),
(284,558,o),
(346,466,o),
(480,569,c),
(384,677,l,{
"Letterink-NibData" = {
AngleInDegrees = 211.6075;
};
})
);
}
);
width = 592;
}
);
metricLeft = J;
metricRight = J;
userData = {
position = 333;
width = 53;
};
},
